<svg width="154" height="24" viewBox="0 0 154 24" fill="none" xmlns="http://www.w3.org/2000/svg">
<path d="M2 10.5C1.17157 10.5 0.5 11.1716 0.5 12C0.5 12.8284 1.17157 13.5 2 13.5L2 10.5ZM153.061 13.0606C153.646 12.4749 153.646 11.5251 153.061 10.9393L143.515 1.39339C142.929 0.8076 141.979 0.8076 141.393 1.39339C140.808 1.97917 140.808 2.92892 141.393 3.51471L149.879 12L141.393 20.4853C140.808 21.0711 140.808 22.0208 141.393 22.6066C141.979 23.1924 142.929 23.1924 143.515 22.6066L153.061 13.0606ZM2 13.5L152 13.5L152 10.5L2 10.5L2 13.5Z" fill="#007CFF"/>
</svg>
