<svg width="76" height="26" viewBox="0 0 76 26" fill="none" xmlns="http://www.w3.org/2000/svg">
<g clip-path="url(#clip0_2_18327)">
<path d="M6.11605 19.0059H8.20772C8.73873 19.0059 9.20086 19.1906 9.57085 19.5538C9.95605 19.9028 10.1554 20.3424 10.1554 20.8508V25.5H7.60149V21.0722H2.55389V25.5H0V14.4305H2.55389V19.5498L7.96185 14.4305H11.3191L6.11605 19.0059Z" fill="white"/>
<path fill-rule="evenodd" clip-rule="evenodd" d="M20.2121 21.0721H17.7866V19.3854H15.3611V25.4999H12.9355V17.3823H15.3611V17.9147L15.9444 17.3823H18.1909C18.7448 17.3823 19.2255 17.5691 19.6087 17.9331C20.0075 18.2829 20.2121 18.7216 20.2121 19.2272V21.0721Z" fill="white"/>
<path fill-rule="evenodd" clip-rule="evenodd" d="M22.1106 24.9765C22.4851 25.3229 22.9407 25.4999 23.4578 25.4999H26.8532L27.6361 24.8535V25.4999H29.9151V19.2272C29.9151 18.7216 29.7229 18.2829 29.3481 17.9331C28.9881 17.5691 28.5364 17.3823 28.0159 17.3823H23.0835L21.0215 19.3854H27.6361V20.3342H23.4578C22.9348 20.3342 22.4772 20.5225 22.104 20.885C21.7414 21.2373 21.5587 21.6764 21.5587 22.1791V23.655C21.5587 24.1574 21.7409 24.5999 22.0975 24.9637L22.1039 24.9703L22.1106 24.9765ZM23.8377 22.3161V23.4969H27.6361V21.3762L26.652 22.3161H23.8377Z" fill="white"/>
<path fill-rule="evenodd" clip-rule="evenodd" d="M39.6164 12.9546L37.4402 14.9576H33.8595V17.7482L34.2602 17.3824H39.391L37.2149 19.3854H33.8595V25.5H31.5312V14.7995C31.5312 14.2909 31.7236 13.8499 32.0984 13.4992C32.4837 13.1386 32.9519 12.9546 33.484 12.9546H39.6164Z" fill="white"/>
<path fill-rule="evenodd" clip-rule="evenodd" d="M46.8937 25.5H43.4514C42.9331 25.5 42.4758 25.3321 42.0988 25.0016L42.0921 24.9957L42.0857 24.9895C41.7263 24.6422 41.5417 24.2186 41.5417 23.7366V19.6557H38.8086L40.8886 17.7412H41.5417V16.5354L43.8285 14.4305V17.7412H46.8937V19.6557H43.8285V23.5855H46.8937V25.5Z" fill="white"/>
<path d="M54.9779 19.3854H50.9353V25.4999H48.5098V17.3823H50.9353V17.9147L51.5186 17.3823H55.3821C55.9361 17.3823 56.4167 17.5691 56.7999 17.9331C57.1988 18.2829 57.4034 18.7216 57.4034 19.2272V25.4999H54.9779V19.3854Z" fill="white"/>
<path fill-rule="evenodd" clip-rule="evenodd" d="M58.8004 24.9765C59.1989 25.3229 59.6838 25.4999 60.2342 25.4999H67.1065V23.4969H60.6384V22.5481H65.2527L67.1065 20.856V19.2272C67.1065 18.7216 66.9019 18.2829 66.5031 17.9331C66.1199 17.5691 65.6392 17.3823 65.0852 17.3823H60.2342C59.6775 17.3823 59.1905 17.5707 58.7933 17.9332C58.4074 18.2854 58.2129 18.7245 58.2129 19.2272V23.655C58.2129 24.1574 58.4068 24.5999 58.7864 24.9637L58.7932 24.9703L58.8004 24.9765ZM64.681 20.545V19.3854H60.6384V21.4991L61.6837 20.545H64.681Z" fill="white"/>
<path fill-rule="evenodd" clip-rule="evenodd" d="M75.9992 25.5H72.5569C72.0386 25.5 71.5813 25.3321 71.2043 25.0016L71.1976 24.9957L71.1912 24.9895C70.8318 24.6422 70.6472 24.2186 70.6472 23.7366V19.6557H67.9141L69.994 17.7412H70.6472V16.5354L72.9339 14.4305V17.7412H75.9992V19.6557H72.9339V23.5855H75.9992V25.5Z" fill="white"/>
</g>
<path d="M6.03866 1.13085V2.01023C5.76844 1.75534 5.47457 1.5578 5.15706 1.41761C4.77199 1.25193 4.38355 1.16909 3.99173 1.16909C3.21484 1.16909 2.5663 1.42717 2.04613 1.94332C1.5327 2.4531 1.27599 3.08077 1.27599 3.82632C1.27599 4.62923 1.55635 5.26327 2.11706 5.72845C2.68453 6.19362 3.31279 6.42621 4.00186 6.42621C4.43421 6.42621 4.85306 6.32744 5.25839 6.1299C5.54213 5.99608 5.80221 5.81766 6.03866 5.59463V6.474C5.4239 6.8882 4.74497 7.0953 4.00186 7.0953C3.00204 7.0953 2.16773 6.77987 1.49893 6.14902C0.836882 5.51816 0.505859 4.74074 0.505859 3.81677C0.505859 2.8673 0.840259 2.07714 1.50906 1.44628C2.18461 0.815427 3.02906 0.5 4.04239 0.5C4.7855 0.5 5.45093 0.710285 6.03866 1.13085Z" fill="white"/>
<path d="M7.5433 3.01386H10.5022V6.34974H11.1305V8.03202H10.4617V6.9806H7.25957V8.03202H6.59077V6.34974C6.94206 6.34337 7.20215 6.17132 7.37103 5.83359C7.48588 5.61056 7.5433 5.26008 7.5433 4.78216V3.01386ZM9.77263 6.34974V3.64471H8.2729V5.13583C8.2729 5.66472 8.10401 6.06936 7.76623 6.34974H9.77263Z" fill="white"/>
<path d="M15.0213 5.65198L15.6293 5.96741C15.4874 6.2223 15.3152 6.43577 15.1125 6.60782C14.7274 6.93281 14.2613 7.0953 13.7141 7.0953C13.1466 7.0953 12.6569 6.92325 12.2448 6.57914C11.8394 6.22867 11.6368 5.70933 11.6368 5.02112C11.6368 4.41576 11.8192 3.91554 12.184 3.52046C12.5555 3.119 13.0521 2.91828 13.6736 2.91828C14.3761 2.91828 14.9065 3.16042 15.2645 3.64471C15.5482 4.02705 15.68 4.52409 15.6597 5.13583H12.3866C12.3934 5.53728 12.5251 5.86226 12.7818 6.11078C13.0385 6.3593 13.3527 6.48356 13.7242 6.48356C14.0553 6.48356 14.3424 6.38798 14.5856 6.19681C14.7747 6.04387 14.92 5.86226 15.0213 5.65198ZM12.4373 4.56232H14.9098C14.849 4.25008 14.7038 4.00156 14.4741 3.81677C14.2512 3.6256 13.9843 3.53001 13.6736 3.53001C13.3696 3.53001 13.0993 3.62878 12.8629 3.82632C12.6332 4.01749 12.4913 4.26282 12.4373 4.56232Z" fill="white"/>
<path d="M19.9607 3.01386V6.9806H19.2311V3.64471H17.7314V5.43214C17.7314 5.94829 17.6233 6.33063 17.4072 6.57914C17.1639 6.85952 16.8262 6.99971 16.3938 6.99971C16.3398 6.99971 16.2655 6.99334 16.1709 6.9806V6.34974C16.2384 6.36249 16.2925 6.36886 16.333 6.36886C16.5695 6.36886 16.7451 6.28283 16.8599 6.11078C16.9545 5.97059 17.0018 5.74438 17.0018 5.43214V3.01386H19.9607Z" fill="white"/>
<path d="M24.5633 3.57781V3.01386H25.2929V6.9806H24.5633V6.42621C24.1985 6.87227 23.7188 7.0953 23.1243 7.0953C22.5569 7.0953 22.0738 6.9105 21.6753 6.54091C21.2767 6.17132 21.0774 5.65517 21.0774 4.99245C21.0774 4.34248 21.2733 3.83588 21.6651 3.47266C22.0637 3.10307 22.5501 2.91828 23.1243 2.91828C23.7323 2.91828 24.212 3.13812 24.5633 3.57781ZM23.2054 3.53001C22.8203 3.53001 22.4927 3.66065 22.2225 3.92191C21.959 4.1768 21.8273 4.53365 21.8273 4.99245C21.8273 5.43214 21.9489 5.79217 22.1921 6.07255C22.442 6.34656 22.7798 6.48356 23.2054 6.48356C23.631 6.48356 23.9688 6.34018 24.2187 6.05343C24.4754 5.76668 24.6038 5.4162 24.6038 5.00201C24.6038 4.53046 24.4619 4.16724 24.1782 3.91235C23.8945 3.65746 23.5702 3.53001 23.2054 3.53001Z" fill="white"/>
<path d="M26.6747 6.9806V3.01386H27.4043V4.63879H29.3904V3.01386H30.12V6.9806H29.3904V5.26964H27.4043V6.9806H26.6747Z" fill="white"/>
<path d="M35.0508 6.50268C34.6319 6.89776 34.1016 7.0953 33.4599 7.0953C32.8181 7.0953 32.2844 6.89776 31.8588 6.50268C31.4399 6.1076 31.2305 5.61056 31.2305 5.01157C31.2305 4.4062 31.4399 3.90598 31.8588 3.5109C32.2844 3.11582 32.8181 2.91828 33.4599 2.91828C34.1016 2.91828 34.6319 3.11582 35.0508 3.5109C35.4764 3.90598 35.6892 4.4062 35.6892 5.01157C35.6892 5.61056 35.4764 6.1076 35.0508 6.50268ZM34.5036 3.92191C34.2199 3.66065 33.8719 3.53001 33.4599 3.53001C33.0478 3.53001 32.6965 3.66383 32.406 3.93147C32.1223 4.19273 31.9804 4.55276 31.9804 5.01157C31.9804 5.47037 32.1256 5.8304 32.4161 6.09167C32.7066 6.35293 33.0545 6.48356 33.4599 6.48356C33.8652 6.48356 34.2131 6.35293 34.5036 6.09167C34.7941 5.8304 34.9393 5.47037 34.9393 5.01157C34.9393 4.54639 34.7941 4.18317 34.5036 3.92191Z" fill="white"/>
<path d="M39.1731 3.01386H40.7641C41.1492 3.01386 41.443 3.09033 41.6457 3.24326C41.8889 3.42806 42.0105 3.67658 42.0105 3.98882C42.0105 4.33292 41.8585 4.59737 41.5545 4.78216C41.7639 4.83314 41.9395 4.92235 42.0814 5.0498C42.3043 5.25371 42.4158 5.5086 42.4158 5.81447C42.4158 6.19681 42.2706 6.4963 41.9801 6.71296C41.7301 6.89139 41.3991 6.9806 40.987 6.9806H39.1731V3.01386ZM39.9028 4.62923H40.6729C40.8688 4.62923 41.0242 4.591 41.139 4.51453C41.2741 4.41895 41.3417 4.28194 41.3417 4.10352C41.3417 3.94421 41.2741 3.81677 41.139 3.72118C41.0377 3.65746 40.8418 3.6256 40.5513 3.6256H39.9028V4.62923ZM39.9028 6.36886H40.8046C41.1154 6.36886 41.3349 6.32425 41.4633 6.23504C41.6254 6.12034 41.7065 5.97378 41.7065 5.79535C41.7065 5.60419 41.6356 5.45444 41.4937 5.34611C41.3653 5.25053 41.1458 5.20273 40.835 5.20273H39.9028V6.36886Z" fill="white"/>
<defs>
<clipPath id="clip0_2_18327">
<rect width="76" height="12.5454" fill="white" transform="translate(0 12.9546)"/>
</clipPath>
</defs>
</svg>
