<svg width="415" height="495" viewBox="0 0 415 495" fill="none" xmlns="http://www.w3.org/2000/svg">
<rect width="415" height="495" fill="white"/>
<g clip-path="url(#clip0_1353_603)">
<path fill-rule="evenodd" clip-rule="evenodd" d="M57.8298 32.621C69.5007 32.621 78.958 41.9976 78.958 53.5565C78.958 65.1208 69.4951 74.4919 57.8298 74.4919C51.8643 74.4919 46.4798 72.0408 42.6338 68.1038H49.3242C49.8223 68.1038 50.2982 68.0325 50.7409 67.8954C52.877 68.9372 55.2842 69.5185 57.8298 69.5185C66.7282 69.5185 73.9388 62.3682 73.9388 53.5565C73.9388 44.7392 66.7282 37.5944 57.8298 37.5944C55.2288 37.5944 52.7718 38.2086 50.5915 39.2943C50.0658 39.0969 49.4847 38.9872 48.876 38.9872H42.6615C46.502 35.0556 51.8809 32.621 57.8298 32.621Z" fill="#90CAF8"/>
<path d="M34.5928 49.2411H28.4281V47.6235C28.4281 46.8668 28.3451 46.3842 28.1901 46.1759C28.0352 45.9675 27.7751 45.8688 27.4098 45.8688C27.0114 45.8688 26.7126 46.0059 26.5078 46.291C26.3031 46.5652 26.2035 46.9874 26.2035 47.5522C26.2035 48.2815 26.3197 48.8298 26.5521 49.1972C26.779 49.5591 27.4043 50.0087 28.4281 50.5351C31.3721 52.0431 33.2259 53.2823 33.9896 54.2419C34.7588 55.2069 35.1406 56.7587 35.1406 58.8972C35.1406 60.4545 34.9248 61.6005 34.4987 62.3408C34.0726 63.081 33.2536 63.6952 32.0361 64.1941C30.8187 64.6986 29.4076 64.9454 27.7861 64.9454C26.0098 64.9454 24.499 64.6548 23.2373 64.079C21.9811 63.5033 21.1676 62.774 20.7747 61.8802C20.3874 60.9864 20.1937 59.7197 20.1937 58.0857V56.6491H26.3584V59.3085C26.3584 60.1255 26.4469 60.6574 26.6185 60.8877C26.79 61.1235 27.0999 61.2386 27.5371 61.2386C27.9798 61.2386 28.3063 61.0906 28.5221 60.7945C28.738 60.4984 28.8431 60.0597 28.8431 59.4785C28.8431 58.1954 28.6383 57.3509 28.2288 56.9561C27.8027 56.5613 26.7734 55.8978 25.1243 54.9657C23.4753 54.028 22.3906 53.3481 21.8538 52.9259C21.3226 52.5037 20.8743 51.9169 20.5257 51.1712C20.1771 50.42 20 49.4659 20 48.3034C20 46.631 20.249 45.4027 20.7471 44.6296C21.2451 43.8564 22.0475 43.2532 23.1654 42.8146C24.2777 42.3759 25.6169 42.1621 27.194 42.1621C28.915 42.1621 30.3815 42.4033 31.5934 42.8749C32.8053 43.3519 33.6077 43.9551 34.0007 44.6789C34.3936 45.4027 34.5928 46.631 34.5928 48.3692V49.2411ZM57.8073 30C64.376 30 70.3193 32.6375 74.6247 36.9035C78.9245 41.1641 81.5863 47.0587 81.5863 53.5674C81.5863 58.327 80.1641 62.7575 77.707 66.4643L88 77.579L80.9056 84.0055L70.9834 73.1868C67.2148 75.6763 62.6826 77.1348 57.8128 77.1348C51.2441 77.1348 45.3008 74.4974 40.9954 70.2313C40.3203 69.5623 39.6839 68.8495 39.0918 68.1038H42.6003C42.6888 68.1915 42.7773 68.2847 42.8659 68.3725C46.6898 72.1615 51.9746 74.5028 57.8073 74.5028C63.64 74.5028 68.9248 72.1615 72.7487 68.3725C76.5726 64.5835 78.9356 59.3469 78.9356 53.5674C78.9356 47.788 76.5781 42.5514 72.7542 38.7624C68.9303 34.9734 63.6455 32.632 57.8128 32.632C51.9801 32.632 46.6953 34.9734 42.8714 38.7624C42.7995 38.8337 42.722 38.9104 42.6501 38.9817H39.125C39.7061 38.2524 40.3258 37.5561 40.9899 36.9035C45.2952 32.6375 51.2386 30 57.8073 30ZM37.5036 42.6062H48.8757V46.971H44.1553V51.1438H48.5824V55.2892H44.1553V60.0981H49.3239V64.4628H37.5036V42.6062ZM66.9105 55.4208C66.9105 57.6196 66.8496 59.1714 66.7279 60.0816C66.6117 60.9974 66.2354 61.8308 65.599 62.5875C64.9626 63.3442 64.1048 63.9255 63.0202 64.3312C61.9355 64.737 60.6794 64.9399 59.2406 64.9399C57.8737 64.9399 56.6507 64.748 55.5661 64.3641C54.4814 63.9803 53.6016 63.41 52.943 62.6478C52.279 61.8857 51.8861 61.0467 51.7588 60.1529C51.637 59.2482 51.5706 57.6744 51.5706 55.4263V51.6866C51.5706 49.4878 51.6315 47.936 51.7533 47.0258C51.8695 46.1101 52.2513 45.2766 52.8822 44.5199C53.513 43.7632 54.3763 43.182 55.4609 42.7762C56.5456 42.3704 57.8018 42.1675 59.2406 42.1675C60.6074 42.1675 61.8304 42.3595 62.915 42.7433C63.9997 43.1271 64.8796 43.6974 65.5381 44.4596C66.2022 45.2273 66.5951 46.0607 66.7223 46.9545C66.8441 47.8593 66.9105 49.433 66.9105 51.6812V55.4208ZM60.2588 48.2431C60.2588 47.2287 60.1924 46.5816 60.0651 46.2965C59.9378 46.0169 59.6722 45.8743 59.2738 45.8743C58.9362 45.8743 58.6761 45.9894 58.4935 46.2197C58.3164 46.4446 58.2223 47.1245 58.2223 48.2486V58.4531C58.2223 59.7197 58.2832 60.5039 58.3994 60.8C58.5156 61.1015 58.7923 61.2441 59.224 61.2441C59.6667 61.2441 59.9489 61.0741 60.0762 60.7342C60.2034 60.3942 60.2588 59.5772 60.2588 58.2941V48.2431Z" fill="#263036"/>
</g>
<path d="M26.9944 139.207C26.1309 139.207 25.3624 139.121 24.6889 138.948C24.0326 138.758 23.4454 138.516 22.9273 138.223C22.4265 137.929 21.9947 137.592 21.632 137.213C21.2866 136.833 21.0017 136.444 20.7772 136.047L23.4972 133.456C23.6526 133.733 23.8426 134.009 24.0671 134.285C24.2916 134.562 24.5507 134.812 24.8443 135.036C25.1552 135.244 25.4919 135.416 25.8546 135.555C26.2345 135.675 26.6577 135.736 27.124 135.736C27.8838 135.736 28.471 135.563 28.8855 135.218C29.3173 134.872 29.5331 134.406 29.5331 133.819C29.5331 133.249 29.3345 132.791 28.9373 132.446C28.5401 132.083 28.0479 131.772 27.4607 131.513C26.8735 131.237 26.2259 130.969 25.5178 130.71C24.827 130.434 24.188 130.097 23.6008 129.7C23.0136 129.286 22.5214 128.776 22.1242 128.172C21.727 127.55 21.5284 126.747 21.5284 125.762C21.5284 124.933 21.6752 124.199 21.9688 123.56C22.2624 122.921 22.6769 122.386 23.2123 121.954C23.7476 121.505 24.378 121.169 25.1033 120.944C25.846 120.719 26.6577 120.607 27.5384 120.607C28.3329 120.607 29.0323 120.694 29.6368 120.866C30.2412 121.039 30.768 121.264 31.217 121.54C31.666 121.799 32.0373 122.092 32.3309 122.421C32.6245 122.731 32.8577 123.034 33.0304 123.327L30.4657 125.685C30.1031 125.184 29.6886 124.795 29.2223 124.519C28.756 124.225 28.2033 124.079 27.5643 124.079C26.9772 124.079 26.5022 124.208 26.1396 124.467C25.7769 124.709 25.5955 125.08 25.5955 125.581C25.5955 126.099 25.7942 126.514 26.1914 126.825C26.5886 127.118 27.0894 127.386 27.6939 127.628C28.2983 127.852 28.946 128.085 29.6368 128.327C30.3448 128.569 31.0011 128.897 31.6056 129.311C32.21 129.726 32.7109 130.261 33.1081 130.918C33.5053 131.557 33.7039 132.394 33.7039 133.43C33.7039 134.363 33.5398 135.192 33.2117 135.917C32.8836 136.625 32.4259 137.23 31.8387 137.731C31.2515 138.214 30.5435 138.586 29.7145 138.845C28.8855 139.086 27.9788 139.207 26.9944 139.207ZM36.805 120.866H47.1413V124.234H40.7945V127.835H46.0014V131.125H40.7945V135.632H47.4003V139H36.805V120.866ZM59.104 135.84C59.8985 135.84 60.6325 135.71 61.306 135.451C61.9795 135.175 62.5581 134.786 63.0416 134.285C63.5425 133.767 63.9311 133.145 64.2074 132.42C64.501 131.677 64.6478 130.84 64.6478 129.907C64.6478 128.992 64.5096 128.172 64.2333 127.446C63.957 126.704 63.5684 126.082 63.0675 125.581C62.584 125.063 62.0054 124.666 61.3319 124.389C60.6584 124.113 59.9157 123.975 59.104 123.975C58.2923 123.975 57.5497 124.113 56.8762 124.389C56.2026 124.648 55.6155 125.037 55.1146 125.555C54.6311 126.056 54.2511 126.678 53.9748 127.42C53.6985 128.146 53.5603 128.975 53.5603 129.907C53.5603 130.823 53.6898 131.652 53.9489 132.394C54.2252 133.119 54.6052 133.741 55.0887 134.259C55.5896 134.76 56.1767 135.149 56.8503 135.425C57.5411 135.701 58.2923 135.84 59.104 135.84ZM59.104 139.207C57.6188 139.207 56.2804 138.983 55.0887 138.534C53.9143 138.085 52.904 137.454 52.0578 136.643C51.2116 135.814 50.5639 134.829 50.1149 133.689C49.6659 132.55 49.4414 131.289 49.4414 129.907C49.4414 128.595 49.6659 127.377 50.1149 126.255C50.5639 125.115 51.2029 124.13 52.0319 123.301C52.8781 122.455 53.8971 121.799 55.0887 121.333C56.2804 120.849 57.6188 120.607 59.104 120.607C60.5375 120.607 61.85 120.832 63.0416 121.281C64.2333 121.73 65.2522 122.369 66.0985 123.198C66.9447 124.009 67.601 124.994 68.0673 126.151C68.5336 127.291 68.7667 128.552 68.7667 129.933C68.7667 131.246 68.5336 132.472 68.0673 133.612C67.6182 134.734 66.9706 135.71 66.1244 136.539C65.2954 137.368 64.2851 138.024 63.0935 138.508C61.9018 138.974 60.572 139.207 59.104 139.207ZM78.6225 134.337H71.6798V131.41H78.6225V134.337ZM21.9429 151.866H36.6053V170H32.6159V155.234H25.9323V170H21.9429V151.866ZM46.6519 151.866C48.7243 151.866 50.3563 152.367 51.548 153.369C52.7396 154.353 53.3355 155.778 53.3355 157.643C53.3355 158.576 53.18 159.413 52.8692 160.156C52.5583 160.899 52.1006 161.529 51.4962 162.047C50.909 162.565 50.1836 162.971 49.3201 163.265C48.4739 163.541 47.5154 163.679 46.4447 163.679H44.994V170H41.0045V151.866H46.6519ZM46.2374 160.286C47.3082 160.286 48.0853 160.044 48.5689 159.56C49.0524 159.059 49.2942 158.455 49.2942 157.747C49.2942 157.056 49.0611 156.469 48.5948 155.985C48.1285 155.484 47.3254 155.234 46.1856 155.234H44.994V160.286H46.2374ZM65.1756 166.84C65.97 166.84 66.704 166.71 67.3775 166.451C68.0511 166.175 68.6296 165.786 69.1132 165.285C69.614 164.767 70.0026 164.145 70.2789 163.42C70.5725 162.677 70.7193 161.84 70.7193 160.907C70.7193 159.992 70.5812 159.172 70.3048 158.446C70.0285 157.704 69.6399 157.082 69.1391 156.581C68.6555 156.063 68.077 155.666 67.4034 155.389C66.7299 155.113 65.9873 154.975 65.1756 154.975C64.3639 154.975 63.6213 155.113 62.9477 155.389C62.2742 155.648 61.687 156.037 61.1862 156.555C60.7026 157.056 60.3227 157.678 60.0463 158.42C59.77 159.146 59.6319 159.975 59.6319 160.907C59.6319 161.823 59.7614 162.652 60.0204 163.394C60.2968 164.119 60.6767 164.741 61.1603 165.259C61.6611 165.76 62.2483 166.149 62.9218 166.425C63.6126 166.701 64.3639 166.84 65.1756 166.84ZM65.1756 170.207C63.6904 170.207 62.3519 169.983 61.1603 169.534C59.9859 169.085 58.9756 168.454 58.1294 167.643C57.2831 166.814 56.6355 165.829 56.1865 164.689C55.7374 163.55 55.5129 162.289 55.5129 160.907C55.5129 159.595 55.7374 158.377 56.1865 157.255C56.6355 156.115 57.2745 155.13 58.1034 154.301C58.9497 153.455 59.9686 152.799 61.1603 152.333C62.3519 151.849 63.6904 151.607 65.1756 151.607C66.609 151.607 67.9216 151.832 69.1132 152.281C70.3048 152.73 71.3238 153.369 72.17 154.198C73.0163 155.009 73.6725 155.994 74.1388 157.151C74.6051 158.291 74.8383 159.552 74.8383 160.933C74.8383 162.246 74.6051 163.472 74.1388 164.612C73.6898 165.734 73.0422 166.71 72.1959 167.539C71.367 168.368 70.3567 169.024 69.165 169.508C67.9734 169.974 66.6436 170.207 65.1756 170.207ZM76.2032 166.632H77.9647C78.5519 165.164 78.9923 163.489 79.2859 161.607C79.5967 159.724 79.7522 157.522 79.7522 155.001V151.866H91.6686V166.632H93.7928V173.756H90.2179V170H79.7781V173.756H76.2032V166.632ZM83.5603 155.234C83.543 157.565 83.4048 159.647 83.1458 161.477C82.8867 163.308 82.455 165.026 81.8505 166.632H87.6792V155.234H83.5603ZM96.9246 151.866H103.323C104.273 151.866 105.093 151.979 105.784 152.203C106.492 152.41 107.079 152.704 107.546 153.084C108.012 153.464 108.357 153.921 108.582 154.457C108.806 154.992 108.919 155.571 108.919 156.192C108.919 157.142 108.694 157.945 108.245 158.602C107.813 159.241 107.252 159.733 106.561 160.078C107.684 160.337 108.556 160.847 109.178 161.607C109.817 162.349 110.136 163.299 110.136 164.456C110.136 165.268 109.981 166.011 109.67 166.684C109.359 167.358 108.919 167.945 108.349 168.446C107.779 168.929 107.088 169.309 106.276 169.586C105.465 169.862 104.558 170 103.556 170H96.9246V151.866ZM100.914 162.073V166.632H102.676C103.867 166.632 104.713 166.425 105.214 166.011C105.715 165.579 105.966 165.009 105.966 164.301C105.966 163.575 105.724 163.023 105.24 162.643C104.774 162.263 104.1 162.073 103.22 162.073H100.914ZM100.914 155.234V159.12H102.65C103.375 159.12 103.936 158.947 104.333 158.602C104.748 158.239 104.955 157.73 104.955 157.073C104.955 155.847 104.213 155.234 102.727 155.234H100.914ZM113.532 151.866H117.522V162.85L126.511 151.866H129.05V170H125.034V159.042L116.071 170H113.532V151.866ZM147.054 161.581H145.837V170H141.847V161.581H140.552L136.148 170H131.641V169.741L136.899 160.001L133.325 152.125V151.866H137.366L140.345 158.653H141.847V151.866H145.837V158.653H147.313L150.318 151.866H154.334V152.125L150.707 160.026L156.069 169.741V170H151.717L147.054 161.581ZM158.663 151.866H168.999V155.234H162.653V158.835H167.86V162.125H162.653V166.632H169.258V170H158.663V151.866ZM183.806 162.177H176.604V170H172.615V151.866H176.604V158.783H183.806V151.866H187.795V170H183.806V162.177ZM192.207 151.866H196.197V162.85L205.186 151.866H207.725V170H203.709V159.042L194.746 170H192.207V151.866ZM212.129 151.866H222.465V155.234H216.119V158.835H221.326V162.125H216.119V166.632H222.725V170H212.129V151.866Z" fill="#132436"/>
<g clip-path="url(#clip1_1353_603)">
<circle cx="23.8858" cy="219.772" r="3.88579" fill="#007CFF"/>
</g>
<path d="M49.5946 224.098C48.6827 224.292 47.612 224.388 46.3823 224.388C45.7744 224.388 45.2978 224.374 44.9524 224.347C44.6208 224.333 44.2339 224.271 43.7918 224.16C43.3635 224.036 43.0319 223.863 42.797 223.642C42.576 223.421 42.3825 223.103 42.2168 222.689C42.051 222.261 41.9681 221.736 41.9681 221.114V217.425C41.9681 216.872 42.0164 216.396 42.1131 215.995C42.2237 215.594 42.3895 215.27 42.6105 215.021C42.8316 214.772 43.0595 214.572 43.2944 214.42C43.5293 214.268 43.8471 214.164 44.2477 214.109C44.6622 214.04 45.0214 213.999 45.3254 213.985C45.6432 213.957 46.0646 213.943 46.5896 213.943C47.5429 213.943 48.4962 214.047 49.4495 214.254V215.622C48.3719 215.346 47.3425 215.207 46.3616 215.207C45.2978 215.207 44.6139 215.318 44.3099 215.539C44.0198 215.76 43.8747 216.299 43.8747 217.156V221.3C43.8747 222.033 44.0474 222.516 44.3928 222.751C44.7382 222.972 45.4636 223.083 46.5688 223.083C47.5498 223.083 48.5584 222.951 49.5946 222.689V224.098ZM60.6171 219.58H53.8817V221.093C53.8817 221.798 54.1304 222.302 54.6278 222.606C55.139 222.896 55.9058 223.041 56.9282 223.041C57.8263 223.041 58.9246 222.875 60.2234 222.544V223.974C58.9246 224.25 57.6328 224.388 56.3479 224.388C55.063 224.388 54.013 224.147 53.1978 223.663C52.3965 223.166 51.9958 222.385 51.9958 221.321V217.363C51.9958 216.133 52.3482 215.256 53.0528 214.731C53.7574 214.206 54.8834 213.943 56.4308 213.943C57.8815 213.943 58.9385 214.199 59.6016 214.71C60.2786 215.207 60.6171 216.092 60.6171 217.363V219.58ZM58.7519 218.358V216.783C58.7519 216.175 58.5654 215.76 58.1924 215.539C57.8332 215.304 57.2322 215.187 56.3894 215.187C55.5328 215.187 54.8972 215.297 54.4827 215.518C54.0821 215.726 53.8817 216.147 53.8817 216.783V218.358H58.7519ZM75.8734 224.181H74.1533V215.85H74.0497L70.9618 224.181H69.0758L65.8636 215.85H65.76V224.181H63.9984V214.151H67.0034L70.0499 222.316H70.1328L72.972 214.151H75.8734V224.181ZM87.5662 224.181H85.7632V223.228C85.6113 224.001 84.6027 224.388 82.7375 224.388C81.3559 224.388 80.3957 224.181 79.8568 223.767C79.3318 223.338 79.0693 222.482 79.0693 221.197C79.0693 220.078 79.318 219.311 79.8154 218.896C80.3128 218.468 81.273 218.254 82.696 218.254H85.7011V216.658C85.7011 216.106 85.5284 215.732 85.1829 215.539C84.8514 215.346 84.2158 215.249 83.2763 215.249C82.2539 215.249 81.1072 215.332 79.8361 215.498V214.13C81.2039 214.005 82.4404 213.943 83.5457 213.943C85.2313 213.943 86.3228 214.151 86.8202 214.565C87.3175 214.966 87.5662 215.808 87.5662 217.093V224.181ZM85.7011 222.192V219.414H82.8204C81.9638 219.414 81.425 219.525 81.2039 219.746C80.9967 219.967 80.893 220.471 80.893 221.259C80.893 221.977 81.0036 222.482 81.2246 222.772C81.4595 223.062 81.9431 223.207 82.6753 223.207H83.0484C83.4076 223.207 83.7046 223.2 83.9395 223.186C84.1882 223.172 84.4645 223.138 84.7685 223.083C85.0724 223.014 85.3004 222.91 85.4524 222.772C85.6182 222.62 85.7011 222.426 85.7011 222.192ZM99.8782 224.181H98.013V219.684H93.0807V224.181H91.2155V214.151H93.0807V218.316H98.013V214.151H99.8782V224.181ZM112.131 215.518H108.214V224.181H106.349V215.518H102.411V214.151H112.131V215.518ZM117.076 224.181H114.651V214.151H116.412V222.254L121.386 214.151H123.811V224.181H122.049V215.891L117.076 224.181ZM136.093 224.181H134.27V219.58C134.076 220.534 132.964 221.01 130.933 221.01C129.607 221.01 128.695 220.775 128.197 220.306C127.7 219.822 127.451 219.097 127.451 218.13V214.151H129.316V218.026C129.316 218.275 129.337 218.482 129.379 218.648C129.42 218.813 129.503 218.986 129.627 219.166C129.766 219.332 129.987 219.463 130.291 219.56C130.608 219.642 131.002 219.684 131.472 219.684C132.563 219.684 133.296 219.566 133.669 219.332C134.042 219.097 134.228 218.662 134.228 218.026V214.151H136.093V224.181ZM147.994 219.58H141.259V221.093C141.259 221.798 141.507 222.302 142.005 222.606C142.516 222.896 143.283 223.041 144.305 223.041C145.203 223.041 146.302 222.875 147.6 222.544V223.974C146.302 224.25 145.01 224.388 143.725 224.388C142.44 224.388 141.39 224.147 140.575 223.663C139.773 223.166 139.373 222.385 139.373 221.321V217.363C139.373 216.133 139.725 215.256 140.43 214.731C141.134 214.206 142.26 213.943 143.808 213.943C145.258 213.943 146.315 214.199 146.979 214.71C147.656 215.207 147.994 216.092 147.994 217.363V219.58ZM146.129 218.358V216.783C146.129 216.175 145.942 215.76 145.569 215.539C145.21 215.304 144.609 215.187 143.766 215.187C142.91 215.187 142.274 215.297 141.86 215.518C141.459 215.726 141.259 216.147 141.259 216.783V218.358H146.129ZM158.504 224.098C157.593 224.292 156.522 224.388 155.292 224.388C154.684 224.388 154.208 224.374 153.862 224.347C153.531 224.333 153.144 224.271 152.702 224.16C152.273 224.036 151.942 223.863 151.707 223.642C151.486 223.421 151.292 223.103 151.127 222.689C150.961 222.261 150.878 221.736 150.878 221.114V217.425C150.878 216.872 150.926 216.396 151.023 215.995C151.134 215.594 151.299 215.27 151.52 215.021C151.741 214.772 151.969 214.572 152.204 214.42C152.439 214.268 152.757 214.164 153.158 214.109C153.572 214.04 153.931 213.999 154.235 213.985C154.553 213.957 154.974 213.943 155.499 213.943C156.453 213.943 157.406 214.047 158.359 214.254V215.622C157.282 215.346 156.252 215.207 155.271 215.207C154.208 215.207 153.524 215.318 153.22 215.539C152.93 215.76 152.785 216.299 152.785 217.156V221.3C152.785 222.033 152.957 222.516 153.303 222.751C153.648 222.972 154.373 223.083 155.479 223.083C156.46 223.083 157.468 222.951 158.504 222.689V224.098ZM161.258 224.181V214.151H163.123V218.482C163.607 218.482 163.973 218.413 164.222 218.275C164.484 218.136 164.767 217.826 165.071 217.342L166.087 215.705C166.474 215.069 166.867 214.655 167.268 214.461C167.683 214.254 168.27 214.151 169.03 214.151H169.734V215.207H169.34C168.636 215.207 168.056 215.574 167.6 216.306L166.812 217.591C166.329 218.434 165.831 218.917 165.32 219.041C165.707 219.138 166.467 219.815 167.6 221.072L170.397 224.181H168.097L165.361 221.072C164.961 220.616 164.595 220.278 164.263 220.057C163.931 219.836 163.71 219.718 163.6 219.705C163.489 219.691 163.33 219.684 163.123 219.684V224.181H161.258ZM180.966 217.529V221.01C180.966 221.632 180.89 222.157 180.738 222.585C180.586 223.014 180.392 223.345 180.158 223.58C179.923 223.815 179.584 223.995 179.142 224.119C178.714 224.243 178.299 224.319 177.899 224.347C177.512 224.374 176.994 224.388 176.344 224.388C175.515 224.388 174.866 224.361 174.396 224.305C173.94 224.25 173.477 224.119 173.008 223.912C172.552 223.691 172.22 223.345 172.013 222.875C171.82 222.406 171.723 221.784 171.723 221.01V217.529C171.723 216.865 171.799 216.306 171.951 215.85C172.117 215.394 172.31 215.042 172.531 214.793C172.766 214.544 173.104 214.358 173.547 214.233C173.989 214.095 174.396 214.012 174.769 213.985C175.156 213.957 175.681 213.943 176.344 213.943C177.007 213.943 177.526 213.957 177.899 213.985C178.285 214.012 178.7 214.095 179.142 214.233C179.584 214.358 179.916 214.544 180.137 214.793C180.372 215.042 180.565 215.394 180.717 215.85C180.883 216.306 180.966 216.865 180.966 217.529ZM179.059 221.28V217.218C179.059 216.292 178.873 215.719 178.5 215.498C178.127 215.277 177.408 215.166 176.344 215.166C175.28 215.166 174.562 215.277 174.189 215.498C173.816 215.719 173.629 216.292 173.629 217.218V221.28C173.629 221.722 173.678 222.074 173.775 222.337C173.871 222.599 174.051 222.793 174.313 222.917C174.576 223.027 174.845 223.096 175.122 223.124C175.398 223.152 175.805 223.166 176.344 223.166C176.883 223.166 177.291 223.152 177.567 223.124C177.843 223.096 178.113 223.027 178.375 222.917C178.638 222.793 178.817 222.599 178.914 222.337C179.011 222.074 179.059 221.722 179.059 221.28ZM192.537 219.58H185.802V221.093C185.802 221.798 186.051 222.302 186.548 222.606C187.059 222.896 187.826 223.041 188.848 223.041C189.747 223.041 190.845 222.875 192.144 222.544V223.974C190.845 224.25 189.553 224.388 188.268 224.388C186.983 224.388 185.933 224.147 185.118 223.663C184.317 223.166 183.916 222.385 183.916 221.321V217.363C183.916 216.133 184.268 215.256 184.973 214.731C185.678 214.206 186.804 213.943 188.351 213.943C189.802 213.943 190.859 214.199 191.522 214.71C192.199 215.207 192.537 216.092 192.537 217.363V219.58ZM190.672 218.358V216.783C190.672 216.175 190.486 215.76 190.113 215.539C189.753 215.304 189.152 215.187 188.31 215.187C187.453 215.187 186.818 215.297 186.403 215.518C186.002 215.726 185.802 216.147 185.802 216.783V218.358H190.672ZM202.249 224.181H199.783L203.679 219.912C201.634 219.912 200.612 219.214 200.612 217.819V216.741C200.612 215.691 200.847 215 201.317 214.669C201.786 214.323 202.712 214.151 204.094 214.151H209.233V224.181H207.368V220.161H205.69L202.249 224.181ZM202.498 216.907V217.197C202.498 217.929 202.588 218.392 202.767 218.586C202.961 218.779 203.32 218.876 203.845 218.876H207.368V215.435H204.28C203.534 215.435 203.051 215.539 202.83 215.746C202.609 215.94 202.498 216.327 202.498 216.907ZM218.737 222.855V215.477H215.608V215.995C215.608 218.62 215.234 220.907 214.488 222.855H218.737ZM213.95 214.855V214.151H220.395V222.855H221.39V226.958H219.794V224.181H213.307V226.958H211.711V222.855H212.665C213.521 220.934 213.95 218.268 213.95 214.855ZM233.6 216.783V220.907C233.6 221.515 233.511 222.04 233.331 222.482C233.151 222.924 232.923 223.269 232.647 223.518C232.385 223.753 232.032 223.939 231.59 224.077C231.148 224.216 230.734 224.298 230.347 224.326C229.96 224.368 229.49 224.388 228.937 224.388C228.385 224.388 227.846 224.319 227.321 224.181C226.796 224.043 226.464 223.829 226.326 223.539V228.284H224.461V214.151H226.326V215.228C226.478 214.372 227.618 213.943 229.746 213.943C231.086 213.943 232.06 214.227 232.668 214.793C233.289 215.346 233.6 216.009 233.6 216.783ZM231.694 221.135V217.446C231.694 216.52 231.493 215.933 231.093 215.684C230.692 215.422 229.981 215.29 228.958 215.29C227.922 215.29 227.203 215.422 226.803 215.684C226.416 215.933 226.223 216.52 226.223 217.446V221.135C226.223 221.977 226.423 222.523 226.824 222.772C227.238 223.007 227.956 223.124 228.979 223.124C230.001 223.124 230.706 223.007 231.093 222.772C231.493 222.523 231.694 221.977 231.694 221.135ZM245.747 217.529V221.01C245.747 221.632 245.671 222.157 245.519 222.585C245.367 223.014 245.173 223.345 244.939 223.58C244.704 223.815 244.365 223.995 243.923 224.119C243.495 224.243 243.08 224.319 242.68 224.347C242.293 224.374 241.775 224.388 241.125 224.388C240.296 224.388 239.647 224.361 239.177 224.305C238.721 224.25 238.259 224.119 237.789 223.912C237.333 223.691 237.001 223.345 236.794 222.875C236.601 222.406 236.504 221.784 236.504 221.01V217.529C236.504 216.865 236.58 216.306 236.732 215.85C236.898 215.394 237.091 215.042 237.312 214.793C237.547 214.544 237.885 214.358 238.328 214.233C238.77 214.095 239.177 214.012 239.55 213.985C239.937 213.957 240.462 213.943 241.125 213.943C241.789 213.943 242.307 213.957 242.68 213.985C243.067 214.012 243.481 214.095 243.923 214.233C244.365 214.358 244.697 214.544 244.918 214.793C245.153 215.042 245.346 215.394 245.498 215.85C245.664 216.306 245.747 216.865 245.747 217.529ZM243.84 221.28V217.218C243.84 216.292 243.654 215.719 243.281 215.498C242.908 215.277 242.189 215.166 241.125 215.166C240.062 215.166 239.343 215.277 238.97 215.498C238.597 215.719 238.41 216.292 238.41 217.218V221.28C238.41 221.722 238.459 222.074 238.556 222.337C238.652 222.599 238.832 222.793 239.094 222.917C239.357 223.027 239.626 223.096 239.903 223.124C240.179 223.152 240.587 223.166 241.125 223.166C241.664 223.166 242.072 223.152 242.348 223.124C242.624 223.096 242.894 223.027 243.156 222.917C243.419 222.793 243.598 222.599 243.695 222.337C243.792 222.074 243.84 221.722 243.84 221.28Z" fill="#132436"/>
<rect x="333.095" y="201" width="61.9053" height="32.3621" rx="6.47632" fill="#00DC82"/>
<path d="M351.342 223.362C350.689 223.362 350.103 223.266 349.583 223.072C349.063 222.879 348.622 222.613 348.259 222.274C347.897 221.924 347.618 221.519 347.425 221.059C347.232 220.6 347.135 220.098 347.135 219.554C347.135 218.756 347.353 218.049 347.788 217.433C348.235 216.804 348.912 216.387 349.819 216.181C349.577 216.109 349.335 216 349.093 215.855C348.864 215.698 348.658 215.504 348.477 215.275C348.295 215.045 348.144 214.785 348.023 214.495C347.915 214.205 347.86 213.878 347.86 213.516C347.86 213.032 347.945 212.597 348.114 212.21C348.283 211.811 348.519 211.473 348.821 211.195C349.124 210.905 349.486 210.687 349.909 210.542C350.345 210.385 350.822 210.306 351.342 210.306C351.862 210.306 352.333 210.385 352.756 210.542C353.192 210.687 353.56 210.905 353.863 211.195C354.165 211.473 354.4 211.811 354.57 212.21C354.739 212.597 354.824 213.032 354.824 213.516C354.824 213.878 354.763 214.205 354.642 214.495C354.533 214.785 354.388 215.045 354.207 215.275C354.026 215.504 353.814 215.698 353.572 215.855C353.343 216 353.101 216.109 352.847 216.181C353.306 216.29 353.705 216.453 354.044 216.671C354.382 216.877 354.66 217.13 354.878 217.433C355.108 217.723 355.277 218.049 355.386 218.412C355.495 218.775 355.549 219.155 355.549 219.554C355.549 220.098 355.452 220.6 355.259 221.059C355.065 221.519 354.787 221.924 354.425 222.274C354.062 222.613 353.621 222.879 353.101 223.072C352.581 223.266 351.995 223.362 351.342 223.362ZM351.342 222.184C352.212 222.184 352.914 221.942 353.445 221.458C353.977 220.975 354.243 220.316 354.243 219.482C354.243 218.648 353.977 218.001 353.445 217.541C352.914 217.07 352.212 216.834 351.342 216.834C350.471 216.834 349.77 217.07 349.238 217.541C348.706 218.001 348.441 218.648 348.441 219.482C348.441 220.316 348.706 220.975 349.238 221.458C349.77 221.942 350.471 222.184 351.342 222.184ZM351.342 215.746C352.043 215.746 352.581 215.541 352.956 215.13C353.331 214.707 353.518 214.199 353.518 213.606C353.518 212.954 353.331 212.44 352.956 212.065C352.581 211.678 352.043 211.485 351.342 211.485C350.641 211.485 350.103 211.678 349.728 212.065C349.353 212.44 349.166 212.954 349.166 213.606C349.166 214.199 349.353 214.707 349.728 215.13C350.103 215.541 350.641 215.746 351.342 215.746ZM357.979 227.533H356.637L361.134 210.487H362.476L357.979 227.533ZM366.796 212.174L364.421 213.081V211.721L368.102 210.306V223.181H366.796V212.174ZM376.16 223.29C375.508 223.29 374.921 223.139 374.401 222.837C373.882 222.522 373.446 222.087 373.096 221.531C372.745 220.963 372.473 220.286 372.28 219.5C372.098 218.702 372.008 217.82 372.008 216.852C372.008 215.813 372.111 214.894 372.316 214.096C372.534 213.286 372.83 212.609 373.205 212.065C373.579 211.509 374.015 211.092 374.51 210.814C375.006 210.524 375.538 210.379 376.106 210.379C376.759 210.379 377.339 210.536 377.847 210.85C378.367 211.152 378.802 211.588 379.153 212.156C379.515 212.712 379.787 213.389 379.969 214.187C380.15 214.973 380.241 215.849 380.241 216.816C380.241 217.856 380.132 218.781 379.914 219.591C379.709 220.388 379.418 221.065 379.044 221.622C378.681 222.166 378.252 222.583 377.756 222.873C377.261 223.151 376.729 223.29 376.16 223.29ZM376.16 222.02C376.523 222.02 376.868 221.924 377.194 221.73C377.533 221.537 377.823 221.235 378.064 220.824C378.318 220.401 378.518 219.863 378.663 219.21C378.808 218.545 378.88 217.747 378.88 216.816C378.88 215.934 378.808 215.166 378.663 214.513C378.53 213.86 378.343 213.322 378.101 212.899C377.859 212.476 377.569 212.162 377.23 211.956C376.892 211.751 376.517 211.648 376.106 211.648C375.743 211.648 375.393 211.745 375.054 211.938C374.728 212.132 374.438 212.44 374.184 212.863C373.93 213.274 373.731 213.812 373.585 214.477C373.44 215.13 373.368 215.922 373.368 216.852C373.368 217.747 373.434 218.521 373.567 219.173C373.712 219.814 373.906 220.346 374.148 220.769C374.401 221.192 374.698 221.507 375.036 221.712C375.375 221.918 375.749 222.02 376.16 222.02Z" fill="white"/>
<g clip-path="url(#clip2_1353_603)">
<circle cx="23.8858" cy="265.086" r="3.88579" fill="#007CFF"/>
</g>
<path d="M42.3204 269.496V259.465H44.1856V263.797C44.6691 263.797 45.0353 263.728 45.2839 263.589C45.5464 263.451 45.8297 263.14 46.1336 262.657L47.1491 261.02C47.536 260.384 47.9297 259.97 48.3304 259.776C48.7449 259.569 49.3321 259.465 50.092 259.465H50.7966V260.522H50.4028C49.6982 260.522 49.1179 260.888 48.662 261.621L47.8745 262.906C47.3909 263.748 46.8935 264.232 46.3823 264.356C46.7692 264.453 47.5291 265.13 48.662 266.387L51.4598 269.496H49.1594L46.4238 266.387C46.0231 265.931 45.657 265.593 45.3254 265.372C44.9938 265.151 44.7727 265.033 44.6622 265.019C44.5517 265.006 44.3928 264.999 44.1856 264.999V269.496H42.3204ZM53.7385 266.719V259.465H61.7587V269.496H59.9143V260.833H55.5829V266.574C55.5829 267.251 55.5069 267.803 55.3549 268.232C55.2168 268.646 54.9819 268.957 54.6503 269.164C54.3326 269.358 53.9941 269.482 53.6348 269.537C53.2756 269.606 52.799 269.641 52.2049 269.641C51.9285 269.641 51.7075 269.634 51.5417 269.62V268.46C52.4259 268.46 53.0131 268.349 53.3032 268.128C53.5934 267.893 53.7385 267.423 53.7385 266.719ZM73.3288 269.496H71.5258V268.543C71.3739 269.316 70.3653 269.703 68.5001 269.703C67.1185 269.703 66.1583 269.496 65.6194 269.081C65.0944 268.653 64.8319 267.796 64.8319 266.512C64.8319 265.392 65.0806 264.626 65.578 264.211C66.0754 263.783 67.0356 263.569 68.4587 263.569H71.4637V261.973C71.4637 261.42 71.291 261.047 70.9456 260.854C70.614 260.66 69.9784 260.564 69.0389 260.564C68.0165 260.564 66.8698 260.647 65.5987 260.812V259.445C66.9665 259.32 68.2031 259.258 69.3083 259.258C70.9939 259.258 72.0854 259.465 72.5828 259.88C73.0802 260.28 73.3288 261.123 73.3288 262.408V269.496ZM71.4637 267.506V264.729H68.583C67.7264 264.729 67.1876 264.84 66.9665 265.061C66.7593 265.282 66.6556 265.786 66.6556 266.574C66.6556 267.292 66.7662 267.796 66.9872 268.087C67.2221 268.377 67.7057 268.522 68.4379 268.522H68.811C69.1702 268.522 69.4672 268.515 69.7021 268.501C69.9508 268.487 70.2271 268.453 70.5311 268.397C70.835 268.328 71.063 268.225 71.215 268.087C71.3808 267.935 71.4637 267.741 71.4637 267.506ZM84.2316 269.413C83.3197 269.606 82.249 269.703 81.0193 269.703C80.4114 269.703 79.9348 269.689 79.5893 269.662C79.2578 269.648 78.8709 269.586 78.4288 269.475C78.0005 269.351 77.6689 269.178 77.434 268.957C77.213 268.736 77.0195 268.418 76.8537 268.004C76.688 267.575 76.6051 267.05 76.6051 266.429V262.74C76.6051 262.187 76.6534 261.71 76.7501 261.31C76.8607 260.909 77.0264 260.584 77.2475 260.336C77.4686 260.087 77.6965 259.887 77.9314 259.735C78.1663 259.583 78.4841 259.479 78.8847 259.424C79.2992 259.355 79.6584 259.313 79.9624 259.299C80.2802 259.272 80.7015 259.258 81.2266 259.258C82.1799 259.258 83.1332 259.362 84.0865 259.569V260.937C83.0088 260.66 81.9795 260.522 80.9986 260.522C79.9348 260.522 79.2509 260.633 78.9469 260.854C78.6568 261.075 78.5117 261.614 78.5117 262.47V266.615C78.5117 267.347 78.6844 267.831 79.0298 268.066C79.3752 268.287 80.1005 268.397 81.2058 268.397C82.1868 268.397 83.1954 268.266 84.2316 268.004V269.413ZM95.6064 260.833H91.6895V269.496H89.8244V260.833H85.8868V259.465H95.6064V260.833ZM105.97 264.895H99.2346V266.408C99.2346 267.113 99.4833 267.617 99.9807 267.921C100.492 268.211 101.259 268.356 102.281 268.356C103.179 268.356 104.278 268.19 105.576 267.859V269.289C104.278 269.565 102.986 269.703 101.701 269.703C100.416 269.703 99.3659 269.461 98.5507 268.978C97.7494 268.48 97.3487 267.7 97.3487 266.636V262.678C97.3487 261.448 97.701 260.571 98.4057 260.046C99.1103 259.521 100.236 259.258 101.784 259.258C103.234 259.258 104.291 259.514 104.955 260.025C105.632 260.522 105.97 261.406 105.97 262.678V264.895ZM104.105 263.672V262.097C104.105 261.489 103.918 261.075 103.545 260.854C103.186 260.619 102.585 260.502 101.742 260.502C100.886 260.502 100.25 260.612 99.8356 260.833C99.435 261.04 99.2346 261.462 99.2346 262.097V263.672H104.105ZM118.366 262.097V266.221C118.366 266.829 118.277 267.354 118.097 267.796C117.917 268.239 117.689 268.584 117.413 268.833C117.151 269.068 116.798 269.254 116.356 269.392C115.914 269.53 115.499 269.613 115.113 269.641C114.726 269.682 114.256 269.703 113.703 269.703C113.151 269.703 112.612 269.634 112.087 269.496C111.562 269.358 111.23 269.144 111.092 268.853V273.599H109.227V259.465H111.092V260.543C111.244 259.686 112.384 259.258 114.512 259.258C115.852 259.258 116.826 259.541 117.434 260.108C118.055 260.66 118.366 261.324 118.366 262.097ZM116.46 266.449V262.76C116.46 261.835 116.259 261.248 115.859 260.999C115.458 260.736 114.746 260.605 113.724 260.605C112.688 260.605 111.969 260.736 111.569 260.999C111.182 261.248 110.989 261.835 110.989 262.76V266.449C110.989 267.292 111.189 267.838 111.59 268.087C112.004 268.321 112.722 268.439 113.745 268.439C114.767 268.439 115.472 268.321 115.859 268.087C116.259 267.838 116.46 267.292 116.46 266.449ZM124.068 269.496H121.643V259.465H123.404V267.568L128.378 259.465H130.803V269.496H129.041V261.206L124.068 269.496ZM141.966 265.89V266.926C141.966 267.423 141.863 267.852 141.655 268.211C141.462 268.57 141.22 268.846 140.93 269.04C140.654 269.219 140.288 269.365 139.832 269.475C139.376 269.586 138.961 269.648 138.588 269.662C138.229 269.689 137.787 269.703 137.262 269.703C136.226 269.703 134.989 269.586 133.552 269.351V267.879C135.031 268.183 136.267 268.335 137.262 268.335C137.662 268.335 137.98 268.328 138.215 268.315C138.464 268.287 138.747 268.232 139.065 268.149C139.383 268.052 139.617 267.893 139.769 267.672C139.935 267.437 140.018 267.14 140.018 266.781V266.138C140.018 265.848 139.935 265.613 139.769 265.434C139.617 265.24 139.39 265.109 139.086 265.04C138.795 264.957 138.533 264.909 138.298 264.895C138.063 264.867 137.78 264.854 137.448 264.854H135.272V263.569H137.096C137.428 263.569 137.704 263.562 137.925 263.548C138.16 263.52 138.429 263.472 138.733 263.403C139.037 263.32 139.272 263.182 139.438 262.988C139.604 262.795 139.687 262.546 139.687 262.242V261.621C139.687 260.902 138.858 260.543 137.2 260.543C135.901 260.543 134.775 260.626 133.822 260.792V259.445C134.858 259.32 135.977 259.258 137.179 259.258C138.174 259.258 138.947 259.306 139.5 259.403C140.191 259.514 140.709 259.728 141.054 260.046C141.4 260.363 141.572 260.854 141.572 261.517V262.325C141.572 262.781 141.4 263.147 141.054 263.424C140.723 263.7 140.315 263.88 139.832 263.962V264.045C141.255 264.266 141.966 264.881 141.966 265.89ZM153.157 269.496H151.354V268.543C151.202 269.316 150.193 269.703 148.328 269.703C146.946 269.703 145.986 269.496 145.447 269.081C144.922 268.653 144.66 267.796 144.66 266.512C144.66 265.392 144.909 264.626 145.406 264.211C145.903 263.783 146.864 263.569 148.287 263.569H151.292V261.973C151.292 261.42 151.119 261.047 150.774 260.854C150.442 260.66 149.806 260.564 148.867 260.564C147.845 260.564 146.698 260.647 145.427 260.812V259.445C146.794 259.32 148.031 259.258 149.136 259.258C150.822 259.258 151.913 259.465 152.411 259.88C152.908 260.28 153.157 261.123 153.157 262.408V269.496ZM151.292 267.506V264.729H148.411C147.554 264.729 147.016 264.84 146.794 265.061C146.587 265.282 146.484 265.786 146.484 266.574C146.484 267.292 146.594 267.796 146.815 268.087C147.05 268.377 147.534 268.522 148.266 268.522H148.639C148.998 268.522 149.295 268.515 149.53 268.501C149.779 268.487 150.055 268.453 150.359 268.397C150.663 268.328 150.891 268.225 151.043 268.087C151.209 267.935 151.292 267.741 151.292 267.506ZM165.614 272.273H163.811V269.496H156.93V259.465H158.796V268.128H163.749V259.465H165.614V272.273ZM171.809 269.496H169.384V259.465H171.145V267.568L176.119 259.465H178.544V269.496H176.782V261.206L171.809 269.496ZM183.449 269.496H180.982L184.878 265.227C182.834 265.227 181.811 264.529 181.811 263.133V262.056C181.811 261.006 182.046 260.315 182.516 259.983C182.986 259.638 183.911 259.465 185.293 259.465H190.433V269.496H188.567V265.475H186.889L183.449 269.496ZM183.697 262.222V262.512C183.697 263.244 183.787 263.707 183.967 263.9C184.16 264.094 184.519 264.19 185.044 264.19H188.567V260.75H185.479C184.733 260.75 184.25 260.854 184.029 261.061C183.808 261.254 183.697 261.641 183.697 262.222ZM200.65 269.496H198.184L202.08 265.227C200.036 265.227 199.013 264.529 199.013 263.133V262.056C199.013 261.006 199.248 260.315 199.718 259.983C200.188 259.638 201.113 259.465 202.495 259.465H207.635V269.496H205.769V265.475H204.091L200.65 269.496ZM200.899 262.222V262.512C200.899 263.244 200.989 263.707 201.169 263.9C201.362 264.094 201.721 264.19 202.246 264.19H205.769V260.75H202.681C201.935 260.75 201.452 260.854 201.231 261.061C201.01 261.254 200.899 261.641 200.899 262.222ZM217.138 268.169V260.792H214.009V261.31C214.009 263.935 213.636 266.221 212.89 268.169H217.138ZM212.351 260.17V259.465H218.796V268.169H219.791V272.273H218.195V269.496H211.708V272.273H210.113V268.169H211.066C211.922 266.249 212.351 263.583 212.351 260.17ZM232.002 262.097V266.221C232.002 266.829 231.912 267.354 231.732 267.796C231.552 268.239 231.325 268.584 231.048 268.833C230.786 269.068 230.433 269.254 229.991 269.392C229.549 269.53 229.135 269.613 228.748 269.641C228.361 269.682 227.891 269.703 227.339 269.703C226.786 269.703 226.247 269.634 225.722 269.496C225.197 269.358 224.865 269.144 224.727 268.853V273.599H222.862V259.465H224.727V260.543C224.879 259.686 226.019 259.258 228.147 259.258C229.487 259.258 230.461 259.541 231.069 260.108C231.691 260.66 232.002 261.324 232.002 262.097ZM230.095 266.449V262.76C230.095 261.835 229.895 261.248 229.494 260.999C229.093 260.736 228.382 260.605 227.359 260.605C226.323 260.605 225.605 260.736 225.204 260.999C224.817 261.248 224.624 261.835 224.624 262.76V266.449C224.624 267.292 224.824 267.838 225.225 268.087C225.639 268.321 226.358 268.439 227.38 268.439C228.402 268.439 229.107 268.321 229.494 268.087C229.895 267.838 230.095 267.292 230.095 266.449ZM243.195 269.496H241.392V268.543C241.24 269.316 240.231 269.703 238.366 269.703C236.984 269.703 236.024 269.496 235.485 269.081C234.96 268.653 234.698 267.796 234.698 266.512C234.698 265.392 234.946 264.626 235.444 264.211C235.941 263.783 236.901 263.569 238.325 263.569H241.33V261.973C241.33 261.42 241.157 261.047 240.811 260.854C240.48 260.66 239.844 260.564 238.905 260.564C237.882 260.564 236.736 260.647 235.465 260.812V259.445C236.832 259.32 238.069 259.258 239.174 259.258C240.86 259.258 241.951 259.465 242.449 259.88C242.946 260.28 243.195 261.123 243.195 262.408V269.496ZM241.33 267.506V264.729H238.449C237.592 264.729 237.053 264.84 236.832 265.061C236.625 265.282 236.522 265.786 236.522 266.574C236.522 267.292 236.632 267.796 236.853 268.087C237.088 268.377 237.572 268.522 238.304 268.522H238.677C239.036 268.522 239.333 268.515 239.568 268.501C239.817 268.487 240.093 268.453 240.397 268.397C240.701 268.328 240.929 268.225 241.081 268.087C241.247 267.935 241.33 267.741 241.33 267.506Z" fill="#132436"/>
<rect x="333.095" y="246.315" width="61.9053" height="32.3621" rx="6.47632" fill="#FF4040"/>
<path d="M347.408 268.314L351.415 263.382C351.839 262.862 352.183 262.403 352.449 262.004C352.727 261.593 352.939 261.224 353.084 260.898C353.241 260.559 353.35 260.245 353.41 259.955C353.471 259.653 353.501 259.338 353.501 259.012C353.501 258.287 353.295 257.755 352.884 257.416C352.473 257.066 351.935 256.89 351.27 256.89C350.207 256.89 349.251 257.38 348.405 258.359L347.589 257.616C347.746 257.386 347.946 257.156 348.188 256.927C348.442 256.697 348.726 256.491 349.04 256.31C349.366 256.129 349.723 255.984 350.11 255.875C350.509 255.754 350.938 255.693 351.397 255.693C351.953 255.693 352.443 255.778 352.866 255.947C353.289 256.104 353.646 256.328 353.936 256.618C354.226 256.896 354.444 257.229 354.589 257.616C354.734 258.002 354.806 258.42 354.806 258.867C354.806 259.242 354.77 259.616 354.698 259.991C354.637 260.354 354.522 260.729 354.353 261.115C354.196 261.502 353.972 261.913 353.682 262.348C353.404 262.784 353.054 263.261 352.63 263.781L349.729 267.317H355.078V268.496H347.408V268.314ZM357.98 272.848H356.638L361.135 255.802H362.477L357.98 272.848ZM366.797 257.489L364.422 258.395V257.035L368.103 255.621V268.496H366.797V257.489ZM376.161 268.605C375.509 268.605 374.922 268.454 374.402 268.151C373.883 267.837 373.447 267.402 373.097 266.846C372.746 266.277 372.474 265.6 372.281 264.815C372.099 264.017 372.009 263.134 372.009 262.167C372.009 261.127 372.112 260.209 372.317 259.411C372.535 258.601 372.831 257.924 373.206 257.38C373.58 256.824 374.016 256.407 374.511 256.129C375.007 255.838 375.539 255.693 376.107 255.693C376.76 255.693 377.34 255.851 377.848 256.165C378.368 256.467 378.803 256.902 379.153 257.471C379.516 258.027 379.788 258.704 379.969 259.502C380.151 260.287 380.242 261.164 380.242 262.131C380.242 263.171 380.133 264.095 379.915 264.905C379.71 265.703 379.419 266.38 379.045 266.936C378.682 267.48 378.253 267.897 377.757 268.188C377.262 268.466 376.73 268.605 376.161 268.605ZM376.161 267.335C376.524 267.335 376.869 267.239 377.195 267.045C377.534 266.852 377.824 266.549 378.065 266.138C378.319 265.715 378.519 265.177 378.664 264.525C378.809 263.86 378.881 263.062 378.881 262.131C378.881 261.248 378.809 260.481 378.664 259.828C378.531 259.175 378.344 258.637 378.102 258.214C377.86 257.791 377.57 257.477 377.231 257.271C376.893 257.066 376.518 256.963 376.107 256.963C375.744 256.963 375.394 257.059 375.055 257.253C374.729 257.446 374.439 257.755 374.185 258.178C373.931 258.589 373.732 259.127 373.586 259.792C373.441 260.444 373.369 261.236 373.369 262.167C373.369 263.062 373.435 263.835 373.568 264.488C373.713 265.129 373.907 265.661 374.149 266.084C374.402 266.507 374.699 266.821 375.037 267.027C375.376 267.233 375.75 267.335 376.161 267.335Z" fill="white"/>
<g clip-path="url(#clip3_1353_603)">
<circle cx="23.8858" cy="310.401" r="3.88579" fill="#007CFF"/>
</g>
<path d="M51.3561 311.557V312.158C51.3561 313.153 51.0384 313.843 50.4028 314.23C49.7811 314.617 48.6482 314.811 47.0041 314.811H42.4654V304.78H46.859C47.7432 304.78 48.4547 304.835 48.9936 304.946C49.5462 305.043 49.94 305.215 50.1749 305.464C50.4236 305.713 50.5824 305.961 50.6515 306.21C50.7206 306.459 50.7551 306.797 50.7551 307.226V307.578C50.7551 308.13 50.6101 308.538 50.3199 308.801C50.0298 309.049 49.5739 309.243 48.9521 309.381V309.464C50.5548 309.726 51.3561 310.424 51.3561 311.557ZM48.9729 307.516V307.391C48.9729 306.866 48.8485 306.514 48.5998 306.334C48.3511 306.155 47.8054 306.065 46.9626 306.065H44.3306V309.008H47.0248C47.8537 309.008 48.3857 308.904 48.6205 308.697C48.8554 308.49 48.9729 308.096 48.9729 307.516ZM49.4495 312.096V311.433C49.4495 311.073 49.2975 310.783 48.9936 310.562C48.7034 310.341 48.1093 310.231 47.2113 310.231H44.3306V313.464H47.1077C48.0748 313.464 48.7034 313.367 48.9936 313.173C49.2975 312.98 49.4495 312.621 49.4495 312.096ZM63.2983 314.811H61.4331V310.313H56.5008V314.811H54.6356V304.78H56.5008V308.946H61.4331V304.78H63.2983V314.811ZM74.7426 304.78L69.7688 318.914H67.8207L69.3336 314.956L65.4582 304.78H67.4891L70.2869 312.966H70.3284L72.8567 304.78H74.7426ZM85.4977 306.148H81.5808V314.811H79.7156V306.148H75.778V304.78H85.4977V306.148ZM97.1572 307.412V311.536C97.1572 312.144 97.0674 312.669 96.8878 313.111C96.7082 313.553 96.4802 313.899 96.2039 314.147C95.9414 314.382 95.5891 314.569 95.1469 314.707C94.7048 314.845 94.2903 314.928 93.9035 314.956C93.5166 314.997 93.0469 315.018 92.4942 315.018C91.9416 315.018 91.4028 314.949 90.8777 314.811C90.3527 314.672 90.0211 314.458 89.883 314.168V318.914H88.0178V304.78H89.883V305.858C90.035 305.001 91.1748 304.573 93.3025 304.573C94.6426 304.573 95.6167 304.856 96.2246 305.423C96.8463 305.975 97.1572 306.638 97.1572 307.412ZM95.2506 311.764V308.075C95.2506 307.15 95.0502 306.562 94.6496 306.314C94.2489 306.051 93.5374 305.92 92.515 305.92C91.4787 305.92 90.7603 306.051 90.3596 306.314C89.9728 306.562 89.7794 307.15 89.7794 308.075V311.764C89.7794 312.607 89.9797 313.153 90.3804 313.401C90.7948 313.636 91.5133 313.754 92.5357 313.754C93.5581 313.754 94.2627 313.636 94.6496 313.401C95.0502 313.153 95.2506 312.607 95.2506 311.764ZM108.682 310.21H101.947V311.723C101.947 312.427 102.195 312.932 102.693 313.236C103.204 313.526 103.971 313.671 104.993 313.671C105.891 313.671 106.989 313.505 108.288 313.173V314.603C106.989 314.88 105.698 315.018 104.413 315.018C103.128 315.018 102.078 314.776 101.263 314.292C100.461 313.795 100.061 313.014 100.061 311.951V307.992C100.061 306.763 100.413 305.885 101.118 305.36C101.822 304.835 102.948 304.573 104.496 304.573C105.946 304.573 107.003 304.828 107.666 305.34C108.343 305.837 108.682 306.721 108.682 307.992V310.21ZM106.817 308.987V307.412C106.817 306.804 106.63 306.39 106.257 306.169C105.898 305.934 105.297 305.816 104.454 305.816C103.598 305.816 102.962 305.927 102.548 306.148C102.147 306.355 101.947 306.776 101.947 307.412V308.987H106.817ZM120.602 314.811H118.736V310.313H113.804V314.811H111.939V304.78H113.804V308.946H118.736V304.78H120.602V314.811ZM132.916 314.811H131.051V310.313H126.119V314.811H124.254V304.78H126.119V308.946H131.051V304.78H132.916V314.811ZM137.833 314.811H135.366L139.263 310.541C137.218 310.541 136.195 309.844 136.195 308.448V307.371C136.195 306.321 136.43 305.63 136.9 305.298C137.37 304.953 138.295 304.78 139.677 304.78H144.817V314.811H142.951V310.79H141.273L137.833 314.811ZM138.081 307.536V307.827C138.081 308.559 138.171 309.022 138.351 309.215C138.544 309.408 138.903 309.505 139.428 309.505H142.951V306.065H139.864C139.117 306.065 138.634 306.169 138.413 306.376C138.192 306.569 138.081 306.956 138.081 307.536ZM149.844 314.811H147.378L151.274 310.541C149.229 310.541 148.206 309.844 148.206 308.448V307.371C148.206 306.321 148.441 305.63 148.911 305.298C149.381 304.953 150.307 304.78 151.688 304.78H156.828V314.811H154.963V310.79H153.284L149.844 314.811ZM150.092 307.536V307.827C150.092 308.559 150.182 309.022 150.362 309.215C150.555 309.408 150.914 309.505 151.439 309.505H154.963V306.065H151.875C151.129 306.065 150.645 306.169 150.424 306.376C150.203 306.569 150.092 306.956 150.092 307.536ZM174.651 308.158V311.64C174.651 312.262 174.575 312.787 174.423 313.215C174.271 313.643 174.078 313.975 173.843 314.21C173.608 314.444 173.27 314.624 172.828 314.748C172.399 314.873 171.985 314.949 171.584 314.976C171.197 315.004 170.679 315.018 170.03 315.018C169.201 315.018 168.552 314.99 168.082 314.935C167.626 314.88 167.163 314.748 166.693 314.541C166.237 314.32 165.906 313.975 165.699 313.505C165.505 313.035 165.408 312.413 165.408 311.64V308.158C165.408 307.495 165.484 306.935 165.636 306.479C165.802 306.024 165.996 305.671 166.217 305.423C166.452 305.174 166.79 304.987 167.232 304.863C167.674 304.725 168.082 304.642 168.455 304.614C168.842 304.587 169.367 304.573 170.03 304.573C170.693 304.573 171.211 304.587 171.584 304.614C171.971 304.642 172.386 304.725 172.828 304.863C173.27 304.987 173.601 305.174 173.822 305.423C174.057 305.671 174.251 306.024 174.403 306.479C174.569 306.935 174.651 307.495 174.651 308.158ZM172.745 311.909V307.847C172.745 306.922 172.558 306.348 172.185 306.127C171.812 305.906 171.094 305.796 170.03 305.796C168.966 305.796 168.248 305.906 167.875 306.127C167.502 306.348 167.315 306.922 167.315 307.847V311.909C167.315 312.351 167.363 312.704 167.46 312.966C167.557 313.229 167.736 313.422 167.999 313.546C168.261 313.657 168.531 313.726 168.807 313.754C169.083 313.781 169.491 313.795 170.03 313.795C170.569 313.795 170.976 313.781 171.253 313.754C171.529 313.726 171.798 313.657 172.061 313.546C172.323 313.422 172.503 313.229 172.6 312.966C172.696 312.704 172.745 312.351 172.745 311.909ZM186.575 314.811H184.71V306.148H179.964V314.811H178.099V304.78H186.575V314.811ZM198.951 306.148H195.034V314.811H193.169V306.148H189.231V304.78H198.951V306.148ZM203.896 314.811H201.471V304.78H203.232V312.883L208.206 304.78H210.631V314.811H208.869V306.521L203.896 314.811ZM226.271 314.811H224.551V306.479H224.447L221.359 314.811H219.473L216.261 306.479H216.157V314.811H214.396V304.78H217.401L220.447 312.945H220.53L223.369 304.78H226.271V314.811ZM232.472 314.811H230.047V304.78H231.808V312.883L236.782 304.78H239.207V314.811H237.445V306.521L232.472 314.811ZM250.37 311.205V312.241C250.37 312.738 250.267 313.166 250.059 313.526C249.866 313.885 249.624 314.161 249.334 314.355C249.058 314.534 248.691 314.679 248.236 314.79C247.78 314.9 247.365 314.963 246.992 314.976C246.633 315.004 246.191 315.018 245.666 315.018C244.63 315.018 243.393 314.9 241.956 314.666V313.194C243.434 313.498 244.671 313.65 245.666 313.65C246.066 313.65 246.384 313.643 246.619 313.629C246.868 313.602 247.151 313.546 247.469 313.464C247.787 313.367 248.021 313.208 248.173 312.987C248.339 312.752 248.422 312.455 248.422 312.096V311.453C248.422 311.163 248.339 310.928 248.173 310.749C248.021 310.555 247.793 310.424 247.489 310.355C247.199 310.272 246.937 310.224 246.702 310.21C246.467 310.182 246.184 310.168 245.852 310.168H243.676V308.883H245.5C245.832 308.883 246.108 308.877 246.329 308.863C246.564 308.835 246.833 308.787 247.137 308.718C247.441 308.635 247.676 308.497 247.842 308.303C248.008 308.11 248.09 307.861 248.09 307.557V306.935C248.09 306.217 247.262 305.858 245.604 305.858C244.305 305.858 243.179 305.941 242.226 306.106V304.759C243.262 304.635 244.381 304.573 245.583 304.573C246.578 304.573 247.351 304.621 247.904 304.718C248.595 304.828 249.113 305.043 249.458 305.36C249.804 305.678 249.976 306.169 249.976 306.832V307.64C249.976 308.096 249.804 308.462 249.458 308.738C249.127 309.015 248.719 309.194 248.236 309.277V309.36C249.659 309.581 250.37 310.196 250.37 311.205ZM261.561 314.811H259.758V313.857C259.606 314.631 258.597 315.018 256.732 315.018C255.35 315.018 254.39 314.811 253.851 314.396C253.326 313.968 253.064 313.111 253.064 311.826C253.064 310.707 253.313 309.94 253.81 309.526C254.307 309.098 255.267 308.883 256.691 308.883H259.696V307.288C259.696 306.735 259.523 306.362 259.177 306.169C258.846 305.975 258.21 305.878 257.271 305.878C256.248 305.878 255.102 305.961 253.831 306.127V304.759C255.198 304.635 256.435 304.573 257.54 304.573C259.226 304.573 260.317 304.78 260.815 305.195C261.312 305.595 261.561 306.438 261.561 307.723V314.811ZM259.696 312.821V310.044H256.815C255.958 310.044 255.419 310.155 255.198 310.376C254.991 310.597 254.888 311.101 254.888 311.888C254.888 312.607 254.998 313.111 255.219 313.401C255.454 313.691 255.938 313.837 256.67 313.837H257.043C257.402 313.837 257.699 313.83 257.934 313.816C258.183 313.802 258.459 313.767 258.763 313.712C259.067 313.643 259.295 313.54 259.447 313.401C259.613 313.249 259.696 313.056 259.696 312.821ZM274.018 317.588H272.215V314.811H265.334V304.78H267.2V313.443H272.153V304.78H274.018V317.588ZM280.213 314.811H277.788V304.78H279.549V312.883L284.523 304.78H286.948V314.811H285.186V306.521L280.213 314.811ZM291.852 314.811H289.386L293.282 310.541C291.238 310.541 290.215 309.844 290.215 308.448V307.371C290.215 306.321 290.45 305.63 290.92 305.298C291.39 304.953 292.315 304.78 293.697 304.78H298.837V314.811H296.971V310.79H295.293L291.852 314.811ZM292.101 307.536V307.827C292.101 308.559 292.191 309.022 292.371 309.215C292.564 309.408 292.923 309.505 293.448 309.505H296.971V306.065H293.883C293.137 306.065 292.654 306.169 292.433 306.376C292.212 306.569 292.101 306.956 292.101 307.536Z" fill="#132436"/>
<rect x="333.095" y="291.63" width="61.9053" height="32.3621" rx="6.47632" fill="#FEB614"/>
<path d="M352.431 310.166H346.465V309.676L353.374 300.936H353.737V308.987H355.35V310.166H353.737V313.811H352.431V310.166ZM352.431 308.987V304.055L348.514 308.987H352.431ZM357.98 318.163H356.638L361.135 301.117H362.477L357.98 318.163ZM366.797 302.803L364.422 303.71V302.35L368.103 300.936V313.811H366.797V302.803ZM376.161 313.919C375.509 313.919 374.922 313.768 374.402 313.466C373.883 313.152 373.447 312.717 373.097 312.16C372.746 311.592 372.474 310.915 372.281 310.129C372.099 309.332 372.009 308.449 372.009 307.482C372.009 306.442 372.112 305.523 372.317 304.726C372.535 303.916 372.831 303.239 373.206 302.695C373.58 302.139 374.016 301.721 374.511 301.443C375.007 301.153 375.539 301.008 376.107 301.008C376.76 301.008 377.34 301.165 377.848 301.48C378.368 301.782 378.803 302.217 379.153 302.785C379.516 303.341 379.788 304.018 379.969 304.816C380.151 305.602 380.242 306.479 380.242 307.446C380.242 308.485 380.133 309.41 379.915 310.22C379.71 311.018 379.419 311.695 379.045 312.251C378.682 312.795 378.253 313.212 377.757 313.502C377.262 313.78 376.73 313.919 376.161 313.919ZM376.161 312.65C376.524 312.65 376.869 312.553 377.195 312.36C377.534 312.166 377.824 311.864 378.065 311.453C378.319 311.03 378.519 310.492 378.664 309.839C378.809 309.174 378.881 308.377 378.881 307.446C378.881 306.563 378.809 305.795 378.664 305.143C378.531 304.49 378.344 303.952 378.102 303.529C377.86 303.106 377.57 302.791 377.231 302.586C376.893 302.38 376.518 302.278 376.107 302.278C375.744 302.278 375.394 302.374 375.055 302.568C374.729 302.761 374.439 303.069 374.185 303.492C373.931 303.904 373.732 304.441 373.586 305.106C373.441 305.759 373.369 306.551 373.369 307.482C373.369 308.377 373.435 309.15 373.568 309.803C373.713 310.444 373.907 310.976 374.149 311.399C374.402 311.822 374.699 312.136 375.037 312.342C375.376 312.547 375.75 312.65 376.161 312.65Z" fill="white"/>
<g clip-path="url(#clip4_1353_603)">
<circle cx="23.8858" cy="355.716" r="3.88579" fill="#007CFF"/>
</g>
<path d="M51.3561 356.872V357.473C51.3561 358.467 51.0384 359.158 50.4028 359.545C49.7811 359.932 48.6482 360.125 47.0041 360.125H42.4654V350.095H46.859C47.7432 350.095 48.4547 350.15 48.9936 350.261C49.5462 350.357 49.94 350.53 50.1749 350.779C50.4236 351.027 50.5824 351.276 50.6515 351.525C50.7206 351.773 50.7551 352.112 50.7551 352.54V352.893C50.7551 353.445 50.6101 353.853 50.3199 354.115C50.0298 354.364 49.5739 354.557 48.9521 354.696V354.779C50.5548 355.041 51.3561 355.739 51.3561 356.872ZM48.9729 352.83V352.706C48.9729 352.181 48.8485 351.829 48.5998 351.649C48.3511 351.47 47.8054 351.38 46.9626 351.38H44.3306V354.323H47.0248C47.8537 354.323 48.3857 354.219 48.6205 354.012C48.8554 353.804 48.9729 353.411 48.9729 352.83ZM49.4495 357.41V356.747C49.4495 356.388 49.2975 356.098 48.9936 355.877C48.7034 355.656 48.1093 355.545 47.2113 355.545H44.3306V358.778H47.1077C48.0748 358.778 48.7034 358.682 48.9936 358.488C49.2975 358.295 49.4495 357.936 49.4495 357.41ZM63.2983 360.125H61.4331V355.628H56.5008V360.125H54.6356V350.095H56.5008V354.26H61.4331V350.095H63.2983V360.125ZM75.1986 355.525L68.4632 355.525V357.037C68.4632 357.742 68.7119 358.246 69.2093 358.55C69.7205 358.84 70.4873 358.986 71.5096 358.986C72.4077 358.986 73.5061 358.82 74.8048 358.488V359.918C73.5061 360.194 72.2143 360.333 70.9294 360.333C69.6445 360.333 68.5944 360.091 67.7793 359.607C66.978 359.11 66.5773 358.329 66.5773 357.265V353.307C66.5773 352.077 66.9296 351.2 67.6342 350.675C68.3388 350.15 69.4649 349.888 71.0123 349.888C72.463 349.888 73.5199 350.143 74.1831 350.654C74.8601 351.152 75.1986 352.036 75.1986 353.307V355.525ZM73.3334 354.302V352.727C73.3334 352.119 73.1469 351.704 72.7738 351.483C72.4146 351.248 71.8136 351.131 70.9708 351.131C70.1142 351.131 69.4787 351.242 69.0642 351.463C68.6635 351.67 68.4632 352.091 68.4632 352.727V354.302H73.3334ZM92.0299 360.125H78.5799V350.095H80.445V358.758H84.3619V350.095H86.2478V358.758H90.1647V350.095H92.0299V360.125ZM104.472 360.125H102.607V355.628H97.6748V360.125H95.8096V350.095H97.6748V354.26H102.607V350.095H104.472V360.125ZM109.389 360.125H106.922L110.818 355.856C108.774 355.856 107.751 355.158 107.751 353.763V352.685C107.751 351.635 107.986 350.945 108.456 350.613C108.926 350.268 109.851 350.095 111.233 350.095H116.373V360.125H114.507V356.105H112.829L109.389 360.125ZM109.637 352.851V353.141C109.637 353.874 109.727 354.336 109.907 354.53C110.1 354.723 110.459 354.82 110.984 354.82H114.507V351.38H111.42C110.673 351.38 110.19 351.483 109.969 351.691C109.748 351.884 109.637 352.271 109.637 352.851ZM121.4 360.125H118.933L122.83 355.856C120.785 355.856 119.762 355.158 119.762 353.763V352.685C119.762 351.635 119.997 350.945 120.467 350.613C120.937 350.268 121.863 350.095 123.244 350.095H128.384V360.125H126.519V356.105H124.84L121.4 360.125ZM121.648 352.851V353.141C121.648 353.874 121.738 354.336 121.918 354.53C122.111 354.723 122.47 354.82 122.995 354.82H126.519V351.38H123.431C122.685 351.38 122.201 351.483 121.98 351.691C121.759 351.884 121.648 352.271 121.648 352.851ZM146.207 353.473V356.955C146.207 357.576 146.131 358.101 145.979 358.53C145.827 358.958 145.634 359.289 145.399 359.524C145.164 359.759 144.826 359.939 144.384 360.063C143.955 360.188 143.541 360.264 143.14 360.291C142.753 360.319 142.235 360.333 141.586 360.333C140.757 360.333 140.108 360.305 139.638 360.25C139.182 360.194 138.719 360.063 138.249 359.856C137.793 359.635 137.462 359.289 137.255 358.82C137.061 358.35 136.964 357.728 136.964 356.955V353.473C136.964 352.81 137.04 352.25 137.192 351.794C137.358 351.338 137.552 350.986 137.773 350.737C138.008 350.489 138.346 350.302 138.788 350.178C139.23 350.04 139.638 349.957 140.011 349.929C140.398 349.901 140.923 349.888 141.586 349.888C142.249 349.888 142.767 349.901 143.14 349.929C143.527 349.957 143.942 350.04 144.384 350.178C144.826 350.302 145.157 350.489 145.378 350.737C145.613 350.986 145.807 351.338 145.959 351.794C146.124 352.25 146.207 352.81 146.207 353.473ZM144.301 357.224V353.162C144.301 352.236 144.114 351.663 143.741 351.442C143.368 351.221 142.65 351.11 141.586 351.11C140.522 351.11 139.804 351.221 139.431 351.442C139.058 351.663 138.871 352.236 138.871 353.162V357.224C138.871 357.666 138.919 358.018 139.016 358.281C139.113 358.543 139.292 358.737 139.555 358.861C139.817 358.972 140.087 359.041 140.363 359.068C140.639 359.096 141.047 359.11 141.586 359.11C142.125 359.11 142.532 359.096 142.809 359.068C143.085 359.041 143.354 358.972 143.617 358.861C143.879 358.737 144.059 358.543 144.156 358.281C144.252 358.018 144.301 357.666 144.301 357.224ZM158.131 360.125H156.266V351.463H151.52V360.125H149.655V350.095H158.131V360.125ZM170.507 351.463H166.59V360.125H164.725V351.463H160.787V350.095H170.507V351.463ZM175.452 360.125H173.027V350.095H174.788V358.198L179.762 350.095H182.187V360.125H180.425V351.836L175.452 360.125ZM197.827 360.125H196.106V351.794H196.003L192.915 360.125H191.029L187.817 351.794H187.713V360.125H185.952V350.095H188.957L192.003 358.26H192.086L194.925 350.095H197.827V360.125ZM204.028 360.125H201.603V350.095H203.364V358.198L208.338 350.095H210.763V360.125H209.001V351.836L204.028 360.125ZM221.926 356.519V357.556C221.926 358.053 221.823 358.481 221.615 358.84C221.422 359.2 221.18 359.476 220.89 359.669C220.614 359.849 220.247 359.994 219.792 360.105C219.336 360.215 218.921 360.277 218.548 360.291C218.189 360.319 217.747 360.333 217.222 360.333C216.186 360.333 214.949 360.215 213.512 359.98V358.509C214.99 358.813 216.227 358.965 217.222 358.965C217.622 358.965 217.94 358.958 218.175 358.944C218.424 358.916 218.707 358.861 219.025 358.778C219.343 358.682 219.577 358.523 219.729 358.302C219.895 358.067 219.978 357.77 219.978 357.41V356.768C219.978 356.478 219.895 356.243 219.729 356.063C219.577 355.87 219.349 355.739 219.045 355.67C218.755 355.587 218.493 355.538 218.258 355.525C218.023 355.497 217.74 355.483 217.408 355.483H215.232V354.198H217.056C217.388 354.198 217.664 354.191 217.885 354.178C218.12 354.15 218.389 354.102 218.693 354.032C218.997 353.95 219.232 353.811 219.398 353.618C219.564 353.425 219.646 353.176 219.646 352.872V352.25C219.646 351.532 218.818 351.172 217.16 351.172C215.861 351.172 214.735 351.255 213.782 351.421V350.074C214.818 349.95 215.937 349.888 217.139 349.888C218.134 349.888 218.907 349.936 219.46 350.033C220.151 350.143 220.669 350.357 221.014 350.675C221.36 350.993 221.532 351.483 221.532 352.147V352.955C221.532 353.411 221.36 353.777 221.014 354.053C220.683 354.329 220.275 354.509 219.792 354.592V354.675C221.215 354.896 221.926 355.511 221.926 356.519ZM233.117 360.125H231.314V359.172C231.162 359.946 230.153 360.333 228.288 360.333C226.906 360.333 225.946 360.125 225.407 359.711C224.882 359.283 224.62 358.426 224.62 357.141C224.62 356.022 224.868 355.255 225.366 354.841C225.863 354.412 226.823 354.198 228.247 354.198H231.252V352.602C231.252 352.05 231.079 351.677 230.733 351.483C230.402 351.29 229.766 351.193 228.827 351.193C227.804 351.193 226.658 351.276 225.387 351.442V350.074C226.754 349.95 227.991 349.888 229.096 349.888C230.782 349.888 231.873 350.095 232.371 350.509C232.868 350.91 233.117 351.753 233.117 353.038V360.125ZM231.252 358.136V355.359H228.371C227.514 355.359 226.975 355.469 226.754 355.69C226.547 355.911 226.444 356.416 226.444 357.203C226.444 357.922 226.554 358.426 226.775 358.716C227.01 359.006 227.494 359.151 228.226 359.151H228.599C228.958 359.151 229.255 359.144 229.49 359.131C229.739 359.117 230.015 359.082 230.319 359.027C230.623 358.958 230.851 358.854 231.003 358.716C231.169 358.564 231.252 358.371 231.252 358.136ZM245.574 362.902H243.771V360.125H236.89V350.095H238.756V358.758H243.709V350.095H245.574V362.902ZM251.769 360.125H249.344V350.095H251.105V358.198L256.079 350.095H258.504V360.125H256.742V351.836L251.769 360.125ZM263.408 360.125H260.942L264.838 355.856C262.794 355.856 261.771 355.158 261.771 353.763V352.685C261.771 351.635 262.006 350.945 262.476 350.613C262.946 350.268 263.871 350.095 265.253 350.095H270.393V360.125H268.527V356.105H266.849L263.408 360.125ZM263.657 352.851V353.141C263.657 353.874 263.747 354.336 263.927 354.53C264.12 354.723 264.479 354.82 265.004 354.82H268.527V351.38H265.439C264.693 351.38 264.21 351.483 263.989 351.691C263.768 351.884 263.657 352.271 263.657 352.851Z" fill="#132436"/>
<rect x="335.095" y="336.944" width="59.9053" height="32.3621" rx="6.47632" fill="#00DC82"/>
<path d="M354.738 347.701H349.008V346.432H356.388V346.794L352.073 359.125H350.713L354.738 347.701ZM358.456 363.477H357.114L361.611 346.432H362.953L358.456 363.477ZM367.273 348.118L364.898 349.025V347.665L368.579 346.25V359.125H367.273V348.118ZM376.637 359.234C375.985 359.234 375.398 359.083 374.879 358.781C374.359 358.467 373.923 358.031 373.573 357.475C373.222 356.907 372.95 356.23 372.757 355.444C372.576 354.646 372.485 353.764 372.485 352.797C372.485 351.757 372.588 350.838 372.793 350.04C373.011 349.23 373.307 348.553 373.682 348.009C374.056 347.453 374.492 347.036 374.987 346.758C375.483 346.468 376.015 346.323 376.583 346.323C377.236 346.323 377.816 346.48 378.324 346.794C378.844 347.097 379.279 347.532 379.63 348.1C379.992 348.656 380.264 349.333 380.446 350.131C380.627 350.917 380.718 351.793 380.718 352.76C380.718 353.8 380.609 354.725 380.391 355.535C380.186 356.333 379.896 357.01 379.521 357.566C379.158 358.11 378.729 358.527 378.233 358.817C377.738 359.095 377.206 359.234 376.637 359.234ZM376.637 357.965C377 357.965 377.345 357.868 377.671 357.675C378.01 357.481 378.3 357.179 378.542 356.768C378.795 356.345 378.995 355.807 379.14 355.154C379.285 354.489 379.358 353.691 379.358 352.76C379.358 351.878 379.285 351.11 379.14 350.457C379.007 349.805 378.82 349.267 378.578 348.844C378.336 348.42 378.046 348.106 377.707 347.901C377.369 347.695 376.994 347.592 376.583 347.592C376.22 347.592 375.87 347.689 375.531 347.882C375.205 348.076 374.915 348.384 374.661 348.807C374.407 349.218 374.208 349.756 374.063 350.421C373.917 351.074 373.845 351.866 373.845 352.797C373.845 353.691 373.911 354.465 374.044 355.118C374.189 355.759 374.383 356.29 374.625 356.714C374.879 357.137 375.175 357.451 375.513 357.657C375.852 357.862 376.226 357.965 376.637 357.965Z" fill="white"/>
<g clip-path="url(#clip5_1353_603)">
<circle cx="23.8858" cy="401.031" r="3.88579" fill="#007CFF"/>
</g>
<path d="M51.2111 398.788V402.269C51.2111 402.891 51.1351 403.416 50.9831 403.844C50.8311 404.273 50.6377 404.604 50.4028 404.839C50.168 405.074 49.8295 405.254 49.3873 405.378C48.959 405.502 48.5446 405.578 48.1439 405.606C47.757 405.634 47.2389 405.647 46.5896 405.647C45.7606 405.647 45.1112 405.62 44.6415 405.564C44.1856 405.509 43.7227 405.378 43.253 405.171C42.797 404.95 42.4654 404.604 42.2582 404.134C42.0648 403.665 41.9681 403.043 41.9681 402.269V398.788C41.9681 398.124 42.0441 397.565 42.196 397.109C42.3618 396.653 42.5553 396.301 42.7763 396.052C43.0112 395.803 43.3497 395.617 43.7918 395.492C44.2339 395.354 44.6415 395.271 45.0145 395.244C45.4014 395.216 45.9264 395.202 46.5896 395.202C47.2527 395.202 47.7708 395.216 48.1439 395.244C48.5307 395.271 48.9452 395.354 49.3873 395.492C49.8295 395.617 50.161 395.803 50.3821 396.052C50.617 396.301 50.8104 396.653 50.9624 397.109C51.1282 397.565 51.2111 398.124 51.2111 398.788ZM49.3044 402.539V398.477C49.3044 397.551 49.1179 396.978 48.7449 396.757C48.3719 396.536 47.6534 396.425 46.5896 396.425C45.5257 396.425 44.8073 396.536 44.4342 396.757C44.0612 396.978 43.8747 397.551 43.8747 398.477V402.539C43.8747 402.981 43.923 403.333 44.0198 403.596C44.1165 403.858 44.2961 404.052 44.5586 404.176C44.8211 404.286 45.0905 404.356 45.3668 404.383C45.6432 404.411 46.0507 404.425 46.5896 404.425C47.1284 404.425 47.536 404.411 47.8123 404.383C48.0886 404.356 48.358 404.286 48.6205 404.176C48.883 404.052 49.0627 403.858 49.1594 403.596C49.2561 403.333 49.3044 402.981 49.3044 402.539ZM68.1088 405.44H54.6587V395.41H56.5239V404.072H60.4408V395.41H62.3267V404.072H66.2436V395.41H68.1088V405.44ZM74.3132 405.44H71.8885V395.41H73.6501V403.513L78.6239 395.41H81.0486V405.44H79.2871V397.15L74.3132 405.44ZM93.6211 402.207C93.6211 402.953 93.5037 403.568 93.2688 404.052C93.0339 404.535 92.6816 404.887 92.2119 405.109C91.7421 405.33 91.2724 405.475 90.8026 405.544C90.3329 405.613 89.7526 405.647 89.0618 405.647C88.4953 405.647 88.0187 405.627 87.6318 405.585C87.2588 405.558 86.8581 405.482 86.4298 405.357C86.0015 405.219 85.663 405.033 85.4143 404.798C85.1656 404.549 84.9584 404.21 84.7926 403.782C84.6268 403.34 84.5439 402.815 84.5439 402.207V394.518C84.5439 393.869 84.6475 393.316 84.8548 392.861C85.062 392.391 85.3176 392.032 85.6216 391.783C85.9255 391.52 86.3193 391.32 86.8028 391.182C87.3002 391.044 87.7492 390.961 88.1499 390.933C88.5506 390.892 89.0272 390.871 89.5799 390.871C90.4227 390.871 91.5556 390.933 92.9787 391.058V392.467C91.5141 392.287 90.2914 392.197 89.3105 392.197C88.2328 392.197 87.4729 392.335 87.0308 392.612C86.6025 392.874 86.3884 393.496 86.3884 394.477V396.073C86.7614 395.824 87.2864 395.617 87.9634 395.451C88.6542 395.285 89.269 395.202 89.8079 395.202C91.148 395.202 92.1151 395.472 92.7092 396.011C93.3172 396.549 93.6211 397.344 93.6211 398.394V402.207ZM91.7767 402.311V398.415C91.7767 397.738 91.6109 397.268 91.2793 397.005C90.9615 396.743 90.326 396.612 89.3726 396.612C88.82 396.612 88.2466 396.715 87.6525 396.922C87.0723 397.116 86.6509 397.385 86.3884 397.731V402.311C86.3884 403.209 86.5818 403.789 86.9686 404.052C87.3693 404.3 88.0808 404.425 89.1032 404.425C90.1256 404.425 90.8233 404.3 91.1964 404.052C91.5832 403.803 91.7767 403.223 91.7767 402.311ZM97.1044 405.44V395.41H98.9696V399.741C99.4531 399.741 99.8193 399.672 100.068 399.534C100.33 399.396 100.614 399.085 100.918 398.601L101.933 396.964C102.32 396.328 102.714 395.914 103.114 395.72C103.529 395.513 104.116 395.41 104.876 395.41H105.581V396.467H105.187C104.482 396.467 103.902 396.833 103.446 397.565L102.658 398.85C102.175 399.693 101.678 400.176 101.166 400.301C101.553 400.397 102.313 401.074 103.446 402.331L106.244 405.44H103.943L101.208 402.331C100.807 401.876 100.441 401.537 100.109 401.316C99.7778 401.095 99.5568 400.978 99.4462 400.964C99.3357 400.95 99.1768 400.943 98.9696 400.943V405.44H97.1044ZM110.367 405.44H107.942V395.41H109.704V403.513L114.678 395.41H117.102V405.44H115.341V397.15L110.367 405.44ZM133.187 405.357C132.275 405.551 131.204 405.647 129.975 405.647C129.367 405.647 128.89 405.634 128.545 405.606C128.213 405.592 127.826 405.53 127.384 405.419C126.956 405.295 126.624 405.122 126.389 404.901C126.168 404.68 125.975 404.362 125.809 403.948C125.643 403.52 125.56 402.995 125.56 402.373V398.684C125.56 398.131 125.609 397.655 125.705 397.254C125.816 396.853 125.982 396.529 126.203 396.28C126.424 396.031 126.652 395.831 126.887 395.679C127.122 395.527 127.439 395.423 127.84 395.368C128.255 395.299 128.614 395.258 128.918 395.244C129.235 395.216 129.657 395.202 130.182 395.202C131.135 395.202 132.089 395.306 133.042 395.513V396.881C131.964 396.605 130.935 396.467 129.954 396.467C128.89 396.467 128.206 396.577 127.902 396.798C127.612 397.019 127.467 397.558 127.467 398.415V402.559C127.467 403.292 127.64 403.775 127.985 404.01C128.331 404.231 129.056 404.342 130.161 404.342C131.142 404.342 132.151 404.21 133.187 403.948V405.357ZM144.562 396.777H140.645V405.44H138.78V396.777H134.842V395.41H144.562V396.777ZM156.221 398.042V402.166C156.221 402.774 156.131 403.299 155.952 403.741C155.772 404.183 155.544 404.528 155.268 404.777C155.005 405.012 154.653 405.198 154.211 405.337C153.769 405.475 153.354 405.558 152.968 405.585C152.581 405.627 152.111 405.647 151.558 405.647C151.006 405.647 150.467 405.578 149.942 405.44C149.417 405.302 149.085 405.088 148.947 404.798V409.544H147.082V395.41H148.947V396.487C149.099 395.631 150.239 395.202 152.367 395.202C153.707 395.202 154.681 395.486 155.289 396.052C155.91 396.605 156.221 397.268 156.221 398.042ZM154.315 402.394V398.705C154.315 397.779 154.114 397.192 153.714 396.943C153.313 396.681 152.601 396.549 151.579 396.549C150.543 396.549 149.824 396.681 149.424 396.943C149.037 397.192 148.843 397.779 148.843 398.705V402.394C148.843 403.236 149.044 403.782 149.444 404.031C149.859 404.266 150.577 404.383 151.6 404.383C152.622 404.383 153.327 404.266 153.714 404.031C154.114 403.782 154.315 403.236 154.315 402.394ZM167.414 405.44H165.611V404.487C165.459 405.261 164.451 405.647 162.586 405.647C161.204 405.647 160.244 405.44 159.705 405.026C159.18 404.597 158.918 403.741 158.918 402.456C158.918 401.337 159.166 400.57 159.664 400.155C160.161 399.727 161.121 399.513 162.544 399.513H165.549V397.917C165.549 397.365 165.377 396.992 165.031 396.798C164.7 396.605 164.064 396.508 163.125 396.508C162.102 396.508 160.955 396.591 159.684 396.757V395.389C161.052 395.265 162.289 395.202 163.394 395.202C165.08 395.202 166.171 395.41 166.668 395.824C167.166 396.225 167.414 397.068 167.414 398.352V405.44ZM165.549 403.451V400.674H162.669C161.812 400.674 161.273 400.784 161.052 401.005C160.845 401.226 160.741 401.73 160.741 402.518C160.741 403.236 160.852 403.741 161.073 404.031C161.308 404.321 161.791 404.466 162.524 404.466H162.897C163.256 404.466 163.553 404.459 163.788 404.445C164.036 404.432 164.313 404.397 164.617 404.342C164.921 404.273 165.149 404.169 165.301 404.031C165.466 403.879 165.549 403.685 165.549 403.451ZM179.726 405.44H177.861V400.943H172.929V405.44H171.064V395.41H172.929V399.575H177.861V395.41H179.726V405.44ZM185.803 405.44H183.378V395.41H185.14V403.513L190.114 395.41H192.539V405.44H190.777V397.15L185.803 405.44ZM204.987 408.217H203.184V405.44H196.303V395.41H198.168V404.072H203.121V395.41H204.987V408.217Z" fill="#132436"/>
<rect x="333.095" y="382.259" width="61.9053" height="32.3621" rx="6.47632" fill="#00DC82"/>
<path d="M351.18 391.638C351.76 391.638 352.304 391.728 352.812 391.91C353.332 392.091 353.785 392.357 354.172 392.708C354.559 393.058 354.867 393.499 355.097 394.031C355.326 394.563 355.441 395.174 355.441 395.863C355.441 396.77 355.248 397.628 354.861 398.438C354.486 399.248 353.984 400.1 353.356 400.995L350.962 404.44H349.475V404.295L353.374 398.855C353.035 399.133 352.655 399.357 352.231 399.526C351.82 399.683 351.361 399.762 350.853 399.762C350.358 399.762 349.874 399.677 349.403 399.508C348.943 399.326 348.532 399.067 348.169 398.728C347.807 398.377 347.517 397.954 347.299 397.459C347.081 396.951 346.973 396.365 346.973 395.7C346.973 395.011 347.088 394.412 347.317 393.904C347.547 393.397 347.855 392.98 348.242 392.653C348.641 392.315 349.094 392.061 349.602 391.892C350.11 391.722 350.636 391.638 351.18 391.638ZM351.198 392.816C350.811 392.816 350.436 392.883 350.074 393.016C349.723 393.137 349.415 393.318 349.149 393.56C348.883 393.802 348.671 394.104 348.514 394.467C348.357 394.817 348.278 395.228 348.278 395.7C348.278 396.171 348.351 396.588 348.496 396.951C348.653 397.314 348.865 397.622 349.131 397.876C349.397 398.13 349.705 398.323 350.055 398.456C350.418 398.589 350.805 398.655 351.216 398.655C351.615 398.655 351.99 398.595 352.34 398.474C352.703 398.341 353.017 398.154 353.283 397.912C353.549 397.67 353.755 397.368 353.9 397.005C354.057 396.643 354.135 396.232 354.135 395.772C354.135 395.301 354.057 394.884 353.9 394.521C353.743 394.146 353.531 393.838 353.265 393.596C352.999 393.342 352.685 393.149 352.322 393.016C351.972 392.883 351.597 392.816 351.198 392.816ZM357.98 408.792H356.638L361.135 391.747H362.477L357.98 408.792ZM366.797 393.433L364.422 394.34V392.98L368.103 391.565V404.44H366.797V393.433ZM376.161 404.549C375.509 404.549 374.922 404.398 374.402 404.096C373.883 403.781 373.447 403.346 373.097 402.79C372.746 402.222 372.474 401.545 372.281 400.759C372.099 399.961 372.009 399.079 372.009 398.111C372.009 397.072 372.112 396.153 372.317 395.355C372.535 394.545 372.831 393.868 373.206 393.324C373.58 392.768 374.016 392.351 374.511 392.073C375.007 391.783 375.539 391.638 376.107 391.638C376.76 391.638 377.34 391.795 377.848 392.109C378.368 392.411 378.803 392.847 379.153 393.415C379.516 393.971 379.788 394.648 379.969 395.446C380.151 396.232 380.242 397.108 380.242 398.075C380.242 399.115 380.133 400.04 379.915 400.85C379.71 401.648 379.419 402.325 379.045 402.881C378.682 403.425 378.253 403.842 377.757 404.132C377.262 404.41 376.73 404.549 376.161 404.549ZM376.161 403.28C376.524 403.28 376.869 403.183 377.195 402.989C377.534 402.796 377.824 402.494 378.065 402.083C378.319 401.66 378.519 401.122 378.664 400.469C378.809 399.804 378.881 399.006 378.881 398.075C378.881 397.193 378.809 396.425 378.664 395.772C378.531 395.119 378.344 394.581 378.102 394.158C377.86 393.735 377.57 393.421 377.231 393.215C376.893 393.01 376.518 392.907 376.107 392.907C375.744 392.907 375.394 393.004 375.055 393.197C374.729 393.391 374.439 393.699 374.185 394.122C373.931 394.533 373.732 395.071 373.586 395.736C373.441 396.389 373.369 397.181 373.369 398.111C373.369 399.006 373.435 399.78 373.568 400.433C373.713 401.073 373.907 401.605 374.149 402.028C374.402 402.451 374.699 402.766 375.037 402.971C375.376 403.177 375.75 403.28 376.161 403.28Z" fill="white"/>
<g clip-path="url(#clip6_1353_603)">
<circle cx="23.8858" cy="446.345" r="3.88579" fill="#007CFF"/>
</g>
<path d="M44.7658 450.755H42.3411V440.724H44.1027V448.828L49.0765 440.724H51.5012V450.755H49.7397V442.465L44.7658 450.755ZM63.8043 450.755H61.9391V446.258H57.0067V450.755H55.1416V440.724H57.0067V444.89H61.9391V440.724H63.8043V450.755ZM73.1969 449.429V442.051H70.0675V442.569C70.0675 445.194 69.6945 447.48 68.9484 449.429H73.1969ZM68.4096 441.429V440.724H74.8548V449.429H75.8496V453.532H74.2538V450.755H67.7671V453.532H66.1714V449.429H67.1247C67.9813 447.508 68.4096 444.842 68.4096 441.429ZM87.1692 446.154H80.4339V447.667C80.4339 448.372 80.6826 448.876 81.1799 449.18C81.6911 449.47 82.4579 449.615 83.4803 449.615C84.3784 449.615 85.4768 449.449 86.7755 449.118V450.548C85.4768 450.824 84.1849 450.962 82.9 450.962C81.6151 450.962 80.5651 450.72 79.75 450.237C78.9486 449.739 78.548 448.959 78.548 447.895V443.937C78.548 442.707 78.9003 441.83 79.6049 441.305C80.3095 440.78 81.4355 440.517 82.9829 440.517C84.4336 440.517 85.4906 440.773 86.1537 441.284C86.8307 441.781 87.1692 442.666 87.1692 443.937V446.154ZM85.3041 444.931V443.356C85.3041 442.748 85.1175 442.334 84.7445 442.113C84.3853 441.878 83.7843 441.761 82.9415 441.761C82.0849 441.761 81.4493 441.871 81.0349 442.092C80.6342 442.299 80.4339 442.721 80.4339 443.356V444.931H85.3041ZM90.4055 450.755V440.724H92.2706V445.056C92.7542 445.056 93.1203 444.987 93.369 444.848C93.6315 444.71 93.9148 444.399 94.2187 443.916L95.2342 442.279C95.6211 441.643 96.0148 441.229 96.4155 441.035C96.83 440.828 97.4172 440.724 98.177 440.724H98.8817V441.781H98.4879C97.7833 441.781 97.203 442.147 96.7471 442.88L95.9595 444.165C95.476 445.007 94.9786 445.491 94.4674 445.615C94.8543 445.712 95.6141 446.389 96.7471 447.646L99.5448 450.755H97.2445L94.5089 447.646C94.1082 447.19 93.7421 446.852 93.4105 446.631C93.0789 446.41 92.8578 446.292 92.7473 446.278C92.6368 446.265 92.4779 446.258 92.2706 446.258V450.755H90.4055ZM108.497 450.672C107.585 450.865 106.514 450.962 105.284 450.962C104.677 450.962 104.2 450.948 103.855 450.921C103.523 450.907 103.136 450.845 102.694 450.734C102.266 450.61 101.934 450.437 101.699 450.216C101.478 449.995 101.285 449.677 101.119 449.263C100.953 448.834 100.87 448.309 100.87 447.688V443.999C100.87 443.446 100.919 442.969 101.015 442.569C101.126 442.168 101.292 441.843 101.513 441.595C101.734 441.346 101.962 441.146 102.197 440.994C102.431 440.842 102.749 440.738 103.15 440.683C103.564 440.614 103.924 440.572 104.228 440.559C104.545 440.531 104.967 440.517 105.492 440.517C106.445 440.517 107.398 440.621 108.352 440.828V442.196C107.274 441.919 106.245 441.781 105.264 441.781C104.2 441.781 103.516 441.892 103.212 442.113C102.922 442.334 102.777 442.873 102.777 443.729V447.874C102.777 448.606 102.95 449.09 103.295 449.325C103.64 449.546 104.366 449.656 105.471 449.656C106.452 449.656 107.461 449.525 108.497 449.263V450.672ZM119.188 450.755H117.385V449.802C117.233 450.575 116.224 450.962 114.359 450.962C112.977 450.962 112.017 450.755 111.478 450.34C110.953 449.912 110.691 449.055 110.691 447.771C110.691 446.651 110.939 445.885 111.437 445.47C111.934 445.042 112.894 444.828 114.317 444.828H117.323V443.232C117.323 442.679 117.15 442.306 116.804 442.113C116.473 441.919 115.837 441.823 114.898 441.823C113.875 441.823 112.729 441.906 111.458 442.071V440.704C112.825 440.579 114.062 440.517 115.167 440.517C116.853 440.517 117.944 440.724 118.442 441.139C118.939 441.54 119.188 442.382 119.188 443.667V450.755ZM117.323 448.765V445.988H114.442C113.585 445.988 113.046 446.099 112.825 446.32C112.618 446.541 112.514 447.045 112.514 447.833C112.514 448.551 112.625 449.055 112.846 449.346C113.081 449.636 113.565 449.781 114.297 449.781H114.67C115.029 449.781 115.326 449.774 115.561 449.76C115.81 449.746 116.086 449.712 116.39 449.656C116.694 449.587 116.922 449.484 117.074 449.346C117.24 449.194 117.323 449 117.323 448.765ZM131.645 453.532H129.842V450.755H122.961V440.724H124.826V449.387H129.78V440.724H131.645V453.532ZM137.84 450.755H135.415V440.724H137.176V448.828L142.15 440.724H144.575V450.755H142.813V442.465L137.84 450.755ZM149.479 450.755H147.013L150.909 446.486C148.865 446.486 147.842 445.788 147.842 444.393V443.315C147.842 442.265 148.077 441.574 148.547 441.242C149.017 440.897 149.942 440.724 151.324 440.724H156.463V450.755H154.598V446.734H152.92L149.479 450.755ZM149.728 443.481V443.771C149.728 444.503 149.818 444.966 149.998 445.159C150.191 445.353 150.55 445.449 151.075 445.449H154.598V442.009H151.51C150.764 442.009 150.281 442.113 150.06 442.32C149.839 442.514 149.728 442.9 149.728 443.481Z" fill="#132436"/>
<rect x="333.095" y="427.574" width="61.9053" height="32.3621" rx="6.47632" fill="#FEB614"/>
<path d="M352.431 446.11H346.465V445.62L353.374 436.88H353.737V444.931H355.35V446.11H353.737V449.755H352.431V446.11ZM352.431 444.931V439.999L348.514 444.931H352.431ZM357.98 454.107H356.638L361.135 437.061H362.477L357.98 454.107ZM366.797 438.748L364.422 439.654V438.294L368.103 436.88V449.755H366.797V438.748ZM376.161 449.864C375.509 449.864 374.922 449.713 374.402 449.41C373.883 449.096 373.447 448.661 373.097 448.105C372.746 447.537 372.474 446.86 372.281 446.074C372.099 445.276 372.009 444.393 372.009 443.426C372.009 442.387 372.112 441.468 372.317 440.67C372.535 439.86 372.831 439.183 373.206 438.639C373.58 438.083 374.016 437.666 374.511 437.388C375.007 437.098 375.539 436.952 376.107 436.952C376.76 436.952 377.34 437.11 377.848 437.424C378.368 437.726 378.803 438.161 379.153 438.73C379.516 439.286 379.788 439.963 379.969 440.761C380.151 441.546 380.242 442.423 380.242 443.39C380.242 444.43 380.133 445.354 379.915 446.164C379.71 446.962 379.419 447.639 379.045 448.195C378.682 448.739 378.253 449.156 377.757 449.447C377.262 449.725 376.73 449.864 376.161 449.864ZM376.161 448.594C376.524 448.594 376.869 448.498 377.195 448.304C377.534 448.111 377.824 447.809 378.065 447.398C378.319 446.974 378.519 446.436 378.664 445.784C378.809 445.119 378.881 444.321 378.881 443.39C378.881 442.507 378.809 441.74 378.664 441.087C378.531 440.434 378.344 439.896 378.102 439.473C377.86 439.05 377.57 438.736 377.231 438.53C376.893 438.325 376.518 438.222 376.107 438.222C375.744 438.222 375.394 438.319 375.055 438.512C374.729 438.705 374.439 439.014 374.185 439.437C373.931 439.848 373.732 440.386 373.586 441.051C373.441 441.704 373.369 442.495 373.369 443.426C373.369 444.321 373.435 445.095 373.568 445.747C373.713 446.388 373.907 446.92 374.149 447.343C374.402 447.766 374.699 448.081 375.037 448.286C375.376 448.492 375.75 448.594 376.161 448.594Z" fill="white"/>
<defs>
<clipPath id="clip0_1353_603">
<rect width="68" height="54" fill="white" transform="translate(20 30)"/>
</clipPath>
<clipPath id="clip1_1353_603">
<rect width="7.77159" height="14.2479" fill="white" transform="translate(20 210.057)"/>
</clipPath>
<clipPath id="clip2_1353_603">
<rect width="7.77159" height="14.2479" fill="white" transform="translate(20 255.372)"/>
</clipPath>
<clipPath id="clip3_1353_603">
<rect width="7.77159" height="14.2479" fill="white" transform="translate(20 300.687)"/>
</clipPath>
<clipPath id="clip4_1353_603">
<rect width="7.77159" height="14.2479" fill="white" transform="translate(20 346.001)"/>
</clipPath>
<clipPath id="clip5_1353_603">
<rect width="7.77159" height="14.2479" fill="white" transform="translate(20 391.316)"/>
</clipPath>
<clipPath id="clip6_1353_603">
<rect width="7.77159" height="14.2479" fill="white" transform="translate(20 436.631)"/>
</clipPath>
</defs>
</svg>
