<svg width="414" height="495" viewBox="0 0 414 495" fill="none" xmlns="http://www.w3.org/2000/svg">
<rect width="414" height="495" fill="white"/>
<path d="M107.351 70.8544H100.653L91.1231 43.6079H96.0604L103.677 66.0621H104.442L112.327 43.6079H117.188L107.351 70.8544Z" fill="black"/>
<path d="M129.939 56.748L142.34 70.8544H136.293L126.189 59.1828H125.04V70.8544H120.447V43.6079H125.04V54.6997H126.15L135.719 43.6079H141.383L129.939 56.748Z" fill="black"/>
<path d="M153.264 70.8544V43.6079H162.833C164.67 43.6079 166.329 44.0072 167.808 44.806C169.314 45.5789 170.488 46.661 171.33 48.0524C172.172 49.4437 172.593 51.0282 172.593 52.806C172.593 54.558 172.172 56.1426 171.33 57.5596C170.488 58.951 169.314 60.046 167.808 60.8447C166.329 61.6176 164.67 62.0041 162.833 62.0041H157.857V70.8544H153.264ZM162.833 57.7529C164.338 57.7529 165.55 57.302 166.469 56.4002C167.413 55.4727 167.885 54.2746 167.885 52.806C167.885 51.3374 167.413 50.1522 166.469 49.2504C165.55 48.3229 164.338 47.8591 162.833 47.8591H157.857V57.7529H162.833Z" fill="black"/>
<path d="M194.827 60.5741C194.827 60.9606 194.802 61.4373 194.751 62.0041H178.752C178.957 63.5758 179.594 64.8383 180.666 65.7916C181.738 66.7191 183.103 67.1829 184.761 67.1829C185.884 67.1829 186.892 66.9639 187.785 66.5259C188.704 66.0879 189.405 65.4953 189.89 64.7481L194.024 65.4437C193.309 67.2988 192.072 68.7288 190.311 69.7336C188.576 70.7384 186.637 71.2409 184.493 71.2409C182.503 71.2409 180.717 70.8029 179.135 69.9268C177.579 69.0251 176.354 67.7883 175.461 66.2167C174.593 64.6193 174.16 62.8157 174.16 60.806C174.16 58.7964 174.593 57.0057 175.461 55.434C176.354 53.8366 177.579 52.5999 179.135 51.7239C180.717 50.8221 182.503 50.3712 184.493 50.3712C186.484 50.3712 188.257 50.8221 189.814 51.7239C191.396 52.5999 192.62 53.8237 193.488 55.3954C194.381 56.9413 194.827 58.6675 194.827 60.5741ZM184.493 54.236C183.167 54.236 182.006 54.6224 181.011 55.3954C180.041 56.1683 179.378 57.2118 179.02 58.5258H190.043C189.66 57.2376 188.972 56.207 187.976 55.434C187.007 54.6353 185.846 54.236 184.493 54.236Z" fill="black"/>
<path d="M216.399 70.8544H210.62L203.73 62.8544H202.659V70.8544H198.257V50.7577H202.659V58.5645H203.73L210.39 50.7577H215.634L207.252 60.4196L216.399 70.8544Z" fill="black"/>
<path d="M221.798 50.7577H236.38V70.8544H231.979V54.8157H225.893L225.434 63.2795C225.306 65.7529 224.656 67.6724 223.482 69.038C222.334 70.3777 220.765 71.0476 218.774 71.0476C218.264 71.0476 217.677 71.009 217.014 70.9317L216.593 66.6805C216.899 66.7062 217.448 66.7191 218.239 66.7191C219.208 66.7191 219.897 66.4743 220.305 65.9848C220.739 65.4695 220.994 64.5935 221.071 63.3568L221.798 50.7577Z" fill="black"/>
<path d="M249.467 50.3712C252.018 50.3712 254.021 51.1828 255.476 52.806C256.956 54.4034 257.696 56.6579 257.696 59.5693V70.8544H254.442L253.524 67.6853C252.962 68.6386 252.133 69.476 251.036 70.1974C249.939 70.893 248.638 71.2409 247.132 71.2409C245.805 71.2409 244.606 70.9703 243.534 70.4293C242.488 69.8882 241.672 69.1281 241.085 68.1491C240.498 67.17 240.204 66.0621 240.204 64.8254C240.204 62.9188 240.944 61.3986 242.424 60.265C243.93 59.1055 246.111 58.5258 248.969 58.5258H253.256C253.154 57.186 252.746 56.1297 252.031 55.3567C251.342 54.558 250.411 54.1587 249.237 54.1587C248.293 54.1587 247.477 54.3905 246.788 54.8543C246.099 55.3181 245.588 55.8849 245.257 56.5548L241.2 55.8592C241.684 54.1587 242.68 52.8189 244.185 51.8398C245.716 50.8607 247.477 50.3712 249.467 50.3712ZM248.165 67.4921C249.696 67.4921 250.934 66.9896 251.878 65.9848C252.822 64.98 253.294 63.6531 253.294 62.0041H249.122C246.137 62.0041 244.644 62.8801 244.644 64.6321C244.644 65.5081 244.963 66.2038 245.601 66.7191C246.239 67.2344 247.094 67.4921 248.165 67.4921Z" fill="black"/>
<path d="M266.681 70.8544H262.471V50.7577H269.322L273.915 64.5548H274.527L279.311 50.7577H286.009V70.8544H281.799V55.9364H281.187L275.981 70.8544H272.269L267.293 55.9364H266.681V70.8544Z" fill="black"/>
<path d="M299.103 50.3712C301.655 50.3712 303.658 51.1828 305.112 52.806C306.592 54.4034 307.332 56.6579 307.332 59.5693V70.8544H304.079L303.16 67.6853C302.599 68.6386 301.77 69.476 300.672 70.1974C299.575 70.893 298.274 71.2409 296.769 71.2409C295.442 71.2409 294.242 70.9703 293.171 70.4293C292.125 69.8882 291.308 69.1281 290.721 68.1491C290.134 67.17 289.841 66.0621 289.841 64.8254C289.841 62.9188 290.581 61.3986 292.061 60.265C293.566 59.1055 295.748 58.5258 298.606 58.5258H302.892C302.79 57.186 302.382 56.1297 301.668 55.3567C300.979 54.558 300.047 54.1587 298.874 54.1587C297.93 54.1587 297.113 54.3905 296.424 54.8543C295.735 55.3181 295.225 55.8849 294.893 56.5548L290.836 55.8592C291.321 54.1587 292.316 52.8189 293.821 51.8398C295.352 50.8607 297.113 50.3712 299.103 50.3712ZM297.802 67.4921C299.333 67.4921 300.57 66.9896 301.515 65.9848C302.459 64.98 302.931 63.6531 302.931 62.0041H298.759C295.773 62.0041 294.281 62.8801 294.281 64.6321C294.281 65.5081 294.6 66.2038 295.238 66.7191C295.875 67.2344 296.73 67.4921 297.802 67.4921Z" fill="black"/>
<path d="M20 55.92C20 43.7012 20 37.5918 23.7592 33.7959C27.5184 30 33.5688 30 45.6694 30H47.8085C59.9092 30 65.9596 30 69.7188 33.7959C73.478 37.5918 73.478 43.7012 73.478 55.92V58.08C73.478 70.2988 73.478 76.4082 69.7188 80.2041C65.9596 84 59.9092 84 47.8085 84H45.6694C33.5688 84 27.5184 84 23.7592 80.2041C20 76.4082 20 70.2988 20 58.08V55.92Z" fill="#0077FF"/>
<path d="M63.8519 57C63.8519 66.5435 56.1902 74.28 46.739 74.28C37.2878 74.28 29.626 66.5435 29.626 57C29.626 47.4565 37.2878 39.72 46.739 39.72C56.1902 39.72 63.8519 47.4565 63.8519 57Z" fill="#00D3E6"/>
<path d="M67.7328 45.0007C69.0323 43.6885 68.1963 41.4416 66.3625 41.3182L62.4697 41.0872L62.3042 37.2203C62.182 35.3686 59.9568 34.5244 58.6573 35.8366L53.6407 40.9021C53.063 41.4855 52.7811 42.3036 52.8755 43.1232L53.2918 46.7386L49.1011 50.9701C48.3686 50.6764 47.5699 50.5149 46.7338 50.5149C43.1896 50.5149 40.3164 53.4161 40.3164 56.9949C40.3164 60.5737 43.1896 63.4749 46.7338 63.4749C50.278 63.4749 53.1511 60.5737 53.1511 56.9949C53.1511 56.2517 53.0272 55.5377 52.7991 54.8728L57.0733 50.5569L60.5167 50.839C61.3283 50.9343 62.1385 50.6496 62.7163 50.0662L67.7328 45.0007Z" fill="white"/>
<path d="M24.637 124.234H20.4922V120.866H32.7454V124.234H28.6265V139H24.637V124.234ZM40.1436 120.789H43.304L50.5575 139H46.3609L44.9879 135.321H38.2784L36.9054 139H32.9937L40.1436 120.789ZM39.4441 132.187H43.7962L41.6202 126.384L39.4441 132.187ZM58.8324 120.866C60.9049 120.866 62.5369 121.367 63.7285 122.369C64.9202 123.353 65.516 124.778 65.516 126.643C65.516 127.576 65.3606 128.413 65.0497 129.156C64.7388 129.899 64.2812 130.529 63.6767 131.047C63.0895 131.565 62.3642 131.971 61.5007 132.265C60.6544 132.541 59.6959 132.679 58.6252 132.679H57.1745V139H53.1851V120.866H58.8324ZM58.418 129.286C59.4887 129.286 60.2659 129.044 60.7494 128.56C61.233 128.059 61.4748 127.455 61.4748 126.747C61.4748 126.056 61.2416 125.469 60.7753 124.985C60.309 124.484 59.506 124.234 58.3661 124.234H57.1745V129.286H58.418ZM68.7556 120.866H79.1177V124.234H72.745V139H68.7556V120.866ZM82.0745 120.866L92.4108 120.866V124.234L86.064 124.234V127.835L91.2709 127.835V131.125H86.064V135.632H92.6698V139H82.0745V120.866ZM98.7201 124.234H94.5753V120.866H106.828V124.234H102.71V139H98.7201V124.234ZM109.775 120.866H113.764V131.85L122.754 120.866H125.292V139H121.277V128.042L112.314 139H109.775V120.866ZM135.344 120.866C137.417 120.866 139.049 121.367 140.24 122.369C141.432 123.353 142.028 124.778 142.028 126.643C142.028 127.576 141.872 128.413 141.561 129.156C141.251 129.899 140.793 130.529 140.188 131.047C139.601 131.565 138.876 131.971 138.012 132.265C137.166 132.541 136.208 132.679 135.137 132.679H133.686V139H129.697V120.866H135.344ZM134.93 129.286C136 129.286 136.778 129.044 137.261 128.56C137.745 128.059 137.986 127.455 137.986 126.747C137.986 126.056 137.753 125.469 137.287 124.985C136.821 124.484 136.018 124.234 134.878 124.234H133.686V129.286H134.93ZM153.868 135.84C154.662 135.84 155.396 135.71 156.07 135.451C156.743 135.175 157.322 134.786 157.805 134.285C158.306 133.767 158.695 133.145 158.971 132.42C159.265 131.677 159.412 130.84 159.412 129.907C159.412 128.992 159.273 128.172 158.997 127.446C158.721 126.704 158.332 126.082 157.831 125.581C157.348 125.063 156.769 124.666 156.096 124.389C155.422 124.113 154.68 123.975 153.868 123.975C153.056 123.975 152.314 124.113 151.64 124.389C150.966 124.648 150.379 125.037 149.878 125.555C149.395 126.056 149.015 126.678 148.739 127.42C148.462 128.146 148.324 128.975 148.324 129.907C148.324 130.823 148.454 131.652 148.713 132.394C148.989 133.119 149.369 133.741 149.853 134.259C150.353 134.76 150.941 135.149 151.614 135.425C152.305 135.701 153.056 135.84 153.868 135.84ZM153.868 139.207C152.383 139.207 151.044 138.983 149.853 138.534C148.678 138.085 147.668 137.454 146.822 136.643C145.975 135.814 145.328 134.829 144.879 133.689C144.43 132.55 144.205 131.289 144.205 129.907C144.205 128.595 144.43 127.377 144.879 126.255C145.328 125.115 145.967 124.13 146.796 123.301C147.642 122.455 148.661 121.799 149.853 121.333C151.044 120.849 152.383 120.607 153.868 120.607C155.301 120.607 156.614 120.832 157.805 121.281C158.997 121.73 160.016 122.369 160.862 123.198C161.708 124.009 162.365 124.994 162.831 126.151C163.297 127.291 163.531 128.552 163.531 129.933C163.531 131.246 163.297 132.472 162.831 133.612C162.382 134.734 161.734 135.71 160.888 136.539C160.059 137.368 159.049 138.024 157.857 138.508C156.666 138.974 155.336 139.207 153.868 139.207ZM166.884 120.866H173.283C174.232 120.866 175.053 120.979 175.744 121.203C176.452 121.41 177.039 121.704 177.505 122.084C177.971 122.464 178.317 122.921 178.541 123.457C178.766 123.992 178.878 124.571 178.878 125.192C178.878 126.142 178.654 126.945 178.205 127.602C177.773 128.241 177.212 128.733 176.521 129.078C177.643 129.337 178.515 129.847 179.137 130.607C179.776 131.349 180.096 132.299 180.096 133.456C180.096 134.268 179.94 135.011 179.629 135.684C179.319 136.358 178.878 136.945 178.308 137.446C177.738 137.929 177.048 138.309 176.236 138.586C175.424 138.862 174.517 139 173.516 139H166.884V120.866ZM170.873 131.073V135.632H172.635C173.827 135.632 174.673 135.425 175.174 135.011C175.675 134.579 175.925 134.009 175.925 133.301C175.925 132.575 175.683 132.023 175.2 131.643C174.733 131.263 174.06 131.073 173.179 131.073H170.873ZM170.873 124.234V128.12H172.609C173.334 128.12 173.896 127.947 174.293 127.602C174.707 127.239 174.915 126.73 174.915 126.073C174.915 124.847 174.172 124.234 172.687 124.234H170.873ZM188.196 120.789H191.357L198.61 139H194.414L193.041 135.321H186.331L184.958 139H181.047L188.196 120.789ZM187.497 132.187H191.849L189.673 126.384L187.497 132.187ZM212.429 131.177H205.227V139H201.238V120.866H205.227V127.783H212.429V120.866H216.418V139H212.429V131.177ZM232.022 131.177H224.82V139H220.831V120.866H224.82V127.783H232.022V120.866H236.011V139H232.022V131.177ZM245.786 120.789H248.947L256.2 139H252.003L250.63 135.321H243.921L242.548 139H238.636L245.786 120.789ZM245.087 132.187H249.439L247.263 126.384L245.087 132.187ZM257.066 138.482L261.34 131.384C260.563 130.935 259.95 130.313 259.501 129.519C259.069 128.707 258.853 127.757 258.853 126.669C258.853 125.771 259.009 124.968 259.32 124.26C259.631 123.535 260.062 122.921 260.615 122.421C261.185 121.92 261.867 121.54 262.662 121.281C263.473 121.004 264.371 120.866 265.356 120.866H271.262V139H267.273V132.291H265.2L261.366 139H257.066V138.482ZM267.273 128.897V124.234H265.589C264.725 124.234 264.069 124.467 263.62 124.933C263.171 125.382 262.947 125.935 262.947 126.591C262.947 127.23 263.162 127.774 263.594 128.223C264.043 128.672 264.734 128.897 265.667 128.897H267.273ZM27.5903 151.866C29.6627 151.866 31.2947 152.367 32.4864 153.369C33.678 154.353 34.2738 155.778 34.2738 157.643C34.2738 158.576 34.1184 159.413 33.8075 160.156C33.4967 160.899 33.039 161.529 32.4345 162.047C31.8474 162.565 31.122 162.971 30.2585 163.265C29.4123 163.541 28.4538 163.679 27.383 163.679H25.9323V170H21.9429V151.866H27.5903ZM27.1758 160.286C28.2465 160.286 29.0237 160.044 29.5072 159.56C29.9908 159.059 30.2326 158.455 30.2326 157.747C30.2326 157.056 29.9994 156.469 29.5331 155.985C29.0669 155.484 28.2638 155.234 27.124 155.234H25.9323V160.286H27.1758ZM37.5134 151.866H47.8496V155.234H41.5028V158.835H46.7098V162.125H41.5028V166.632H48.1087V170H37.5134V151.866ZM55.4542 158.757H56.5941L61.0757 151.866H65.35V152.384L60.0395 159.923L67.008 169.482V170H62.3709L56.7495 162.177H55.4542V170H51.4648V151.866H55.4542V158.757ZM69.0464 170.207C68.8564 170.207 68.6751 170.199 68.5024 170.181C68.347 170.164 68.2002 170.138 68.062 170.104L68.0361 166.555C68.2088 166.589 68.347 166.606 68.4506 166.606C68.9514 166.606 69.3659 166.416 69.694 166.036C70.0394 165.639 70.3071 165.035 70.4971 164.223C70.7044 163.394 70.8511 162.341 70.9375 161.063C71.0238 159.785 71.067 158.265 71.067 156.503V151.866H83.1907V170H79.2013V155.208H74.7974V159.016C74.7974 161.019 74.6765 162.729 74.4347 164.145C74.1929 165.562 73.8303 166.719 73.3467 167.617C72.8631 168.515 72.2587 169.171 71.5333 169.586C70.8252 170 69.9963 170.207 69.0464 170.207ZM92.9519 151.789H96.1124L103.366 170H99.1692L97.7962 166.321H91.0868L89.7138 170H85.8021L92.9519 151.789ZM92.2525 163.187H96.6046L94.4285 157.384L92.2525 163.187ZM107.366 151.866H110.734L115.527 163.42L120.112 151.866H123.454L125.992 170H122.132L120.63 159.172L116.252 170H114.672L110.19 159.275L108.817 170H105.087L107.366 151.866ZM134.845 151.789H138.005L145.259 170H141.062L139.689 166.321H132.979L131.606 170H127.695L134.845 151.789ZM134.145 163.187H138.497L136.321 157.384L134.145 163.187Z" fill="#132436"/>
<g clip-path="url(#clip0_1353_562)">
<circle cx="23.8858" cy="219.772" r="3.88579" fill="#007CFF"/>
</g>
<path d="M42.3204 224.181V214.151H44.1856V218.482C44.6691 218.482 45.0353 218.413 45.2839 218.275C45.5464 218.136 45.8297 217.826 46.1336 217.342L47.1491 215.705C47.536 215.069 47.9297 214.655 48.3304 214.461C48.7449 214.254 49.3321 214.151 50.092 214.151H50.7966V215.207H50.4028C49.6982 215.207 49.1179 215.574 48.662 216.306L47.8745 217.591C47.3909 218.434 46.8935 218.917 46.3823 219.041C46.7692 219.138 47.5291 219.815 48.662 221.072L51.4598 224.181H49.1594L46.4238 221.072C46.0231 220.616 45.657 220.278 45.3254 220.057C44.9938 219.836 44.7727 219.718 44.6622 219.705C44.5517 219.691 44.3928 219.684 44.1856 219.684V224.181H42.3204ZM61.0748 224.181H59.2718V223.228C59.1198 224.001 58.1113 224.388 56.2461 224.388C54.8645 224.388 53.9043 224.181 53.3654 223.767C52.8404 223.338 52.5779 222.482 52.5779 221.197C52.5779 220.078 52.8266 219.311 53.324 218.896C53.8214 218.468 54.7816 218.254 56.2046 218.254H59.2097V216.658C59.2097 216.106 59.037 215.732 58.6915 215.539C58.36 215.346 57.7244 215.249 56.7849 215.249C55.7625 215.249 54.6158 215.332 53.3447 215.498V214.13C54.7125 214.005 55.949 213.943 57.0543 213.943C58.7399 213.943 59.8314 214.151 60.3288 214.565C60.8261 214.966 61.0748 215.808 61.0748 217.093V224.181ZM59.2097 222.192V219.414H56.329C55.4724 219.414 54.9336 219.525 54.7125 219.746C54.5053 219.967 54.4016 220.471 54.4016 221.259C54.4016 221.977 54.5122 222.482 54.7332 222.772C54.9681 223.062 55.4517 223.207 56.1839 223.207H56.557C56.9162 223.207 57.2132 223.2 57.4481 223.186C57.6968 223.172 57.9731 223.138 58.2771 223.083C58.581 223.014 58.809 222.91 58.961 222.772C59.1268 222.62 59.2097 222.426 59.2097 222.192ZM73.3661 224.181H71.5424V219.58C71.3489 220.534 70.2367 221.01 68.2058 221.01C66.8794 221.01 65.9675 220.775 65.4702 220.306C64.9728 219.822 64.7241 219.097 64.7241 218.13V214.151H66.5893V218.026C66.5893 218.275 66.61 218.482 66.6514 218.648C66.6929 218.813 66.7758 218.986 66.9001 219.166C67.0383 219.332 67.2593 219.463 67.5633 219.56C67.8811 219.642 68.2748 219.684 68.7446 219.684C69.8361 219.684 70.5683 219.566 70.9414 219.332C71.3144 219.097 71.5009 218.662 71.5009 218.026V214.151H73.3661V224.181ZM85.2668 219.58H78.5314V221.093C78.5314 221.798 78.7801 222.302 79.2775 222.606C79.7887 222.896 80.5555 223.041 81.5779 223.041C82.476 223.041 83.5743 222.875 84.8731 222.544V223.974C83.5743 224.25 82.2825 224.388 80.9976 224.388C79.7127 224.388 78.6627 224.147 77.8475 223.663C77.0462 223.166 76.6455 222.385 76.6455 221.321V217.363C76.6455 216.133 76.9978 215.256 77.7025 214.731C78.4071 214.206 79.5331 213.943 81.0805 213.943C82.5312 213.943 83.5882 214.199 84.2513 214.71C84.9283 215.207 85.2668 216.092 85.2668 217.363V219.58ZM83.4016 218.358V216.783C83.4016 216.175 83.2151 215.76 82.8421 215.539C82.4829 215.304 81.8819 215.187 81.0391 215.187C80.1825 215.187 79.5469 215.297 79.1324 215.518C78.7318 215.726 78.5314 216.147 78.5314 216.783V218.358H83.4016ZM95.7772 224.098C94.8654 224.292 93.7946 224.388 92.565 224.388C91.9571 224.388 91.4804 224.374 91.135 224.347C90.8034 224.333 90.4166 224.271 89.9745 224.16C89.5462 224.036 89.2146 223.863 88.9797 223.642C88.7586 223.421 88.5652 223.103 88.3994 222.689C88.2336 222.261 88.1507 221.736 88.1507 221.114V217.425C88.1507 216.872 88.1991 216.396 88.2958 215.995C88.4063 215.594 88.5721 215.27 88.7932 215.021C89.0142 214.772 89.2422 214.572 89.4771 214.42C89.7119 214.268 90.0297 214.164 90.4304 214.109C90.8449 214.04 91.2041 213.999 91.508 213.985C91.8258 213.957 92.2472 213.943 92.7722 213.943C93.7255 213.943 94.6789 214.047 95.6322 214.254V215.622C94.5545 215.346 93.5252 215.207 92.5443 215.207C91.4804 215.207 90.7965 215.318 90.4926 215.539C90.2024 215.76 90.0574 216.299 90.0574 217.156V221.3C90.0574 222.033 90.2301 222.516 90.5755 222.751C90.9209 222.972 91.6462 223.083 92.7515 223.083C93.7324 223.083 94.741 222.951 95.7772 222.689V224.098ZM107.152 215.518H103.235V224.181H101.37V215.518H97.4324V214.151H107.152V215.518ZM118.687 220.927V221.528C118.687 222.523 118.369 223.214 117.734 223.601C117.112 223.988 115.979 224.181 114.335 224.181H109.797V214.151H114.19C115.074 214.151 115.786 214.206 116.325 214.316C116.877 214.413 117.271 214.586 117.506 214.834C117.755 215.083 117.914 215.332 117.983 215.581C118.052 215.829 118.086 216.168 118.086 216.596V216.948C118.086 217.501 117.941 217.909 117.651 218.171C117.361 218.42 116.905 218.613 116.283 218.751V218.834C117.886 219.097 118.687 219.794 118.687 220.927ZM116.304 216.886V216.762C116.304 216.237 116.18 215.884 115.931 215.705C115.682 215.525 115.136 215.435 114.294 215.435H111.662V218.378H114.356C115.185 218.378 115.717 218.275 115.952 218.067C116.187 217.86 116.304 217.466 116.304 216.886ZM116.781 221.466V220.803C116.781 220.444 116.629 220.154 116.325 219.933C116.035 219.712 115.44 219.601 114.542 219.601H111.662V222.834H114.439C115.406 222.834 116.035 222.737 116.325 222.544C116.629 222.35 116.781 221.991 116.781 221.466ZM130.837 217.529V221.01C130.837 221.632 130.761 222.157 130.609 222.585C130.457 223.014 130.263 223.345 130.028 223.58C129.794 223.815 129.455 223.995 129.013 224.119C128.585 224.243 128.17 224.319 127.769 224.347C127.383 224.374 126.865 224.388 126.215 224.388C125.386 224.388 124.737 224.361 124.267 224.305C123.811 224.25 123.348 224.119 122.879 223.912C122.423 223.691 122.091 223.345 121.884 222.875C121.69 222.406 121.594 221.784 121.594 221.01V217.529C121.594 216.865 121.67 216.306 121.822 215.85C121.987 215.394 122.181 215.042 122.402 214.793C122.637 214.544 122.975 214.358 123.417 214.233C123.859 214.095 124.267 214.012 124.64 213.985C125.027 213.957 125.552 213.943 126.215 213.943C126.878 213.943 127.396 213.957 127.769 213.985C128.156 214.012 128.571 214.095 129.013 214.233C129.455 214.358 129.787 214.544 130.008 214.793C130.243 215.042 130.436 215.394 130.588 215.85C130.754 216.306 130.837 216.865 130.837 217.529ZM128.93 221.28V217.218C128.93 216.292 128.744 215.719 128.37 215.498C127.997 215.277 127.279 215.166 126.215 215.166C125.151 215.166 124.433 215.277 124.06 215.498C123.687 215.719 123.5 216.292 123.5 217.218V221.28C123.5 221.722 123.549 222.074 123.645 222.337C123.742 222.599 123.922 222.793 124.184 222.917C124.447 223.027 124.716 223.096 124.992 223.124C125.269 223.152 125.676 223.166 126.215 223.166C126.754 223.166 127.162 223.152 127.438 223.124C127.714 223.096 127.984 223.027 128.246 222.917C128.509 222.793 128.688 222.599 128.785 222.337C128.882 222.074 128.93 221.722 128.93 221.28ZM148.221 217.529V221.01C148.221 221.632 148.145 222.157 147.993 222.585C147.841 223.014 147.647 223.345 147.412 223.58C147.178 223.815 146.839 223.995 146.397 224.119C145.969 224.243 145.554 224.319 145.154 224.347C144.767 224.374 144.249 224.388 143.599 224.388C142.77 224.388 142.121 224.361 141.651 224.305C141.195 224.25 140.732 224.119 140.263 223.912C139.807 223.691 139.475 223.345 139.268 222.875C139.074 222.406 138.978 221.784 138.978 221.01V217.529C138.978 216.865 139.054 216.306 139.206 215.85C139.371 215.394 139.565 215.042 139.786 214.793C140.021 214.544 140.359 214.358 140.801 214.233C141.244 214.095 141.651 214.012 142.024 213.985C142.411 213.957 142.936 213.943 143.599 213.943C144.262 213.943 144.781 213.957 145.154 213.985C145.54 214.012 145.955 214.095 146.397 214.233C146.839 214.358 147.171 214.544 147.392 214.793C147.627 215.042 147.82 215.394 147.972 215.85C148.138 216.306 148.221 216.865 148.221 217.529ZM146.314 221.28V217.218C146.314 216.292 146.128 215.719 145.755 215.498C145.382 215.277 144.663 215.166 143.599 215.166C142.535 215.166 141.817 215.277 141.444 215.498C141.071 215.719 140.884 216.292 140.884 217.218V221.28C140.884 221.722 140.933 222.074 141.029 222.337C141.126 222.599 141.306 222.793 141.568 222.917C141.831 223.027 142.1 223.096 142.376 223.124C142.653 223.152 143.06 223.166 143.599 223.166C144.138 223.166 144.546 223.152 144.822 223.124C145.098 223.096 145.368 223.027 145.63 222.917C145.893 222.793 146.072 222.599 146.169 222.337C146.266 222.074 146.314 221.722 146.314 221.28ZM160.476 220.948C160.476 221.694 160.359 222.309 160.124 222.793C159.889 223.276 159.537 223.628 159.067 223.849C158.597 224.071 158.127 224.216 157.658 224.285C157.188 224.354 156.608 224.388 155.917 224.388C155.35 224.388 154.874 224.368 154.487 224.326C154.114 224.298 153.713 224.223 153.285 224.098C152.857 223.96 152.518 223.773 152.269 223.539C152.021 223.29 151.813 222.951 151.648 222.523C151.482 222.081 151.399 221.556 151.399 220.948V213.259C151.399 212.61 151.503 212.057 151.71 211.601C151.917 211.132 152.173 210.772 152.477 210.524C152.781 210.261 153.174 210.061 153.658 209.923C154.155 209.785 154.604 209.702 155.005 209.674C155.406 209.633 155.882 209.612 156.435 209.612C157.278 209.612 158.411 209.674 159.834 209.798V211.208C158.369 211.028 157.147 210.938 156.166 210.938C155.088 210.938 154.328 211.076 153.886 211.353C153.458 211.615 153.243 212.237 153.243 213.218V214.814C153.616 214.565 154.141 214.358 154.818 214.192C155.509 214.026 156.124 213.943 156.663 213.943C158.003 213.943 158.97 214.213 159.564 214.752C160.172 215.29 160.476 216.085 160.476 217.135V220.948ZM158.632 221.052V217.156C158.632 216.479 158.466 216.009 158.134 215.746C157.817 215.484 157.181 215.353 156.228 215.353C155.675 215.353 155.102 215.456 154.508 215.663C153.927 215.857 153.506 216.126 153.243 216.472V221.052C153.243 221.95 153.437 222.53 153.824 222.793C154.224 223.041 154.936 223.166 155.958 223.166C156.981 223.166 157.678 223.041 158.051 222.793C158.438 222.544 158.632 221.964 158.632 221.052ZM171.109 224.181H166.591V215.518H162.861V214.151H168.498V217.777H171.275C172.505 217.777 173.396 217.922 173.949 218.212C174.501 218.503 174.778 219.076 174.778 219.933V222.005C174.778 223.456 173.555 224.181 171.109 224.181ZM172.954 221.756V220.492C172.954 219.912 172.829 219.525 172.581 219.332C172.346 219.124 171.828 219.021 171.026 219.021H168.477V222.979L170.985 222.979C171.234 222.979 171.441 222.972 171.607 222.958C171.786 222.931 171.994 222.889 172.228 222.834C172.463 222.765 172.643 222.641 172.767 222.461C172.892 222.268 172.954 222.033 172.954 221.756ZM178.976 224.181H176.51L180.406 219.912C178.361 219.912 177.339 219.214 177.339 217.819V216.741C177.339 215.691 177.573 215 178.043 214.669C178.513 214.323 179.439 214.151 180.82 214.151H185.96V224.181H184.095V220.161H182.416L178.976 224.181ZM179.224 216.907V217.197C179.224 217.929 179.314 218.392 179.494 218.586C179.687 218.779 180.047 218.876 180.572 218.876H184.095V215.435H181.007C180.261 215.435 179.777 215.539 179.556 215.746C179.335 215.94 179.224 216.327 179.224 216.907ZM198.738 220.927V221.528C198.738 222.523 198.42 223.214 197.785 223.601C197.163 223.988 196.03 224.181 194.386 224.181H189.847V214.151H194.241C195.125 214.151 195.836 214.206 196.375 214.316C196.928 214.413 197.322 214.586 197.557 214.834C197.805 215.083 197.964 215.332 198.033 215.581C198.102 215.829 198.137 216.168 198.137 216.596V216.948C198.137 217.501 197.992 217.909 197.702 218.171C197.411 218.42 196.956 218.613 196.334 218.751V218.834C197.936 219.097 198.738 219.794 198.738 220.927ZM196.355 216.886V216.762C196.355 216.237 196.23 215.884 195.982 215.705C195.733 215.525 195.187 215.435 194.344 215.435H191.712V218.378H194.406C195.235 218.378 195.767 218.275 196.002 218.067C196.237 217.86 196.355 217.466 196.355 216.886ZM196.831 221.466V220.803C196.831 220.444 196.679 220.154 196.375 219.933C196.085 219.712 195.491 219.601 194.593 219.601H191.712V222.834H194.489C195.456 222.834 196.085 222.737 196.375 222.544C196.679 222.35 196.831 221.991 196.831 221.466ZM202.598 221.404V214.151H210.618V224.181H208.773V215.518H204.442V221.259C204.442 221.936 204.366 222.489 204.214 222.917C204.076 223.331 203.841 223.642 203.509 223.849C203.192 224.043 202.853 224.167 202.494 224.223C202.135 224.292 201.658 224.326 201.064 224.326C200.788 224.326 200.567 224.319 200.401 224.305V223.145C201.285 223.145 201.872 223.034 202.162 222.813C202.452 222.578 202.598 222.109 202.598 221.404ZM222.52 219.58H215.784V221.093C215.784 221.798 216.033 222.302 216.53 222.606C217.041 222.896 217.808 223.041 218.831 223.041C219.729 223.041 220.827 222.875 222.126 222.544V223.974C220.827 224.25 219.535 224.388 218.25 224.388C216.965 224.388 215.915 224.147 215.1 223.663C214.299 223.166 213.898 222.385 213.898 221.321V217.363C213.898 216.133 214.251 215.256 214.955 214.731C215.66 214.206 216.786 213.943 218.333 213.943C219.784 213.943 220.841 214.199 221.504 214.71C222.181 215.207 222.52 216.092 222.52 217.363V219.58ZM220.654 218.358V216.783C220.654 216.175 220.468 215.76 220.095 215.539C219.736 215.304 219.135 215.187 218.292 215.187C217.435 215.187 216.8 215.297 216.385 215.518C215.984 215.726 215.784 216.147 215.784 216.783V218.358H220.654ZM234.439 224.181H232.574V219.684H227.642V224.181H225.776V214.151H227.642V218.316H232.574V214.151H234.439V224.181ZM240.516 224.181H238.091V214.151H239.853V222.254L244.827 214.151H247.251V224.181H245.49V215.891L240.516 224.181ZM258.85 210.109C258.794 210.883 258.491 211.519 257.938 212.016C257.399 212.5 256.75 212.741 255.99 212.741C255.216 212.741 254.553 212.5 254 212.016C253.461 211.519 253.171 210.883 253.13 210.109H254.912C255.106 210.648 255.292 211.014 255.472 211.208C255.651 211.401 255.969 211.498 256.425 211.498C256.812 211.498 257.116 211.394 257.337 211.187C257.572 210.966 257.765 210.607 257.917 210.109H258.85ZM253.316 224.181H250.892V214.151H252.653V222.254L257.627 214.151H260.052V224.181H258.29V215.891L253.316 224.181Z" fill="#132436"/>
<rect x="334.095" y="201" width="59.9053" height="32.3621" rx="6.47632" fill="#00DC82"/>
<path d="M353.739 211.757H348.009V210.487H355.389V210.85L351.074 223.181H349.714L353.739 211.757ZM357.457 227.533H356.115L360.612 210.487H361.954L357.457 227.533ZM366.274 212.174L363.899 213.081V211.721L367.58 210.306V223.181H366.274V212.174ZM375.638 223.29C374.986 223.29 374.399 223.139 373.88 222.837C373.36 222.522 372.924 222.087 372.574 221.531C372.223 220.963 371.951 220.286 371.758 219.5C371.577 218.702 371.486 217.82 371.486 216.852C371.486 215.813 371.589 214.894 371.794 214.096C372.012 213.286 372.308 212.609 372.683 212.065C373.057 211.509 373.493 211.092 373.988 210.814C374.484 210.524 375.016 210.379 375.584 210.379C376.237 210.379 376.817 210.536 377.325 210.85C377.845 211.152 378.28 211.588 378.631 212.156C378.993 212.712 379.265 213.389 379.447 214.187C379.628 214.973 379.719 215.849 379.719 216.816C379.719 217.856 379.61 218.781 379.392 219.591C379.187 220.388 378.896 221.065 378.522 221.622C378.159 222.166 377.73 222.583 377.234 222.873C376.739 223.151 376.207 223.29 375.638 223.29ZM375.638 222.021C376.001 222.021 376.346 221.924 376.672 221.73C377.011 221.537 377.301 221.235 377.543 220.824C377.796 220.401 377.996 219.863 378.141 219.21C378.286 218.545 378.359 217.747 378.359 216.816C378.359 215.934 378.286 215.166 378.141 214.513C378.008 213.86 377.821 213.322 377.579 212.899C377.337 212.476 377.047 212.162 376.708 211.956C376.37 211.751 375.995 211.648 375.584 211.648C375.221 211.648 374.871 211.745 374.532 211.938C374.206 212.132 373.916 212.44 373.662 212.863C373.408 213.274 373.209 213.812 373.063 214.477C372.918 215.13 372.846 215.922 372.846 216.852C372.846 217.747 372.912 218.521 373.045 219.174C373.19 219.814 373.384 220.346 373.626 220.769C373.88 221.192 374.176 221.507 374.514 221.712C374.853 221.918 375.227 222.021 375.638 222.021Z" fill="white"/>
<g clip-path="url(#clip1_1353_562)">
<circle cx="23.8858" cy="265.086" r="3.88579" fill="#007CFF"/>
</g>
<path d="M51.4805 269.309C50.2785 269.572 49.0212 269.703 47.7087 269.703C43.9369 269.703 42.051 268.487 42.051 266.056V259.673C42.051 257.103 43.9369 255.818 47.7087 255.818C48.9659 255.818 50.1956 255.949 51.3976 256.212V257.704C50.0712 257.372 48.8554 257.206 47.7501 257.206C47.2251 257.206 46.7623 257.241 46.3616 257.31C45.9609 257.365 45.5672 257.476 45.1803 257.642C44.7935 257.794 44.4964 258.042 44.2892 258.388C44.0819 258.719 43.9783 259.141 43.9783 259.652V265.952C43.9783 267.499 45.2632 268.273 47.833 268.273C48.9383 268.273 50.1541 268.107 51.4805 267.776V269.309ZM64.4632 257.455H59.9246V269.496H57.8937V257.455H53.3343V256.046H64.4632V257.455ZM77.3944 269.496H74.9282L71.0735 263.755H69.1254V269.496H67.1151V256.046H71.8403C73.5258 256.046 74.7348 256.218 75.467 256.564C76.1993 256.895 76.5654 257.6 76.5654 258.678V260.999C76.5654 261.828 76.2269 262.456 75.5499 262.885C74.8729 263.299 74.0509 263.507 73.0837 263.507L77.3944 269.496ZM74.5551 260.75V258.885C74.5551 257.876 73.6847 257.372 71.9439 257.372H69.1254V262.429H71.7574C72.7107 262.429 73.4153 262.311 73.8712 262.077C74.3272 261.842 74.5551 261.4 74.5551 260.75ZM94.1556 262.843V266.325C94.1556 266.947 94.0796 267.472 93.9276 267.9C93.7756 268.328 93.5822 268.66 93.3473 268.895C93.1125 269.13 92.774 269.309 92.3318 269.434C91.9035 269.558 91.4891 269.634 91.0884 269.662C90.7015 269.689 90.1834 269.703 89.5341 269.703C88.7051 269.703 88.0557 269.675 87.586 269.62C87.1301 269.565 86.6672 269.434 86.1975 269.226C85.7415 269.005 85.4099 268.66 85.2027 268.19C85.0093 267.72 84.9126 267.099 84.9126 266.325V262.843C84.9126 262.18 84.9886 261.621 85.1405 261.165C85.3063 260.709 85.4998 260.356 85.7208 260.108C85.9557 259.859 86.2942 259.673 86.7363 259.548C87.1784 259.41 87.586 259.327 87.959 259.299C88.3459 259.272 88.8709 259.258 89.5341 259.258C90.1972 259.258 90.7153 259.272 91.0884 259.299C91.4752 259.327 91.8897 259.41 92.3318 259.548C92.774 259.673 93.1055 259.859 93.3266 260.108C93.5615 260.356 93.7549 260.709 93.9069 261.165C94.0727 261.621 94.1556 262.18 94.1556 262.843ZM92.2489 266.594V262.532C92.2489 261.607 92.0624 261.033 91.6894 260.812C91.3164 260.591 90.5979 260.481 89.5341 260.481C88.4702 260.481 87.7518 260.591 87.3787 260.812C87.0057 261.033 86.8192 261.607 86.8192 262.532V266.594C86.8192 267.037 86.8675 267.389 86.9643 267.651C87.061 267.914 87.2406 268.107 87.5031 268.232C87.7656 268.342 88.035 268.411 88.3113 268.439C88.5877 268.467 88.9952 268.48 89.5341 268.48C90.0729 268.48 90.4805 268.467 90.7568 268.439C91.0331 268.411 91.3025 268.342 91.565 268.232C91.8275 268.107 92.0072 267.914 92.1039 267.651C92.2006 267.389 92.2489 267.037 92.2489 266.594ZM106.411 266.263C106.411 267.009 106.294 267.624 106.059 268.107C105.824 268.591 105.472 268.943 105.002 269.164C104.532 269.385 104.062 269.53 103.593 269.599C103.123 269.669 102.543 269.703 101.852 269.703C101.285 269.703 100.809 269.682 100.422 269.641C100.049 269.613 99.648 269.537 99.2197 269.413C98.7914 269.275 98.4529 269.088 98.2042 268.853C97.9556 268.605 97.7483 268.266 97.5825 267.838C97.4167 267.396 97.3338 266.871 97.3338 266.263V258.574C97.3338 257.925 97.4374 257.372 97.6447 256.916C97.8519 256.446 98.1075 256.087 98.4115 255.839C98.7154 255.576 99.1092 255.376 99.5928 255.238C100.09 255.099 100.539 255.016 100.94 254.989C101.341 254.947 101.817 254.927 102.37 254.927C103.213 254.927 104.346 254.989 105.769 255.113V256.522C104.304 256.343 103.081 256.253 102.1 256.253C101.023 256.253 100.263 256.391 99.8207 256.668C99.3924 256.93 99.1783 257.552 99.1783 258.533V260.128C99.5513 259.88 100.076 259.673 100.753 259.507C101.444 259.341 102.059 259.258 102.598 259.258C103.938 259.258 104.905 259.527 105.499 260.066C106.107 260.605 106.411 261.4 106.411 262.45V266.263ZM104.567 266.366V262.47C104.567 261.793 104.401 261.324 104.069 261.061C103.751 260.799 103.116 260.667 102.163 260.667C101.61 260.667 101.037 260.771 100.442 260.978C99.8622 261.172 99.4408 261.441 99.1783 261.786V266.366C99.1783 267.265 99.3717 267.845 99.7586 268.107C100.159 268.356 100.871 268.48 101.893 268.48C102.916 268.48 103.613 268.356 103.986 268.107C104.373 267.859 104.567 267.278 104.567 266.366ZM117.044 269.496H112.526V260.833H108.796V259.465H114.433V263.092H117.21C118.44 263.092 119.331 263.237 119.883 263.527C120.436 263.817 120.712 264.391 120.712 265.247V267.32C120.712 268.77 119.49 269.496 117.044 269.496ZM118.889 267.071V265.807C118.889 265.227 118.764 264.84 118.516 264.646C118.281 264.439 117.763 264.335 116.961 264.335H114.412V268.294H116.92C117.169 268.294 117.376 268.287 117.542 268.273C117.721 268.245 117.928 268.204 118.163 268.149C118.398 268.08 118.578 267.955 118.702 267.776C118.826 267.582 118.889 267.347 118.889 267.071ZM124.911 269.496H122.444L126.341 265.227C124.296 265.227 123.273 264.529 123.273 263.133V262.056C123.273 261.006 123.508 260.315 123.978 259.983C124.448 259.638 125.374 259.465 126.755 259.465H131.895V269.496H130.03V265.475H128.351L124.911 269.496ZM125.159 262.222V262.512C125.159 263.244 125.249 263.707 125.429 263.9C125.622 264.094 125.981 264.19 126.506 264.19H130.03V260.75H126.942C126.196 260.75 125.712 260.854 125.491 261.061C125.27 261.254 125.159 261.641 125.159 262.222ZM144.673 266.242V266.843C144.673 267.838 144.355 268.529 143.719 268.916C143.098 269.302 141.965 269.496 140.321 269.496H135.782V259.465H140.176C141.06 259.465 141.771 259.521 142.31 259.631C142.863 259.728 143.257 259.9 143.491 260.149C143.74 260.398 143.899 260.647 143.968 260.895C144.037 261.144 144.072 261.482 144.072 261.911V262.263C144.072 262.816 143.927 263.223 143.636 263.486C143.346 263.734 142.89 263.928 142.269 264.066V264.149C143.871 264.411 144.673 265.109 144.673 266.242ZM142.289 262.201V262.077C142.289 261.552 142.165 261.199 141.916 261.02C141.668 260.84 141.122 260.75 140.279 260.75H137.647V263.693H140.341C141.17 263.693 141.702 263.589 141.937 263.382C142.172 263.175 142.289 262.781 142.289 262.201ZM142.766 266.781V266.118C142.766 265.759 142.614 265.468 142.31 265.247C142.02 265.026 141.426 264.916 140.528 264.916H137.647V268.149H140.424C141.391 268.149 142.02 268.052 142.31 267.859C142.614 267.665 142.766 267.306 142.766 266.781ZM148.532 266.719V259.465H156.553V269.496H154.708V260.833H150.377V266.574C150.377 267.251 150.301 267.803 150.149 268.232C150.011 268.646 149.776 268.957 149.444 269.164C149.126 269.358 148.788 269.482 148.429 269.537C148.07 269.606 147.593 269.641 146.999 269.641C146.722 269.641 146.501 269.634 146.336 269.62V268.46C147.22 268.46 147.807 268.349 148.097 268.128C148.387 267.893 148.532 267.423 148.532 266.719ZM168.454 264.895L161.719 264.895V266.408C161.719 267.113 161.968 267.617 162.465 267.921C162.976 268.211 163.743 268.356 164.765 268.356C165.664 268.356 166.762 268.19 168.061 267.859V269.289C166.762 269.565 165.47 269.703 164.185 269.703C162.9 269.703 161.85 269.461 161.035 268.978C160.234 268.48 159.833 267.7 159.833 266.636V262.678C159.833 261.448 160.185 260.571 160.89 260.046C161.595 259.521 162.721 259.258 164.268 259.258C165.719 259.258 166.776 259.514 167.439 260.025C168.116 260.522 168.454 261.406 168.454 262.678V264.895ZM166.589 263.672V262.097C166.589 261.489 166.403 261.075 166.03 260.854C165.67 260.619 165.069 260.502 164.227 260.502C163.37 260.502 162.734 260.612 162.32 260.833C161.919 261.04 161.719 261.462 161.719 262.097V263.672H166.589ZM180.374 269.496H178.509V264.999H173.577V269.496H171.711V259.465H173.577V263.631H178.509V259.465H180.374V269.496ZM186.451 269.496H184.026V259.465H185.788V267.568L190.761 259.465H193.186V269.496H191.425V261.206L186.451 269.496ZM204.785 255.424C204.729 256.198 204.425 256.833 203.873 257.331C203.334 257.814 202.685 258.056 201.925 258.056C201.151 258.056 200.488 257.814 199.935 257.331C199.396 256.833 199.106 256.198 199.065 255.424H200.847C201.04 255.963 201.227 256.329 201.407 256.522C201.586 256.716 201.904 256.813 202.36 256.813C202.747 256.813 203.051 256.709 203.272 256.502C203.507 256.281 203.7 255.921 203.852 255.424H204.785ZM199.251 269.496H196.826V259.465H198.588V267.568L203.562 259.465H205.987V269.496H204.225V261.206L199.251 269.496Z" fill="#132436"/>
<rect x="332.095" y="246.315" width="61.9053" height="32.3621" rx="6.47632" fill="#FF4040"/>
<path d="M350.162 268.677C349.436 268.677 348.735 268.538 348.058 268.26C347.393 267.982 346.831 267.529 346.372 266.9L347.278 266.084C347.593 266.507 347.986 266.852 348.457 267.118C348.928 267.372 349.497 267.499 350.162 267.499C350.609 267.499 351.014 267.432 351.377 267.299C351.751 267.166 352.072 266.979 352.338 266.737C352.604 266.483 352.809 266.187 352.954 265.848C353.111 265.51 353.19 265.135 353.19 264.724C353.19 263.926 352.918 263.298 352.374 262.838C351.842 262.379 351.141 262.149 350.27 262.149H349.908V261.061H350.27C350.984 261.061 351.528 260.862 351.902 260.463C352.277 260.064 352.465 259.55 352.465 258.921C352.465 258.317 352.277 257.815 351.902 257.416C351.54 257.005 350.996 256.8 350.27 256.8C349.654 256.8 349.116 256.939 348.656 257.217C348.197 257.483 347.828 257.809 347.55 258.196L346.716 257.434C347.079 256.914 347.574 256.485 348.203 256.147C348.844 255.796 349.527 255.621 350.252 255.621C350.796 255.621 351.286 255.706 351.721 255.875C352.156 256.032 352.525 256.256 352.827 256.546C353.129 256.824 353.359 257.162 353.516 257.561C353.686 257.948 353.77 258.371 353.77 258.831C353.77 259.193 353.716 259.52 353.607 259.81C353.498 260.1 353.353 260.36 353.172 260.59C352.99 260.807 352.785 260.995 352.555 261.152C352.326 261.297 352.09 261.406 351.848 261.478C352.259 261.563 352.628 261.708 352.954 261.913C353.281 262.119 353.559 262.373 353.788 262.675C354.018 262.965 354.193 263.298 354.314 263.672C354.435 264.035 354.496 264.422 354.496 264.833C354.496 265.389 354.387 265.903 354.169 266.374C353.952 266.834 353.649 267.239 353.262 267.589C352.876 267.928 352.416 268.194 351.884 268.387C351.364 268.58 350.79 268.677 350.162 268.677ZM356.98 272.848H355.638L360.135 255.802H361.477L356.98 272.848ZM365.797 257.489L363.422 258.395V257.035L367.103 255.621V268.496H365.797V257.489ZM375.161 268.605C374.509 268.605 373.922 268.454 373.402 268.151C372.883 267.837 372.447 267.402 372.097 266.846C371.746 266.278 371.474 265.601 371.281 264.815C371.099 264.017 371.009 263.134 371.009 262.167C371.009 261.128 371.112 260.209 371.317 259.411C371.535 258.601 371.831 257.924 372.206 257.38C372.58 256.824 373.016 256.407 373.511 256.129C374.007 255.839 374.539 255.693 375.107 255.693C375.76 255.693 376.34 255.851 376.848 256.165C377.368 256.467 377.803 256.902 378.153 257.471C378.516 258.027 378.788 258.704 378.969 259.502C379.151 260.287 379.242 261.164 379.242 262.131C379.242 263.171 379.133 264.095 378.915 264.905C378.71 265.703 378.419 266.38 378.045 266.936C377.682 267.48 377.253 267.897 376.757 268.188C376.262 268.466 375.73 268.605 375.161 268.605ZM375.161 267.335C375.524 267.335 375.869 267.239 376.195 267.045C376.534 266.852 376.824 266.55 377.065 266.138C377.319 265.715 377.519 265.177 377.664 264.525C377.809 263.86 377.881 263.062 377.881 262.131C377.881 261.248 377.809 260.481 377.664 259.828C377.531 259.175 377.344 258.637 377.102 258.214C376.86 257.791 376.57 257.477 376.231 257.271C375.893 257.066 375.518 256.963 375.107 256.963C374.744 256.963 374.394 257.06 374.055 257.253C373.729 257.446 373.439 257.755 373.185 258.178C372.931 258.589 372.732 259.127 372.586 259.792C372.441 260.444 372.369 261.236 372.369 262.167C372.369 263.062 372.435 263.836 372.568 264.488C372.713 265.129 372.907 265.661 373.149 266.084C373.402 266.507 373.699 266.822 374.037 267.027C374.376 267.233 374.75 267.335 375.161 267.335Z" fill="white"/>
<g clip-path="url(#clip2_1353_562)">
<circle cx="23.8858" cy="310.401" r="3.88579" fill="#007CFF"/>
</g>
<path d="M42.3204 314.811V304.78H44.1856V309.111C44.6691 309.111 45.0353 309.042 45.2839 308.904C45.5464 308.766 45.8297 308.455 46.1336 307.972L47.1491 306.334C47.536 305.699 47.9297 305.284 48.3304 305.091C48.7449 304.884 49.3321 304.78 50.092 304.78H50.7966V305.837H50.4028C49.6982 305.837 49.1179 306.203 48.662 306.935L47.8745 308.22C47.3909 309.063 46.8935 309.547 46.3823 309.671C46.7692 309.768 47.5291 310.445 48.662 311.702L51.4598 314.811H49.1594L46.4238 311.702C46.0231 311.246 45.657 310.908 45.3254 310.686C44.9938 310.465 44.7727 310.348 44.6622 310.334C44.5517 310.32 44.3928 310.313 44.1856 310.313V314.811H42.3204ZM62.0282 308.158V311.64C62.0282 312.262 61.9522 312.787 61.8002 313.215C61.6482 313.643 61.4548 313.975 61.2199 314.21C60.985 314.444 60.6465 314.624 60.2044 314.748C59.7761 314.873 59.3616 314.949 58.961 314.976C58.5741 315.004 58.056 315.018 57.4066 315.018C56.5777 315.018 55.9283 314.99 55.4586 314.935C55.0026 314.88 54.5398 314.748 54.07 314.541C53.6141 314.32 53.2825 313.975 53.0753 313.505C52.8819 313.035 52.7851 312.413 52.7851 311.64V308.158C52.7851 307.495 52.8611 306.935 53.0131 306.479C53.1789 306.024 53.3723 305.671 53.5934 305.423C53.8283 305.174 54.1668 304.987 54.6089 304.863C55.051 304.725 55.4586 304.642 55.8316 304.614C56.2185 304.587 56.7435 304.573 57.4066 304.573C58.0698 304.573 58.5879 304.587 58.961 304.614C59.3478 304.642 59.7623 304.725 60.2044 304.863C60.6465 304.987 60.9781 305.174 61.1992 305.423C61.4341 305.671 61.6275 306.024 61.7795 306.479C61.9453 306.935 62.0282 307.495 62.0282 308.158ZM60.1215 311.909V307.847C60.1215 306.922 59.935 306.348 59.562 306.127C59.1889 305.906 58.4705 305.796 57.4066 305.796C56.3428 305.796 55.6244 305.906 55.2513 306.127C54.8783 306.348 54.6918 306.922 54.6918 307.847V311.909C54.6918 312.351 54.7401 312.704 54.8368 312.966C54.9336 313.229 55.1132 313.422 55.3757 313.546C55.6382 313.657 55.9076 313.726 56.1839 313.754C56.4602 313.781 56.8678 313.795 57.4066 313.795C57.9455 313.795 58.3531 313.781 58.6294 313.754C58.9057 313.726 59.1751 313.657 59.4376 313.546C59.7001 313.422 59.8797 313.229 59.9765 312.966C60.0732 312.704 60.1215 312.351 60.1215 311.909ZM65.9318 312.034V304.78H73.952V314.811H72.1076V306.148H67.7762V311.888C67.7762 312.565 67.7002 313.118 67.5482 313.546C67.4101 313.961 67.1752 314.272 66.8436 314.479C66.5258 314.672 66.1874 314.797 65.8281 314.852C65.4689 314.921 64.9923 314.956 64.3982 314.956C64.1218 314.956 63.9008 314.949 63.735 314.935V313.774C64.6192 313.774 65.2064 313.664 65.4965 313.443C65.7867 313.208 65.9318 312.738 65.9318 312.034ZM80.0302 314.811H77.6055V304.78H79.367V312.883L84.3409 304.78H86.7656V314.811H85.004V306.521L80.0302 314.811ZM99.0479 314.811H97.2242V310.21C97.0308 311.163 95.9186 311.64 93.8876 311.64C92.5613 311.64 91.6494 311.405 91.152 310.935C90.6546 310.452 90.4059 309.726 90.4059 308.759V304.78H92.2711V308.655C92.2711 308.904 92.2918 309.111 92.3333 309.277C92.3747 309.443 92.4576 309.616 92.582 309.795C92.7201 309.961 92.9412 310.092 93.2452 310.189C93.5629 310.272 93.9567 310.313 94.4264 310.313C95.5179 310.313 96.2502 310.196 96.6232 309.961C96.9962 309.726 97.1828 309.291 97.1828 308.655V304.78H99.0479V314.811ZM110.949 310.21H104.213V311.723C104.213 312.427 104.462 312.932 104.959 313.236C105.471 313.526 106.237 313.671 107.26 313.671C108.158 313.671 109.256 313.505 110.555 313.173V314.603C109.256 314.88 107.964 315.018 106.679 315.018C105.395 315.018 104.345 314.776 103.529 314.292C102.728 313.795 102.327 313.014 102.327 311.951V307.992C102.327 306.763 102.68 305.885 103.384 305.36C104.089 304.835 105.215 304.573 106.762 304.573C108.213 304.573 109.27 304.828 109.933 305.34C110.61 305.837 110.949 306.721 110.949 307.992V310.21ZM109.083 308.987V307.412C109.083 306.804 108.897 306.39 108.524 306.169C108.165 305.934 107.564 305.816 106.721 305.816C105.864 305.816 105.229 305.927 104.814 306.148C104.414 306.355 104.213 306.776 104.213 307.412V308.987L109.083 308.987ZM121.459 314.728C120.547 314.921 119.476 315.018 118.247 315.018C117.639 315.018 117.162 315.004 116.817 314.976C116.485 314.963 116.098 314.9 115.656 314.79C115.228 314.666 114.896 314.493 114.662 314.272C114.44 314.051 114.247 313.733 114.081 313.318C113.915 312.89 113.833 312.365 113.833 311.743V308.054C113.833 307.502 113.881 307.025 113.978 306.625C114.088 306.224 114.254 305.899 114.475 305.65C114.696 305.402 114.924 305.201 115.159 305.049C115.394 304.898 115.712 304.794 116.112 304.739C116.527 304.67 116.886 304.628 117.19 304.614C117.508 304.587 117.929 304.573 118.454 304.573C119.407 304.573 120.361 304.676 121.314 304.884V306.251C120.236 305.975 119.207 305.837 118.226 305.837C117.162 305.837 116.478 305.948 116.174 306.169C115.884 306.39 115.739 306.928 115.739 307.785V311.93C115.739 312.662 115.912 313.146 116.257 313.381C116.603 313.602 117.328 313.712 118.433 313.712C119.414 313.712 120.423 313.581 121.459 313.318V314.728ZM132.834 306.148H128.917V314.811H127.052V306.148H123.114V304.78H132.834V306.148ZM144.369 311.557V312.158C144.369 313.153 144.051 313.843 143.416 314.23C142.794 314.617 141.661 314.811 140.017 314.811H135.478V304.78H139.872C140.756 304.78 141.468 304.835 142.007 304.946C142.559 305.043 142.953 305.215 143.188 305.464C143.436 305.713 143.595 305.961 143.664 306.21C143.734 306.459 143.768 306.797 143.768 307.226V307.578C143.768 308.13 143.623 308.538 143.333 308.801C143.043 309.049 142.587 309.243 141.965 309.381V309.464C143.568 309.726 144.369 310.424 144.369 311.557ZM141.986 307.516V307.391C141.986 306.866 141.861 306.514 141.613 306.334C141.364 306.155 140.818 306.065 139.976 306.065H137.344V309.008H140.038C140.867 309.008 141.399 308.904 141.633 308.697C141.868 308.49 141.986 308.096 141.986 307.516ZM142.462 312.096V311.433C142.462 311.073 142.31 310.783 142.007 310.562C141.716 310.341 141.122 310.231 140.224 310.231H137.344V313.464H140.121C141.088 313.464 141.716 313.367 142.007 313.173C142.31 312.98 142.462 312.621 142.462 312.096ZM156.519 308.158V311.64C156.519 312.262 156.443 312.787 156.291 313.215C156.139 313.643 155.945 313.975 155.71 314.21C155.475 314.444 155.137 314.624 154.695 314.748C154.266 314.873 153.852 314.949 153.451 314.976C153.064 315.004 152.546 315.018 151.897 315.018C151.068 315.018 150.419 314.99 149.949 314.935C149.493 314.88 149.03 314.748 148.56 314.541C148.104 314.32 147.773 313.975 147.566 313.505C147.372 313.035 147.276 312.413 147.276 311.64V308.158C147.276 307.495 147.351 306.935 147.503 306.479C147.669 306.024 147.863 305.671 148.084 305.423C148.319 305.174 148.657 304.987 149.099 304.863C149.541 304.725 149.949 304.642 150.322 304.614C150.709 304.587 151.234 304.573 151.897 304.573C152.56 304.573 153.078 304.587 153.451 304.614C153.838 304.642 154.253 304.725 154.695 304.863C155.137 304.987 155.468 305.174 155.69 305.423C155.924 305.671 156.118 306.024 156.27 306.479C156.436 306.935 156.519 307.495 156.519 308.158ZM154.612 311.909V307.847C154.612 306.922 154.425 306.348 154.052 306.127C153.679 305.906 152.961 305.796 151.897 305.796C150.833 305.796 150.115 305.906 149.742 306.127C149.369 306.348 149.182 306.922 149.182 307.847V311.909C149.182 312.351 149.23 312.704 149.327 312.966C149.424 313.229 149.604 313.422 149.866 313.546C150.129 313.657 150.398 313.726 150.674 313.754C150.951 313.781 151.358 313.795 151.897 313.795C152.436 313.795 152.843 313.781 153.12 313.754C153.396 313.726 153.665 313.657 153.928 313.546C154.19 313.422 154.37 313.229 154.467 312.966C154.564 312.704 154.612 312.351 154.612 311.909ZM174.048 311.557V312.158C174.048 313.153 173.73 313.843 173.094 314.23C172.473 314.617 171.34 314.811 169.696 314.811H165.157V304.78H169.55C170.435 304.78 171.146 304.835 171.685 304.946C172.238 305.043 172.631 305.215 172.866 305.464C173.115 305.713 173.274 305.961 173.343 306.21C173.412 306.459 173.447 306.797 173.447 307.226V307.578C173.447 308.13 173.302 308.538 173.011 308.801C172.721 309.049 172.265 309.243 171.644 309.381V309.464C173.246 309.726 174.048 310.424 174.048 311.557ZM171.664 307.516V307.391C171.664 306.866 171.54 306.514 171.291 306.334C171.043 306.155 170.497 306.065 169.654 306.065H167.022V309.008H169.716C170.545 309.008 171.077 308.904 171.312 308.697C171.547 308.49 171.664 308.096 171.664 307.516ZM172.141 312.096V311.433C172.141 311.073 171.989 310.783 171.685 310.562C171.395 310.341 170.801 310.231 169.903 310.231H167.022V313.464H169.799C170.766 313.464 171.395 313.367 171.685 313.173C171.989 312.98 172.141 312.621 172.141 312.096ZM185.244 314.811H183.441V313.857C183.289 314.631 182.28 315.018 180.415 315.018C179.033 315.018 178.073 314.811 177.534 314.396C177.009 313.968 176.747 313.111 176.747 311.826C176.747 310.707 176.996 309.94 177.493 309.526C177.99 309.098 178.95 308.883 180.374 308.883H183.379V307.288C183.379 306.735 183.206 306.362 182.86 306.169C182.529 305.975 181.893 305.878 180.954 305.878C179.931 305.878 178.785 305.961 177.514 306.127V304.759C178.881 304.635 180.118 304.573 181.223 304.573C182.909 304.573 184 304.78 184.498 305.195C184.995 305.595 185.244 306.438 185.244 307.723V314.811ZM183.379 312.821V310.044H180.498C179.641 310.044 179.102 310.155 178.881 310.376C178.674 310.597 178.571 311.101 178.571 311.888C178.571 312.607 178.681 313.111 178.902 313.401C179.137 313.691 179.621 313.837 180.353 313.837H180.726C181.085 313.837 181.382 313.83 181.617 313.816C181.866 313.802 182.142 313.767 182.446 313.712C182.75 313.643 182.978 313.54 183.13 313.401C183.296 313.249 183.379 313.056 183.379 312.821ZM198.032 307.412V311.536C198.032 312.144 197.943 312.669 197.763 313.111C197.583 313.553 197.355 313.899 197.079 314.147C196.817 314.382 196.464 314.569 196.022 314.707C195.58 314.845 195.166 314.928 194.779 314.956C194.392 314.997 193.922 315.018 193.369 315.018C192.817 315.018 192.278 314.949 191.753 314.811C191.228 314.672 190.896 314.458 190.758 314.168V318.914H188.893V304.78H190.758V305.858C190.91 305.001 192.05 304.573 194.178 304.573C195.518 304.573 196.492 304.856 197.1 305.423C197.722 305.975 198.032 306.638 198.032 307.412ZM196.126 311.764V308.075C196.126 307.15 195.925 306.562 195.525 306.314C195.124 306.051 194.413 305.92 193.39 305.92C192.354 305.92 191.636 306.051 191.235 306.314C190.848 306.562 190.655 307.15 190.655 308.075V311.764C190.655 312.607 190.855 313.153 191.256 313.401C191.67 313.636 192.388 313.754 193.411 313.754C194.433 313.754 195.138 313.636 195.525 313.401C195.925 313.153 196.126 312.607 196.126 311.764ZM203.734 314.811H201.309V304.78H203.07V312.883L208.044 304.78H210.469V314.811H208.707V306.521L203.734 314.811ZM222.026 314.811H220.223V313.857C220.071 314.631 219.062 315.018 217.197 315.018C215.816 315.018 214.855 314.811 214.317 314.396C213.792 313.968 213.529 313.111 213.529 311.826C213.529 310.707 213.778 309.94 214.275 309.526C214.773 309.098 215.733 308.883 217.156 308.883H220.161V307.288C220.161 306.735 219.988 306.362 219.643 306.169C219.311 305.975 218.676 305.878 217.736 305.878C216.714 305.878 215.567 305.961 214.296 306.127V304.759C215.664 304.635 216.9 304.573 218.006 304.573C219.691 304.573 220.783 304.78 221.28 305.195C221.777 305.595 222.026 306.438 222.026 307.723V314.811ZM220.161 312.821V310.044H217.28C216.424 310.044 215.885 310.155 215.664 310.376C215.456 310.597 215.353 311.101 215.353 311.888C215.353 312.607 215.463 313.111 215.684 313.401C215.919 313.691 216.403 313.837 217.135 313.837H217.508C217.867 313.837 218.164 313.83 218.399 313.816C218.648 313.802 218.924 313.767 219.228 313.712C219.532 313.643 219.76 313.54 219.912 313.401C220.078 313.249 220.161 313.056 220.161 312.821ZM234.483 317.588H232.68V314.811H225.8V304.78H227.665V313.443H232.618V304.78H234.483V317.588ZM240.678 314.811H238.253V304.78H240.015V312.883L244.988 304.78H247.413V314.811H245.652V306.521L240.678 314.811ZM259.012 300.739C258.956 301.513 258.652 302.148 258.1 302.645C257.561 303.129 256.912 303.371 256.152 303.371C255.378 303.371 254.715 303.129 254.162 302.645C253.623 302.148 253.333 301.513 253.292 300.739H255.074C255.267 301.278 255.454 301.644 255.634 301.837C255.813 302.031 256.131 302.127 256.587 302.127C256.974 302.127 257.278 302.024 257.499 301.816C257.734 301.595 257.927 301.236 258.079 300.739H259.012ZM253.478 314.811H251.054V304.78H252.815V312.883L257.789 304.78H260.214V314.811H258.452V306.521L253.478 314.811Z" fill="#132436"/>
<rect x="332.095" y="291.63" width="61.9053" height="32.3621" rx="6.47632" fill="#FEB614"/>
<path d="M351.431 310.166H345.465V309.676L352.374 300.936H352.737V308.987H354.35V310.166H352.737V313.811H351.431V310.166ZM351.431 308.987V304.055L347.514 308.987H351.431ZM356.98 318.163H355.638L360.135 301.117H361.477L356.98 318.163ZM365.797 302.803L363.422 303.71V302.35L367.103 300.936V313.811H365.797V302.803ZM375.161 313.919C374.509 313.919 373.922 313.768 373.402 313.466C372.883 313.152 372.447 312.717 372.097 312.16C371.746 311.592 371.474 310.915 371.281 310.129C371.099 309.332 371.009 308.449 371.009 307.482C371.009 306.442 371.112 305.523 371.317 304.726C371.535 303.916 371.831 303.239 372.206 302.695C372.58 302.139 373.016 301.721 373.511 301.443C374.007 301.153 374.539 301.008 375.107 301.008C375.76 301.008 376.34 301.165 376.848 301.48C377.368 301.782 377.803 302.217 378.153 302.785C378.516 303.341 378.788 304.018 378.969 304.816C379.151 305.602 379.242 306.479 379.242 307.446C379.242 308.485 379.133 309.41 378.915 310.22C378.71 311.018 378.419 311.695 378.045 312.251C377.682 312.795 377.253 313.212 376.757 313.502C376.262 313.78 375.73 313.919 375.161 313.919ZM375.161 312.65C375.524 312.65 375.869 312.553 376.195 312.36C376.534 312.166 376.824 311.864 377.065 311.453C377.319 311.03 377.519 310.492 377.664 309.839C377.809 309.174 377.881 308.377 377.881 307.446C377.881 306.563 377.809 305.795 377.664 305.143C377.531 304.49 377.344 303.952 377.102 303.529C376.86 303.106 376.57 302.791 376.231 302.586C375.893 302.38 375.518 302.278 375.107 302.278C374.744 302.278 374.394 302.374 374.055 302.568C373.729 302.761 373.439 303.069 373.185 303.493C372.931 303.904 372.732 304.442 372.586 305.106C372.441 305.759 372.369 306.551 372.369 307.482C372.369 308.377 372.435 309.15 372.568 309.803C372.713 310.444 372.907 310.976 373.149 311.399C373.402 311.822 373.699 312.136 374.037 312.342C374.376 312.547 374.75 312.65 375.161 312.65Z" fill="white"/>
<g clip-path="url(#clip3_1353_562)">
<circle cx="23.8858" cy="355.716" r="3.88579" fill="#007CFF"/>
</g>
<path d="M49.5946 360.042C48.6827 360.236 47.612 360.333 46.3823 360.333C45.7744 360.333 45.2978 360.319 44.9524 360.291C44.6208 360.277 44.2339 360.215 43.7918 360.105C43.3635 359.98 43.0319 359.808 42.797 359.587C42.576 359.365 42.3825 359.048 42.2168 358.633C42.051 358.205 41.9681 357.68 41.9681 357.058V353.369C41.9681 352.817 42.0164 352.34 42.1131 351.939C42.2237 351.539 42.3895 351.214 42.6105 350.965C42.8316 350.717 43.0595 350.516 43.2944 350.364C43.5293 350.212 43.8471 350.109 44.2477 350.053C44.6622 349.984 45.0214 349.943 45.3254 349.929C45.6432 349.901 46.0646 349.888 46.5896 349.888C47.5429 349.888 48.4962 349.991 49.4495 350.198V351.566C48.3719 351.29 47.3425 351.152 46.3616 351.152C45.2978 351.152 44.6139 351.262 44.3099 351.483C44.0198 351.704 43.8747 352.243 43.8747 353.1V357.245C43.8747 357.977 44.0474 358.461 44.3928 358.695C44.7382 358.916 45.4636 359.027 46.5688 359.027C47.5498 359.027 48.5584 358.896 49.5946 358.633V360.042ZM60.9694 351.463H57.0526V360.125H55.1874V351.463H51.2498V350.095H60.9694V351.463ZM72.6289 352.727V356.851C72.6289 357.459 72.5391 357.984 72.3595 358.426C72.1799 358.868 71.9519 359.213 71.6756 359.462C71.4131 359.697 71.0608 359.884 70.6187 360.022C70.1766 360.16 69.7621 360.243 69.3752 360.27C68.9884 360.312 68.5186 360.333 67.966 360.333C67.4133 360.333 66.8745 360.264 66.3495 360.125C65.8245 359.987 65.4929 359.773 65.3547 359.483V364.229H63.4895V350.095H65.3547V351.172C65.5067 350.316 66.6465 349.888 68.7742 349.888C70.1144 349.888 71.0884 350.171 71.6963 350.737C72.3181 351.29 72.6289 351.953 72.6289 352.727ZM70.7223 357.079V353.39C70.7223 352.464 70.522 351.877 70.1213 351.628C69.7206 351.366 69.0091 351.235 67.9867 351.235C66.9505 351.235 66.232 351.366 65.8314 351.628C65.4445 351.877 65.2511 352.464 65.2511 353.39V357.079C65.2511 357.922 65.4514 358.467 65.8521 358.716C66.2666 358.951 66.985 359.068 68.0074 359.068C69.0298 359.068 69.7344 358.951 70.1213 358.716C70.522 358.467 70.7223 357.922 70.7223 357.079ZM83.8221 360.125H82.0191V359.172C81.8671 359.946 80.8585 360.333 78.9934 360.333C77.6117 360.333 76.6515 360.125 76.1127 359.711C75.5877 359.283 75.3252 358.426 75.3252 357.141C75.3252 356.022 75.5739 355.255 76.0712 354.841C76.5686 354.412 77.5289 354.198 78.9519 354.198H81.9569V352.602C81.9569 352.05 81.7842 351.677 81.4388 351.483C81.1072 351.29 80.4717 351.193 79.5322 351.193C78.5098 351.193 77.3631 351.276 76.092 351.442V350.074C77.4598 349.95 78.6963 349.888 79.8016 349.888C81.4872 349.888 82.5787 350.095 83.076 350.509C83.5734 350.91 83.8221 351.753 83.8221 353.038V360.125ZM81.9569 358.136V355.359H79.0763C78.2197 355.359 77.6808 355.469 77.4598 355.69C77.2525 355.911 77.1489 356.416 77.1489 357.203C77.1489 357.922 77.2594 358.426 77.4805 358.716C77.7154 359.006 78.1989 359.151 78.9312 359.151H79.3042C79.6634 359.151 79.9605 359.144 80.1954 359.131C80.4441 359.117 80.7204 359.082 81.0243 359.027C81.3283 358.958 81.5563 358.854 81.7082 358.716C81.874 358.564 81.9569 358.371 81.9569 358.136ZM96.0719 351.463H92.155V360.125H90.2899V351.463H86.3522V350.095H96.0719V351.463ZM106.435 355.525H99.7001V357.037C99.7001 357.742 99.9488 358.246 100.446 358.55C100.957 358.84 101.724 358.986 102.747 358.986C103.645 358.986 104.743 358.82 106.042 358.488V359.918C104.743 360.194 103.451 360.333 102.166 360.333C100.881 360.333 99.8314 360.091 99.0162 359.607C98.2149 359.11 97.8142 358.329 97.8142 357.265V353.307C97.8142 352.077 98.1665 351.2 98.8711 350.675C99.5758 350.15 100.702 349.888 102.249 349.888C103.7 349.888 104.757 350.143 105.42 350.654C106.097 351.152 106.435 352.036 106.435 353.307V355.525ZM104.57 354.302V352.727C104.57 352.119 104.384 351.704 104.011 351.483C103.652 351.248 103.051 351.131 102.208 351.131C101.351 351.131 100.716 351.242 100.301 351.463C99.9004 351.67 99.7001 352.091 99.7001 352.727V354.302H104.57ZM116.158 351.463H111.682V360.125H109.817V350.095H116.158V351.463ZM121.234 360.125H118.809V350.095H120.571V358.198L125.545 350.095H127.97V360.125H126.208V351.836L121.234 360.125ZM132.874 360.125H130.408L134.304 355.856C132.259 355.856 131.237 355.158 131.237 353.763V352.685C131.237 351.635 131.472 350.945 131.942 350.613C132.411 350.268 133.337 350.095 134.719 350.095H139.858V360.125H137.993V356.105H136.314L132.874 360.125ZM133.123 352.851V353.141C133.123 353.874 133.213 354.336 133.392 354.53C133.586 354.723 133.945 354.82 134.47 354.82H137.993V351.38H134.905C134.159 351.38 133.675 351.483 133.454 351.691C133.233 351.884 133.123 352.271 133.123 352.851ZM148.791 360.125V350.095H150.656V354.426C151.14 354.426 151.506 354.357 151.755 354.219C152.017 354.081 152.3 353.77 152.604 353.286L153.62 351.649C154.007 351.014 154.4 350.599 154.801 350.406C155.216 350.198 155.803 350.095 156.563 350.095H157.267V351.152H156.874C156.169 351.152 155.589 351.518 155.133 352.25L154.345 353.535C153.862 354.378 153.364 354.861 152.853 354.986C153.24 355.082 154 355.759 155.133 357.017L157.931 360.125H155.63L152.895 357.017C152.494 356.561 152.128 356.222 151.796 356.001C151.465 355.78 151.243 355.663 151.133 355.649C151.022 355.635 150.864 355.628 150.656 355.628V360.125H148.791ZM167.546 360.125H165.743V359.172C165.591 359.946 164.582 360.333 162.717 360.333C161.335 360.333 160.375 360.125 159.836 359.711C159.311 359.283 159.049 358.426 159.049 357.141C159.049 356.022 159.297 355.255 159.795 354.841C160.292 354.412 161.252 354.198 162.675 354.198H165.68V352.602C165.68 352.05 165.508 351.677 165.162 351.483C164.831 351.29 164.195 351.193 163.256 351.193C162.233 351.193 161.087 351.276 159.815 351.442V350.074C161.183 349.95 162.42 349.888 163.525 349.888C165.211 349.888 166.302 350.095 166.8 350.509C167.297 350.91 167.546 351.753 167.546 353.038V360.125ZM165.68 358.136V355.359H162.8C161.943 355.359 161.404 355.469 161.183 355.69C160.976 355.911 160.872 356.416 160.872 357.203C160.872 357.922 160.983 358.426 161.204 358.716C161.439 359.006 161.922 359.151 162.655 359.151H163.028C163.387 359.151 163.684 359.144 163.919 359.131C164.168 359.117 164.444 359.082 164.748 359.027C165.052 358.958 165.28 358.854 165.432 358.716C165.598 358.564 165.68 358.371 165.68 358.136ZM183.194 360.125H181.474V351.794H181.37L178.283 360.125H176.397L173.184 351.794H173.081V360.125H171.319V350.095H174.324L177.371 358.26H177.454L180.293 350.095H183.194V360.125ZM195.571 360.125H193.706V351.463H188.96V360.125H187.095V350.095H195.571V360.125ZM207.262 360.125H205.459V359.172C205.307 359.946 204.299 360.333 202.434 360.333C201.052 360.333 200.092 360.125 199.553 359.711C199.028 359.283 198.766 358.426 198.766 357.141C198.766 356.022 199.014 355.255 199.512 354.841C200.009 354.412 200.969 354.198 202.392 354.198H205.397V352.602C205.397 352.05 205.225 351.677 204.879 351.483C204.548 351.29 203.912 351.193 202.973 351.193C201.95 351.193 200.803 351.276 199.532 351.442V350.074C200.9 349.95 202.137 349.888 203.242 349.888C204.928 349.888 206.019 350.095 206.516 350.509C207.014 350.91 207.262 351.753 207.262 353.038V360.125ZM205.397 358.136V355.359H202.517C201.66 355.359 201.121 355.469 200.9 355.69C200.693 355.911 200.589 356.416 200.589 357.203C200.589 357.922 200.7 358.426 200.921 358.716C201.156 359.006 201.639 359.151 202.372 359.151H202.745C203.104 359.151 203.401 359.144 203.636 359.131C203.884 359.117 204.161 359.082 204.465 359.027C204.769 358.958 204.997 358.854 205.149 358.716C205.314 358.564 205.397 358.371 205.397 358.136ZM219.574 360.125H217.709V355.628H212.777V360.125H210.912V350.095H212.777V354.26H217.709V350.095H219.574V360.125ZM225.651 360.125H223.226V350.095L224.988 350.095V358.198L229.962 350.095H232.387V360.125H230.625V351.836L225.651 360.125ZM238.452 360.125H236.027V350.095H237.788V358.198L242.762 350.095H245.187V360.125H243.425V351.836L238.452 360.125Z" fill="#132436"/>
<rect x="332.095" y="336.944" width="61.9053" height="32.3621" rx="6.47632" fill="#FEB614"/>
<path d="M349.98 359.307C349.255 359.307 348.554 359.168 347.877 358.89C347.212 358.612 346.65 358.158 346.19 357.53L347.188 356.641C347.478 357.076 347.846 357.433 348.294 357.711C348.753 357.989 349.315 358.128 349.98 358.128C350.428 358.128 350.833 358.056 351.195 357.91C351.57 357.765 351.89 357.56 352.156 357.294C352.422 357.028 352.628 356.714 352.773 356.351C352.93 355.988 353.009 355.589 353.009 355.154C353.009 354.683 352.93 354.272 352.773 353.921C352.616 353.558 352.392 353.262 352.102 353.033C351.824 352.791 351.491 352.609 351.105 352.488C350.718 352.368 350.295 352.307 349.835 352.307C349.291 352.307 348.747 352.41 348.203 352.615H347.568L348.221 346.432H353.426V347.701H349.291L348.947 351.292C349.116 351.255 349.291 351.225 349.472 351.201C349.666 351.165 349.853 351.147 350.035 351.147C350.7 351.147 351.298 351.243 351.83 351.437C352.362 351.63 352.809 351.908 353.172 352.271C353.547 352.621 353.831 353.045 354.024 353.54C354.217 354.036 354.314 354.58 354.314 355.172C354.314 355.789 354.205 356.351 353.988 356.859C353.77 357.366 353.468 357.802 353.081 358.164C352.694 358.527 352.235 358.811 351.703 359.017C351.183 359.21 350.609 359.307 349.98 359.307ZM356.98 363.478H355.638L360.135 346.432H361.477L356.98 363.478ZM365.797 348.118L363.422 349.025V347.665L367.103 346.25V359.125H365.797V348.118ZM375.161 359.234C374.509 359.234 373.922 359.083 373.402 358.781C372.883 358.467 372.447 358.031 372.097 357.475C371.746 356.907 371.474 356.23 371.281 355.444C371.099 354.646 371.009 353.764 371.009 352.797C371.009 351.757 371.112 350.838 371.317 350.04C371.535 349.23 371.831 348.553 372.206 348.009C372.58 347.453 373.016 347.036 373.511 346.758C374.007 346.468 374.539 346.323 375.107 346.323C375.76 346.323 376.34 346.48 376.848 346.795C377.368 347.097 377.803 347.532 378.153 348.1C378.516 348.656 378.788 349.333 378.969 350.131C379.151 350.917 379.242 351.793 379.242 352.76C379.242 353.8 379.133 354.725 378.915 355.535C378.71 356.333 378.419 357.01 378.045 357.566C377.682 358.11 377.253 358.527 376.757 358.817C376.262 359.095 375.73 359.234 375.161 359.234ZM375.161 357.965C375.524 357.965 375.869 357.868 376.195 357.675C376.534 357.481 376.824 357.179 377.065 356.768C377.319 356.345 377.519 355.807 377.664 355.154C377.809 354.489 377.881 353.691 377.881 352.76C377.881 351.878 377.809 351.11 377.664 350.458C377.531 349.805 377.344 349.267 377.102 348.844C376.86 348.42 376.57 348.106 376.231 347.901C375.893 347.695 375.518 347.592 375.107 347.592C374.744 347.592 374.394 347.689 374.055 347.883C373.729 348.076 373.439 348.384 373.185 348.807C372.931 349.218 372.732 349.756 372.586 350.421C372.441 351.074 372.369 351.866 372.369 352.797C372.369 353.691 372.435 354.465 372.568 355.118C372.713 355.759 372.907 356.291 373.149 356.714C373.402 357.137 373.699 357.451 374.037 357.657C374.376 357.862 374.75 357.965 375.161 357.965Z" fill="white"/>
<g clip-path="url(#clip4_1353_562)">
<circle cx="23.8858" cy="401.031" r="3.88579" fill="#007CFF"/>
</g>
<path d="M51.2111 398.788V402.269C51.2111 402.891 51.1351 403.416 50.9831 403.844C50.8311 404.273 50.6377 404.604 50.4028 404.839C50.168 405.074 49.8295 405.254 49.3873 405.378C48.959 405.502 48.5446 405.578 48.1439 405.606C47.757 405.634 47.2389 405.647 46.5896 405.647C45.7606 405.647 45.1112 405.62 44.6415 405.564C44.1856 405.509 43.7227 405.378 43.253 405.171C42.797 404.95 42.4654 404.604 42.2582 404.134C42.0648 403.665 41.9681 403.043 41.9681 402.269V398.788C41.9681 398.124 42.0441 397.565 42.196 397.109C42.3618 396.653 42.5553 396.301 42.7763 396.052C43.0112 395.803 43.3497 395.617 43.7918 395.492C44.2339 395.354 44.6415 395.271 45.0145 395.244C45.4014 395.216 45.9264 395.202 46.5896 395.202C47.2527 395.202 47.7708 395.216 48.1439 395.244C48.5307 395.271 48.9452 395.354 49.3873 395.492C49.8295 395.617 50.161 395.803 50.3821 396.052C50.617 396.301 50.8104 396.653 50.9624 397.109C51.1282 397.565 51.2111 398.124 51.2111 398.788ZM49.3044 402.539V398.477C49.3044 397.551 49.1179 396.978 48.7449 396.757C48.3719 396.536 47.6534 396.425 46.5896 396.425C45.5257 396.425 44.8073 396.536 44.4342 396.757C44.0612 396.978 43.8747 397.551 43.8747 398.477V402.539C43.8747 402.981 43.923 403.333 44.0198 403.596C44.1165 403.858 44.2961 404.052 44.5586 404.176C44.8211 404.286 45.0905 404.356 45.3668 404.383C45.6432 404.411 46.0507 404.425 46.5896 404.425C47.1284 404.425 47.536 404.411 47.8123 404.383C48.0886 404.356 48.358 404.286 48.6205 404.176C48.883 404.052 49.0627 403.858 49.1594 403.596C49.2561 403.333 49.3044 402.981 49.3044 402.539ZM63.3422 408.217H61.5392V405.44H54.6587V395.41H56.5239V404.072H61.477V395.41H63.3422V408.217ZM75.3605 400.839H68.6251V402.352C68.6251 403.057 68.8738 403.561 69.3712 403.865C69.8824 404.155 70.6492 404.3 71.6716 404.3C72.5696 404.3 73.668 404.134 74.9667 403.803V405.233C73.668 405.509 72.3762 405.647 71.0913 405.647C69.8064 405.647 68.7563 405.406 67.9412 404.922C67.1399 404.425 66.7392 403.644 66.7392 402.58V398.622C66.7392 397.392 67.0915 396.515 67.7961 395.99C68.5007 395.465 69.6268 395.202 71.1742 395.202C72.6249 395.202 73.6818 395.458 74.345 395.969C75.022 396.467 75.3605 397.351 75.3605 398.622V400.839ZM73.4953 399.617V398.042C73.4953 397.434 73.3088 397.019 72.9357 396.798C72.5765 396.563 71.9755 396.446 71.1327 396.446C70.2761 396.446 69.6406 396.556 69.2261 396.777C68.8254 396.985 68.6251 397.406 68.6251 398.042V399.617H73.4953ZM87.2801 405.44H85.415V400.943H80.4826V405.44H78.6174V395.41H80.4826V399.575H85.415V395.41H87.2801V405.44ZM90.9114 405.44V395.41H92.7766V399.741C93.2602 399.741 93.6263 399.672 93.875 399.534C94.1375 399.396 94.4207 399.085 94.7247 398.601L95.7402 396.964C96.127 396.328 96.5208 395.914 96.9214 395.72C97.3359 395.513 97.9231 395.41 98.683 395.41H99.3876V396.467H98.9939C98.2892 396.467 97.709 396.833 97.253 397.565L96.4655 398.85C95.9819 399.693 95.4846 400.176 94.9734 400.301C95.3602 400.397 96.1201 401.074 97.253 402.331L100.051 405.44H97.7504L95.0148 402.331C94.6141 401.876 94.248 401.537 93.9164 401.316C93.5848 401.095 93.3638 400.978 93.2533 400.964C93.1427 400.95 92.9838 400.943 92.7766 400.943V405.44H90.9114ZM109.666 405.44H107.863V404.487C107.711 405.261 106.702 405.647 104.837 405.647C103.456 405.647 102.495 405.44 101.956 405.026C101.431 404.597 101.169 403.741 101.169 402.456C101.169 401.337 101.418 400.57 101.915 400.155C102.412 399.727 103.373 399.513 104.796 399.513H107.801V397.917C107.801 397.365 107.628 396.992 107.283 396.798C106.951 396.605 106.315 396.508 105.376 396.508C104.354 396.508 103.207 396.591 101.936 396.757V395.389C103.304 395.265 104.54 395.202 105.645 395.202C107.331 395.202 108.422 395.41 108.92 395.824C109.417 396.225 109.666 397.068 109.666 398.352V405.44ZM107.801 403.451V400.674H104.92C104.063 400.674 103.525 400.784 103.304 401.005C103.096 401.226 102.993 401.73 102.993 402.518C102.993 403.236 103.103 403.741 103.324 404.031C103.559 404.321 104.043 404.466 104.775 404.466H105.148C105.507 404.466 105.804 404.459 106.039 404.445C106.288 404.432 106.564 404.397 106.868 404.342C107.172 404.273 107.4 404.169 107.552 404.031C107.718 403.879 107.801 403.685 107.801 403.451ZM126.423 405.44H124.62V404.487C124.468 405.261 123.459 405.647 121.594 405.647C120.212 405.647 119.252 405.44 118.713 405.026C118.188 404.597 117.926 403.741 117.926 402.456C117.926 401.337 118.174 400.57 118.672 400.155C119.169 399.727 120.129 399.513 121.552 399.513H124.557V397.917C124.557 397.365 124.385 396.992 124.039 396.798C123.708 396.605 123.072 396.508 122.133 396.508C121.11 396.508 119.963 396.591 118.692 396.757V395.389C120.06 395.265 121.297 395.202 122.402 395.202C124.088 395.202 125.179 395.41 125.676 395.824C126.174 396.225 126.423 397.068 126.423 398.352V405.44ZM124.557 403.451V400.674H121.677C120.82 400.674 120.281 400.784 120.06 401.005C119.853 401.226 119.749 401.73 119.749 402.518C119.749 403.236 119.86 403.741 120.081 404.031C120.316 404.321 120.799 404.466 121.532 404.466H121.905C122.264 404.466 122.561 404.459 122.796 404.445C123.045 404.432 123.321 404.397 123.625 404.342C123.929 404.273 124.157 404.169 124.309 404.031C124.474 403.879 124.557 403.685 124.557 403.451ZM137.864 395.41L132.89 409.544H130.942L132.455 405.585L128.58 395.41H130.611L133.408 403.596H133.45L135.978 395.41H137.864ZM145.759 404.114V396.736H142.63V397.254C142.63 399.879 142.257 402.166 141.511 404.114H145.759ZM140.972 396.114V395.41H147.417V404.114H148.412V408.217H146.816V405.44H140.329V408.217H138.734V404.114H139.687C140.544 402.193 140.972 399.527 140.972 396.114ZM153.908 405.44H151.483V395.41H153.245V403.513L158.219 395.41H160.643V405.44H158.882V397.15L153.908 405.44ZM172.884 396.777H168.967V405.44H167.102V396.777H163.165V395.41H172.884V396.777ZM183.87 398.788V402.269C183.87 402.891 183.794 403.416 183.642 403.844C183.49 404.273 183.296 404.604 183.061 404.839C182.827 405.074 182.488 405.254 182.046 405.378C181.618 405.502 181.203 405.578 180.802 405.606C180.416 405.634 179.897 405.647 179.248 405.647C178.419 405.647 177.77 405.62 177.3 405.564C176.844 405.509 176.381 405.378 175.912 405.171C175.456 404.95 175.124 404.604 174.917 404.134C174.723 403.665 174.627 403.043 174.627 402.269V398.788C174.627 398.124 174.703 397.565 174.855 397.109C175.02 396.653 175.214 396.301 175.435 396.052C175.67 395.803 176.008 395.617 176.45 395.492C176.892 395.354 177.3 395.271 177.673 395.244C178.06 395.216 178.585 395.202 179.248 395.202C179.911 395.202 180.429 395.216 180.802 395.244C181.189 395.271 181.604 395.354 182.046 395.492C182.488 395.617 182.82 395.803 183.041 396.052C183.276 396.301 183.469 396.653 183.621 397.109C183.787 397.565 183.87 398.124 183.87 398.788ZM181.963 402.539V398.477C181.963 397.551 181.776 396.978 181.403 396.757C181.03 396.536 180.312 396.425 179.248 396.425C178.184 396.425 177.466 396.536 177.093 396.757C176.72 396.978 176.533 397.551 176.533 398.477V402.539C176.533 402.981 176.582 403.333 176.678 403.596C176.775 403.858 176.955 404.052 177.217 404.176C177.48 404.286 177.749 404.356 178.025 404.383C178.302 404.411 178.709 404.425 179.248 404.425C179.787 404.425 180.195 404.411 180.471 404.383C180.747 404.356 181.017 404.286 181.279 404.176C181.542 404.052 181.721 403.858 181.818 403.596C181.915 403.333 181.963 402.981 181.963 402.539ZM196.332 398.042V402.166C196.332 402.774 196.243 403.299 196.063 403.741C195.883 404.183 195.655 404.528 195.379 404.777C195.117 405.012 194.764 405.198 194.322 405.337C193.88 405.475 193.466 405.558 193.079 405.585C192.692 405.627 192.222 405.647 191.669 405.647C191.117 405.647 190.578 405.578 190.053 405.44C189.528 405.302 189.196 405.088 189.058 404.798V409.544H187.193V395.41H189.058V396.487C189.21 395.631 190.35 395.202 192.478 395.202C193.818 395.202 194.792 395.486 195.4 396.052C196.021 396.605 196.332 397.268 196.332 398.042ZM194.426 402.394V398.705C194.426 397.779 194.225 397.192 193.825 396.943C193.424 396.681 192.713 396.549 191.69 396.549C190.654 396.549 189.935 396.681 189.535 396.943C189.148 397.192 188.955 397.779 188.955 398.705V402.394C188.955 403.236 189.155 403.782 189.556 404.031C189.97 404.266 190.688 404.383 191.711 404.383C192.733 404.383 193.438 404.266 193.825 404.031C194.225 403.782 194.426 403.236 194.426 402.394ZM202.034 405.44H199.609V395.41H201.37V403.513L206.344 395.41H208.769V405.44H207.007V397.15L202.034 405.44ZM220.367 391.368C220.312 392.142 220.008 392.778 219.456 393.275C218.917 393.759 218.267 394 217.507 394C216.734 394 216.071 393.759 215.518 393.275C214.979 392.778 214.689 392.142 214.648 391.368H216.43C216.623 391.907 216.81 392.273 216.989 392.467C217.169 392.66 217.487 392.757 217.943 392.757C218.33 392.757 218.634 392.653 218.855 392.446C219.089 392.225 219.283 391.866 219.435 391.368H220.367ZM214.834 405.44H212.409V395.41H214.171V403.513L219.145 395.41H221.569V405.44H219.808V397.15L214.834 405.44Z" fill="#132436"/>
<rect x="334.095" y="382.259" width="59.9053" height="32.3621" rx="6.47632" fill="#00DC82"/>
<path d="M353.739 393.016H348.009V391.747H355.389V392.109L351.074 404.44H349.714L353.739 393.016ZM357.457 408.792H356.115L360.612 391.747H361.954L357.457 408.792ZM366.274 393.433L363.899 394.34V392.98L367.58 391.565V404.44H366.274V393.433ZM375.638 404.549C374.986 404.549 374.399 404.398 373.88 404.096C373.36 403.781 372.924 403.346 372.574 402.79C372.223 402.222 371.951 401.545 371.758 400.759C371.577 399.961 371.486 399.079 371.486 398.111C371.486 397.072 371.589 396.153 371.794 395.355C372.012 394.545 372.308 393.868 372.683 393.324C373.057 392.768 373.493 392.351 373.988 392.073C374.484 391.783 375.016 391.638 375.584 391.638C376.237 391.638 376.817 391.795 377.325 392.109C377.845 392.411 378.28 392.847 378.631 393.415C378.993 393.971 379.265 394.648 379.447 395.446C379.628 396.232 379.719 397.108 379.719 398.075C379.719 399.115 379.61 400.04 379.392 400.85C379.187 401.648 378.896 402.325 378.522 402.881C378.159 403.425 377.73 403.842 377.234 404.132C376.739 404.41 376.207 404.549 375.638 404.549ZM375.638 403.28C376.001 403.28 376.346 403.183 376.672 402.989C377.011 402.796 377.301 402.494 377.543 402.083C377.796 401.66 377.996 401.122 378.141 400.469C378.286 399.804 378.359 399.006 378.359 398.075C378.359 397.193 378.286 396.425 378.141 395.772C378.008 395.119 377.821 394.581 377.579 394.158C377.337 393.735 377.047 393.421 376.708 393.215C376.37 393.01 375.995 392.907 375.584 392.907C375.221 392.907 374.871 393.004 374.532 393.197C374.206 393.391 373.916 393.699 373.662 394.122C373.408 394.533 373.209 395.071 373.063 395.736C372.918 396.389 372.846 397.181 372.846 398.111C372.846 399.006 372.912 399.78 373.045 400.433C373.19 401.073 373.384 401.605 373.626 402.028C373.88 402.451 374.176 402.766 374.514 402.971C374.853 403.177 375.227 403.28 375.638 403.28Z" fill="white"/>
<g clip-path="url(#clip5_1353_562)">
<circle cx="23.8858" cy="446.345" r="3.88579" fill="#007CFF"/>
</g>
<path d="M41.4707 450.672V449.263C42.5069 449.525 43.5155 449.656 44.4964 449.656C45.6017 449.656 46.3271 449.546 46.6725 449.325C47.0179 449.09 47.1906 448.606 47.1906 447.874V446.361H42.1339V444.952H47.1906V443.729C47.1906 442.873 47.0386 442.334 46.7346 442.113C46.4445 441.892 45.7675 441.781 44.7037 441.781C43.7227 441.781 42.6934 441.919 41.6158 442.196V440.828C42.5691 440.621 43.5224 440.517 44.4757 440.517C45.0007 440.517 45.4152 440.531 45.7191 440.559C46.0369 440.572 46.3961 440.614 46.7968 440.683C47.2113 440.738 47.536 440.842 47.7708 440.994C48.0057 441.146 48.2337 441.346 48.4547 441.595C48.6758 441.843 48.8347 442.168 48.9314 442.569C49.0419 442.969 49.0972 443.446 49.0972 443.999V447.688C49.0972 448.309 49.0143 448.834 48.8485 449.263C48.6827 449.677 48.4824 449.995 48.2475 450.216C48.0264 450.437 47.6949 450.61 47.2527 450.734C46.8244 450.845 46.4376 450.907 46.0922 450.921C45.7606 450.948 45.2908 450.962 44.6829 450.962C43.4533 450.962 42.3825 450.865 41.4707 450.672ZM61.1145 454.858H59.2493V450.506C58.3375 450.81 57.4601 450.962 56.6173 450.962C55.7884 450.962 55.139 450.934 54.6693 450.879C54.2133 450.824 53.7505 450.693 53.2807 450.485C52.8248 450.264 52.4932 449.919 52.286 449.449C52.0926 448.98 51.9958 448.358 51.9958 447.584V444.102C51.9958 443.439 52.0718 442.88 52.2238 442.424C52.3896 441.968 52.583 441.615 52.8041 441.367C53.039 441.118 53.3775 440.932 53.8196 440.807C54.2617 440.669 54.6693 440.586 55.0423 440.559C55.4292 440.531 55.9542 440.517 56.6173 440.517C57.5016 440.517 58.3789 440.676 59.2493 440.994V436.393H61.1145V440.994C62.0402 440.676 62.9106 440.517 63.7258 440.517C64.3889 440.517 64.907 440.531 65.2801 440.559C65.6669 440.586 66.0814 440.669 66.5235 440.807C66.9656 440.932 67.2972 441.118 67.5183 441.367C67.7532 441.615 67.9466 441.968 68.0986 442.424C68.2644 442.88 68.3473 443.439 68.3473 444.102V447.584C68.3473 448.206 68.2713 448.731 68.1193 449.159C67.9673 449.587 67.7739 449.919 67.539 450.154C67.3041 450.389 66.9656 450.568 66.5235 450.693C66.0952 450.817 65.6807 450.893 65.2801 450.921C64.8932 450.948 64.3751 450.962 63.7258 450.962C62.9521 450.962 62.0816 450.81 61.1145 450.506V454.858ZM56.6173 449.739C58.372 449.739 59.2493 449.242 59.2493 448.247V443.294C59.2493 442.258 58.372 441.74 56.6173 441.74C55.5535 441.74 54.8351 441.85 54.462 442.071C54.089 442.292 53.9025 442.866 53.9025 443.792V447.853C53.9025 448.296 53.9508 448.648 54.0475 448.91C54.1443 449.173 54.3239 449.366 54.5864 449.491C54.8489 449.601 55.1183 449.67 55.3946 449.698C55.6709 449.726 56.0785 449.739 56.6173 449.739ZM66.4406 447.853V443.792C66.4406 442.866 66.2541 442.292 65.8811 442.071C65.508 441.85 64.7896 441.74 63.7258 441.74C61.9849 441.74 61.1145 442.23 61.1145 443.211V448.33C61.1145 448.8 61.3494 449.152 61.8191 449.387C62.3027 449.622 62.9382 449.739 63.7258 449.739C64.2646 449.739 64.6722 449.726 64.9485 449.698C65.2248 449.67 65.4942 449.601 65.7567 449.491C66.0192 449.366 66.1988 449.173 66.2956 448.91C66.3923 448.648 66.4406 448.296 66.4406 447.853ZM80.371 454.858H78.5059V450.506C77.594 450.81 76.7167 450.962 75.8739 450.962C75.0449 450.962 74.3956 450.934 73.9258 450.879C73.4699 450.824 73.007 450.693 72.5373 450.485C72.0813 450.264 71.7498 449.919 71.5425 449.449C71.3491 448.98 71.2524 448.358 71.2524 447.584V444.102C71.2524 443.439 71.3284 442.88 71.4803 442.424C71.6461 441.968 71.8396 441.615 72.0606 441.367C72.2955 441.118 72.634 440.932 73.0761 440.807C73.5182 440.669 73.9258 440.586 74.2988 440.559C74.6857 440.531 75.2107 440.517 75.8739 440.517C76.7581 440.517 77.6354 440.676 78.5059 440.994V436.393H80.371V440.994C81.2967 440.676 82.1671 440.517 82.9823 440.517C83.6455 440.517 84.1636 440.531 84.5366 440.559C84.9235 440.586 85.3379 440.669 85.7801 440.807C86.2222 440.932 86.5538 441.118 86.7748 441.367C87.0097 441.615 87.2031 441.968 87.3551 442.424C87.5209 442.88 87.6038 443.439 87.6038 444.102V447.584C87.6038 448.206 87.5278 448.731 87.3758 449.159C87.2239 449.587 87.0304 449.919 86.7956 450.154C86.5607 450.389 86.2222 450.568 85.7801 450.693C85.3518 450.817 84.9373 450.893 84.5366 450.921C84.1498 450.948 83.6317 450.962 82.9823 450.962C82.2086 450.962 81.3382 450.81 80.371 450.506V454.858ZM75.8739 449.739C77.6285 449.739 78.5059 449.242 78.5059 448.247V443.294C78.5059 442.258 77.6285 441.74 75.8739 441.74C74.81 441.74 74.0916 441.85 73.7186 442.071C73.3455 442.292 73.159 442.866 73.159 443.792V447.853C73.159 448.296 73.2074 448.648 73.3041 448.91C73.4008 449.173 73.5804 449.366 73.8429 449.491C74.1054 449.601 74.3748 449.67 74.6512 449.698C74.9275 449.726 75.3351 449.739 75.8739 449.739ZM85.6972 447.853V443.792C85.6972 442.866 85.5106 442.292 85.1376 442.071C84.7646 441.85 84.0461 441.74 82.9823 441.74C81.2415 441.74 80.371 442.23 80.371 443.211V448.33C80.371 448.8 80.6059 449.152 81.0757 449.387C81.5592 449.622 82.1948 449.739 82.9823 449.739C83.5211 449.739 83.9287 449.726 84.205 449.698C84.4813 449.67 84.7508 449.601 85.0133 449.491C85.2758 449.366 85.4554 449.173 85.5521 448.91C85.6488 448.648 85.6972 448.296 85.6972 447.853ZM99.1302 446.154H92.3948V447.667C92.3948 448.372 92.6435 448.876 93.1409 449.18C93.6521 449.47 94.4189 449.615 95.4413 449.615C96.3393 449.615 97.4377 449.449 98.7364 449.118V450.548C97.4377 450.824 96.1459 450.962 94.861 450.962C93.5761 450.962 92.5261 450.72 91.7109 450.237C90.9096 449.739 90.5089 448.959 90.5089 447.895V443.937C90.5089 442.707 90.8612 441.83 91.5659 441.305C92.2705 440.78 93.3965 440.517 94.9439 440.517C96.3946 440.517 97.4515 440.773 98.1147 441.284C98.7917 441.781 99.1302 442.666 99.1302 443.937V446.154ZM97.265 444.931V443.356C97.265 442.748 97.0785 442.334 96.7055 442.113C96.3462 441.878 95.7452 441.761 94.9025 441.761C94.0459 441.761 93.4103 441.871 92.9958 442.092C92.5952 442.299 92.3948 442.721 92.3948 443.356V444.931H97.265ZM102.366 450.755V440.724H104.232V445.056C104.715 445.056 105.081 444.987 105.33 444.848C105.592 444.71 105.876 444.399 106.18 443.916L107.195 442.279C107.582 441.643 107.976 441.229 108.376 441.035C108.791 440.828 109.378 440.724 110.138 440.724H110.843V441.781H110.449C109.744 441.781 109.164 442.147 108.708 442.88L107.921 444.165C107.437 445.007 106.94 445.491 106.428 445.615C106.815 445.712 107.575 446.389 108.708 447.646L111.506 450.755H109.205L106.47 447.646C106.069 447.19 105.703 446.852 105.371 446.631C105.04 446.41 104.819 446.292 104.708 446.278C104.598 446.265 104.439 446.258 104.232 446.258V450.755H102.366ZM121.805 442.092H117.888V450.755H116.023V442.092H112.085V440.724H121.805V442.092ZM126.75 450.755H124.325V440.724H126.086V448.828L131.06 440.724H133.485V450.755H131.723V442.465L126.75 450.755ZM146.14 447.501V448.102C146.14 449.097 145.823 449.788 145.187 450.175C144.565 450.561 143.432 450.755 141.788 450.755H137.25V440.724H141.643C142.527 440.724 143.239 440.78 143.778 440.89C144.33 440.987 144.724 441.16 144.959 441.408C145.208 441.657 145.367 441.906 145.436 442.154C145.505 442.403 145.539 442.742 145.539 443.17V443.522C145.539 444.075 145.394 444.482 145.104 444.745C144.814 444.994 144.358 445.187 143.736 445.325V445.408C145.339 445.671 146.14 446.368 146.14 447.501ZM143.757 443.46V443.336C143.757 442.811 143.633 442.458 143.384 442.279C143.135 442.099 142.59 442.009 141.747 442.009H139.115V444.952H141.809C142.638 444.952 143.17 444.848 143.405 444.641C143.64 444.434 143.757 444.04 143.757 443.46ZM144.234 448.04V447.377C144.234 447.018 144.082 446.727 143.778 446.506C143.488 446.285 142.894 446.175 141.996 446.175H139.115V449.408H141.892C142.859 449.408 143.488 449.311 143.778 449.118C144.082 448.924 144.234 448.565 144.234 448.04ZM158.083 450.755H156.217V446.258H151.285V450.755H149.42V440.724H151.285V444.89H156.217V440.724H158.083V450.755ZM170.605 444.102V447.584C170.605 448.206 170.529 448.731 170.377 449.159C170.225 449.587 170.031 449.919 169.796 450.154C169.561 450.389 169.223 450.568 168.781 450.693C168.352 450.817 167.938 450.893 167.537 450.921C167.15 450.948 166.632 450.962 165.983 450.962C165.154 450.962 164.505 450.934 164.035 450.879C163.579 450.824 163.116 450.693 162.646 450.485C162.19 450.264 161.859 449.919 161.652 449.449C161.458 448.98 161.362 448.358 161.362 447.584V444.102C161.362 443.439 161.437 442.88 161.589 442.424C161.755 441.968 161.949 441.615 162.17 441.367C162.405 441.118 162.743 440.932 163.185 440.807C163.627 440.669 164.035 440.586 164.408 440.559C164.795 440.531 165.32 440.517 165.983 440.517C166.646 440.517 167.164 440.531 167.537 440.559C167.924 440.586 168.339 440.669 168.781 440.807C169.223 440.932 169.554 441.118 169.776 441.367C170.01 441.615 170.204 441.968 170.356 442.424C170.522 442.88 170.605 443.439 170.605 444.102ZM168.698 447.853V443.792C168.698 442.866 168.511 442.292 168.138 442.071C167.765 441.85 167.047 441.74 165.983 441.74C164.919 441.74 164.201 441.85 163.828 442.071C163.455 442.292 163.268 442.866 163.268 443.792V447.853C163.268 448.296 163.316 448.648 163.413 448.91C163.51 449.173 163.69 449.366 163.952 449.491C164.215 449.601 164.484 449.67 164.76 449.698C165.037 449.726 165.444 449.739 165.983 449.739C166.522 449.739 166.929 449.726 167.206 449.698C167.482 449.67 167.751 449.601 168.014 449.491C168.276 449.366 168.456 449.173 168.553 448.91C168.65 448.648 168.698 448.296 168.698 447.853ZM181.181 450.672C180.269 450.865 179.199 450.962 177.969 450.962C177.361 450.962 176.885 450.948 176.539 450.921C176.208 450.907 175.821 450.845 175.379 450.734C174.95 450.61 174.619 450.437 174.384 450.216C174.163 449.995 173.969 449.677 173.804 449.263C173.638 448.834 173.555 448.309 173.555 447.688V443.999C173.555 443.446 173.603 442.969 173.7 442.569C173.81 442.168 173.976 441.843 174.197 441.595C174.418 441.346 174.646 441.146 174.881 440.994C175.116 440.842 175.434 440.738 175.834 440.683C176.249 440.614 176.608 440.572 176.912 440.559C177.23 440.531 177.651 440.517 178.176 440.517C179.13 440.517 180.083 440.621 181.036 440.828V442.196C179.959 441.919 178.929 441.781 177.948 441.781C176.885 441.781 176.201 441.892 175.897 442.113C175.607 442.334 175.461 442.873 175.461 443.729V447.874C175.461 448.606 175.634 449.09 175.98 449.325C176.325 449.546 177.05 449.656 178.156 449.656C179.137 449.656 180.145 449.525 181.181 449.263V450.672ZM192.556 442.092H188.639V450.755H186.774V442.092H182.837V440.724H192.556V442.092ZM199.926 450.755H195.201V440.724H197.107V444.351H200.092C201.321 444.351 202.212 444.496 202.765 444.786C203.318 445.076 203.594 445.65 203.594 446.506V448.579C203.594 450.03 202.371 450.755 199.926 450.755ZM201.77 448.33V447.066C201.77 446.486 201.646 446.099 201.397 445.905C201.162 445.698 200.644 445.595 199.843 445.595H197.087V449.553H199.801C200.05 449.553 200.257 449.546 200.423 449.532C200.603 449.505 200.81 449.463 201.045 449.408C201.28 449.339 201.459 449.214 201.584 449.035C201.708 448.841 201.77 448.606 201.77 448.33ZM211.711 450.755V440.724H213.576V445.056C214.06 445.056 214.426 444.987 214.675 444.848C214.937 444.71 215.22 444.399 215.524 443.916L216.54 442.279C216.927 441.643 217.32 441.229 217.721 441.035C218.136 440.828 218.723 440.724 219.483 440.724H220.187V441.781H219.793C219.089 441.781 218.509 442.147 218.053 442.88L217.265 444.165C216.782 445.007 216.284 445.491 215.773 445.615C216.16 445.712 216.92 446.389 218.053 447.646L220.85 450.755H218.55L215.814 447.646C215.414 447.19 215.048 446.852 214.716 446.631C214.384 446.41 214.163 446.292 214.053 446.278C213.942 446.265 213.783 446.258 213.576 446.258V450.755H211.711ZM230.465 450.755H228.662V449.802C228.511 450.575 227.502 450.962 225.637 450.962C224.255 450.962 223.295 450.755 222.756 450.34C222.231 449.912 221.969 449.055 221.969 447.771C221.969 446.651 222.217 445.885 222.715 445.47C223.212 445.042 224.172 444.828 225.595 444.828H228.6V443.232C228.6 442.679 228.428 442.306 228.082 442.113C227.751 441.919 227.115 441.823 226.176 441.823C225.153 441.823 224.006 441.906 222.735 442.071V440.704C224.103 440.579 225.34 440.517 226.445 440.517C228.131 440.517 229.222 440.724 229.719 441.139C230.217 441.54 230.465 442.382 230.465 443.667V450.755ZM228.6 448.765V445.988H225.72C224.863 445.988 224.324 446.099 224.103 446.32C223.896 446.541 223.792 447.045 223.792 447.833C223.792 448.551 223.903 449.055 224.124 449.346C224.359 449.636 224.842 449.781 225.575 449.781H225.948C226.307 449.781 226.604 449.774 226.839 449.76C227.087 449.746 227.364 449.712 227.668 449.656C227.972 449.587 228.2 449.484 228.352 449.346C228.517 449.194 228.6 449 228.6 448.765ZM246.114 450.755H244.394V442.424H244.29L241.202 450.755H239.317L236.104 442.424H236.001V450.755H234.239V440.724H237.244L240.291 448.89H240.373L243.213 440.724H246.114V450.755ZM258.491 450.755H256.626V442.092H251.88V450.755H250.015V440.724H258.491V450.755ZM270.182 450.755H268.379V449.802C268.227 450.575 267.219 450.962 265.354 450.962C263.972 450.962 263.012 450.755 262.473 450.34C261.948 449.912 261.685 449.055 261.685 447.771C261.685 446.651 261.934 445.885 262.431 445.47C262.929 445.042 263.889 444.828 265.312 444.828H268.317V443.232C268.317 442.679 268.144 442.306 267.799 442.113C267.467 441.919 266.832 441.823 265.892 441.823C264.87 441.823 263.723 441.906 262.452 442.071V440.704C263.82 440.579 265.057 440.517 266.162 440.517C267.847 440.517 268.939 440.724 269.436 441.139C269.934 441.54 270.182 442.382 270.182 443.667V450.755ZM268.317 448.765V445.988H265.436C264.58 445.988 264.041 446.099 263.82 446.32C263.613 446.541 263.509 447.045 263.509 447.833C263.509 448.551 263.62 449.055 263.841 449.346C264.076 449.636 264.559 449.781 265.291 449.781H265.664C266.024 449.781 266.321 449.774 266.556 449.76C266.804 449.746 267.081 449.712 267.385 449.656C267.689 449.587 267.916 449.484 268.068 449.346C268.234 449.194 268.317 449 268.317 448.765ZM282.494 450.755H280.629V446.258H275.697V450.755H273.832V440.724H275.697V444.89H280.629V440.724H282.494V450.755ZM288.571 450.755H286.146V440.724H287.908V448.828L292.882 440.724H295.306V450.755H293.545V442.465L288.571 450.755ZM301.372 450.755H298.947V440.724H300.708V448.828L305.682 440.724H308.107V450.755H306.345V442.465L301.372 450.755Z" fill="#132436"/>
<rect x="332.095" y="427.574" width="61.9053" height="32.3621" rx="6.47632" fill="#FEB614"/>
<path d="M350.506 449.864C349.926 449.864 349.376 449.773 348.856 449.592C348.348 449.41 347.901 449.144 347.514 448.794C347.127 448.443 346.819 448.002 346.589 447.47C346.36 446.938 346.245 446.328 346.245 445.639C346.245 444.732 346.432 443.874 346.807 443.064C347.194 442.254 347.701 441.401 348.33 440.507L350.724 437.061H352.211V437.206L348.312 442.665C348.65 442.387 349.025 442.163 349.436 441.994C349.859 441.824 350.325 441.74 350.833 441.74C351.328 441.74 351.806 441.83 352.265 442.012C352.737 442.181 353.154 442.441 353.516 442.792C353.879 443.13 354.169 443.553 354.387 444.061C354.604 444.557 354.713 445.137 354.713 445.802C354.713 446.491 354.598 447.089 354.369 447.597C354.139 448.105 353.825 448.528 353.426 448.866C353.039 449.193 352.591 449.441 352.084 449.61C351.576 449.779 351.05 449.864 350.506 449.864ZM350.488 448.685C350.875 448.685 351.244 448.625 351.594 448.504C351.957 448.371 352.271 448.183 352.537 447.942C352.803 447.7 353.015 447.404 353.172 447.053C353.329 446.69 353.407 446.273 353.407 445.802C353.407 445.33 353.329 444.913 353.172 444.551C353.027 444.188 352.821 443.88 352.555 443.626C352.289 443.372 351.975 443.178 351.612 443.045C351.262 442.912 350.881 442.846 350.47 442.846C350.071 442.846 349.69 442.912 349.327 443.045C348.977 443.166 348.669 443.354 348.403 443.608C348.137 443.849 347.925 444.152 347.768 444.514C347.623 444.865 347.55 445.27 347.55 445.729C347.55 446.201 347.629 446.624 347.786 446.999C347.943 447.361 348.155 447.67 348.421 447.923C348.687 448.165 348.995 448.353 349.346 448.486C349.708 448.619 350.089 448.685 350.488 448.685ZM356.98 454.107H355.638L360.135 437.061H361.477L356.98 454.107ZM365.797 438.748L363.422 439.654V438.294L367.103 436.88V449.755H365.797V438.748ZM375.161 449.864C374.509 449.864 373.922 449.713 373.402 449.41C372.883 449.096 372.447 448.661 372.097 448.105C371.746 447.537 371.474 446.86 371.281 446.074C371.099 445.276 371.009 444.393 371.009 443.426C371.009 442.387 371.112 441.468 371.317 440.67C371.535 439.86 371.831 439.183 372.206 438.639C372.58 438.083 373.016 437.666 373.511 437.388C374.007 437.098 374.539 436.952 375.107 436.952C375.76 436.952 376.34 437.11 376.848 437.424C377.368 437.726 377.803 438.161 378.153 438.73C378.516 439.286 378.788 439.963 378.969 440.761C379.151 441.546 379.242 442.423 379.242 443.39C379.242 444.43 379.133 445.354 378.915 446.164C378.71 446.962 378.419 447.639 378.045 448.195C377.682 448.739 377.253 449.156 376.757 449.447C376.262 449.725 375.73 449.864 375.161 449.864ZM375.161 448.594C375.524 448.594 375.869 448.498 376.195 448.304C376.534 448.111 376.824 447.809 377.065 447.398C377.319 446.974 377.519 446.436 377.664 445.784C377.809 445.119 377.881 444.321 377.881 443.39C377.881 442.507 377.809 441.74 377.664 441.087C377.531 440.434 377.344 439.896 377.102 439.473C376.86 439.05 376.57 438.736 376.231 438.53C375.893 438.325 375.518 438.222 375.107 438.222C374.744 438.222 374.394 438.319 374.055 438.512C373.729 438.705 373.439 439.014 373.185 439.437C372.931 439.848 372.732 440.386 372.586 441.051C372.441 441.704 372.369 442.495 372.369 443.426C372.369 444.321 372.435 445.095 372.568 445.747C372.713 446.388 372.907 446.92 373.149 447.343C373.402 447.766 373.699 448.081 374.037 448.286C374.376 448.492 374.75 448.594 375.161 448.594Z" fill="white"/>
<defs>
<clipPath id="clip0_1353_562">
<rect width="7.77159" height="14.2479" fill="white" transform="translate(20 210.057)"/>
</clipPath>
<clipPath id="clip1_1353_562">
<rect width="7.77159" height="14.2479" fill="white" transform="translate(20 255.372)"/>
</clipPath>
<clipPath id="clip2_1353_562">
<rect width="7.77159" height="14.2479" fill="white" transform="translate(20 300.687)"/>
</clipPath>
<clipPath id="clip3_1353_562">
<rect width="7.77159" height="14.2479" fill="white" transform="translate(20 346.001)"/>
</clipPath>
<clipPath id="clip4_1353_562">
<rect width="7.77159" height="14.2479" fill="white" transform="translate(20 391.316)"/>
</clipPath>
<clipPath id="clip5_1353_562">
<rect width="7.77159" height="14.2479" fill="white" transform="translate(20 436.631)"/>
</clipPath>
</defs>
</svg>
