<svg width="1920" height="898" viewBox="0 0 1920 898" fill="none" xmlns="http://www.w3.org/2000/svg">
<g clip-path="url(#clip0_1454_469)">
<rect width="1920" height="1080" fill="#F5F5F5"/>
<g opacity="0.2" filter="url(#filter0_f_1454_469)">
<circle cx="792" cy="310" r="288" fill="#007CFF"/>
</g>
<g opacity="0.1" filter="url(#filter1_f_1454_469)">
<circle cx="1606" cy="448" r="236" fill="#1400DC"/>
</g>
<path d="M265 -8L265.348 80.3591L274.93 -7.47958L266.04 80.4319L284.752 -5.92402L266.721 80.5766L294.357 -3.35037L267.383 80.7917L303.64 0.213181L268.019 81.0748L312.5 4.72758L268.622 81.4228L320.84 10.1434L269.185 81.832L328.567 16.4012L269.702 82.2977L335.599 23.4326L270.168 82.815L341.857 31.1604L270.577 83.3782L347.272 39.5L270.925 83.981L351.787 48.36L271.208 84.6169L355.35 57.6434L271.423 85.2789L357.924 67.2484L271.568 85.9597L359.48 77.0698L271.641 86.652L360 87L271.641 87.348L359.48 96.9302L271.568 88.0403L357.924 106.752L271.423 88.7211L355.35 116.357L271.208 89.3831L351.787 125.64L270.925 90.019L347.272 134.5L270.577 90.6218L341.857 142.84L270.168 91.185L335.599 150.567L269.702 91.7023L328.567 157.599L269.185 92.168L320.84 163.857L268.622 92.5772L312.5 169.272L268.019 92.9252L303.64 173.787L267.383 93.2083L294.357 177.35L266.721 93.4234L284.752 179.924L266.04 93.5681L274.93 181.48L265.348 93.6409L265 182L264.652 93.6409L255.07 181.48L263.96 93.5681L245.248 179.924L263.279 93.4234L235.643 177.35L262.617 93.2083L226.36 173.787L261.981 92.9252L217.5 169.272L261.378 92.5772L209.16 163.857L260.815 92.168L201.433 157.599L260.298 91.7023L194.401 150.567L259.832 91.185L188.143 142.84L259.423 90.6218L182.728 134.5L259.075 90.019L178.213 125.64L258.792 89.3831L174.65 116.357L258.577 88.7211L172.076 106.752L258.432 88.0403L170.52 96.9302L258.359 87.348L170 87L258.359 86.652L170.52 77.0698L258.432 85.9597L172.076 67.2484L258.577 85.2789L174.65 57.6434L258.792 84.6169L178.213 48.36L259.075 83.981L182.728 39.5L259.423 83.3782L188.143 31.1604L259.832 82.815L194.401 23.4326L260.298 82.2977L201.433 16.4012L260.815 81.832L209.16 10.1434L261.378 81.4228L217.5 4.72758L261.981 81.0748L226.36 0.213181L262.617 80.7917L235.643 -3.35037L263.279 80.5766L245.248 -5.92402L263.96 80.4319L255.07 -7.47958L264.652 80.3591L265 -8Z" fill="#007CFF"/>
<g opacity="0.05" filter="url(#filter2_f_1454_469)">
<circle cx="413" cy="951" r="236" fill="#DC005A"/>
</g>
</g>
<defs>
<filter id="filter0_f_1454_469" x="4" y="-478" width="1576" height="1576" filterUnits="userSpaceOnUse" color-interpolation-filters="sRGB">
<feFlood flood-opacity="0" result="BackgroundImageFix"/>
<feBlend mode="normal" in="SourceGraphic" in2="BackgroundImageFix" result="shape"/>
<feGaussianBlur stdDeviation="250" result="effect1_foregroundBlur_1454_469"/>
</filter>
<filter id="filter1_f_1454_469" x="1170" y="12" width="872" height="872" filterUnits="userSpaceOnUse" color-interpolation-filters="sRGB">
<feFlood flood-opacity="0" result="BackgroundImageFix"/>
<feBlend mode="normal" in="SourceGraphic" in2="BackgroundImageFix" result="shape"/>
<feGaussianBlur stdDeviation="100" result="effect1_foregroundBlur_1454_469"/>
</filter>
<filter id="filter2_f_1454_469" x="-23" y="515" width="872" height="872" filterUnits="userSpaceOnUse" color-interpolation-filters="sRGB">
<feFlood flood-opacity="0" result="BackgroundImageFix"/>
<feBlend mode="normal" in="SourceGraphic" in2="BackgroundImageFix" result="shape"/>
<feGaussianBlur stdDeviation="100" result="effect1_foregroundBlur_1454_469"/>
</filter>
<clipPath id="clip0_1454_469">
<rect width="1920" height="1080" fill="white"/>
</clipPath>
</defs>
</svg>
