<svg width="375" height="503" viewBox="0 0 375 503" fill="none" xmlns="http://www.w3.org/2000/svg">
<g clip-path="url(#clip0_1507_1677)">
<rect width="1920" height="1080" fill="#F5F5F5"/>
<g opacity="0.2" filter="url(#filter0_f_1507_1677)">
<circle cx="321.5" cy="98.5" r="98.5" fill="#007CFF"/>
</g>
<g opacity="0.1" filter="url(#filter1_f_1507_1677)">
<circle cx="44" cy="479" r="95" fill="#1400DC"/>
</g>
<path d="M20 -21L20.1795 24.5747L25.1219 -20.7316L20.5366 24.6122L30.1877 -19.9292L20.8877 24.6869L35.1418 -18.6018L21.2292 24.7978L39.9301 -16.7637L21.5572 24.9438L44.5 -14.4352L21.8681 25.1234L48.8015 -11.6418L22.1586 25.3344L52.7874 -8.4141L22.4254 25.5746L56.4141 -4.7874L22.6656 25.8414L59.6418 -0.801477L22.8766 26.1319L62.4352 3.5L23.0562 26.4428L64.7637 8.0699L23.2022 26.7708L66.6018 12.8582L23.3131 27.1123L67.9292 17.8123L23.3878 27.4634L68.7316 22.8781L23.4253 27.8205L69 28L23.4253 28.1795L68.7316 33.1219L23.3878 28.5366L67.9292 38.1877L23.3131 28.8877L66.6018 43.1418L23.2022 29.2292L64.7637 47.9301L23.0562 29.5572L62.4352 52.5L22.8766 29.8681L59.6418 56.8015L22.6656 30.1586L56.4141 60.7874L22.4254 30.4254L52.7874 64.4141L22.1586 30.6656L48.8015 67.6418L21.8681 30.8766L44.5 70.4352L21.5572 31.0562L39.9301 72.7637L21.2292 31.2022L35.1418 74.6018L20.8877 31.3131L30.1877 75.9292L20.5366 31.3878L25.1219 76.7316L20.1795 31.4253L20 77L19.8205 31.4253L14.8781 76.7316L19.4634 31.3878L9.81233 75.9292L19.1123 31.3131L4.85817 74.6018L18.7708 31.2022L0.0699043 72.7637L18.4428 31.0562L-4.5 70.4352L18.1319 30.8766L-8.80148 67.6418L17.8414 30.6656L-12.7874 64.4141L17.5746 30.4254L-16.4141 60.7874L17.3344 30.1586L-19.6418 56.8015L17.1234 29.8681L-22.4352 52.5L16.9438 29.5572L-24.7637 47.9301L16.7978 29.2292L-26.6018 43.1418L16.6869 28.8877L-27.9292 38.1877L16.6122 28.5366L-28.7316 33.1219L16.5747 28.1795L-29 28L16.5747 27.8205L-28.7316 22.8781L16.6122 27.4634L-27.9292 17.8123L16.6869 27.1123L-26.6018 12.8582L16.7978 26.7708L-24.7637 8.0699L16.9438 26.4428L-22.4352 3.5L17.1234 26.1319L-19.6418 -0.801477L17.3344 25.8414L-16.4141 -4.7874L17.5746 25.5746L-12.7874 -8.4141L17.8414 25.3344L-8.80148 -11.6418L18.1319 25.1234L-4.5 -14.4352L18.4428 24.9438L0.0699043 -16.7637L18.7708 24.7978L4.85817 -18.6018L19.1123 24.6869L9.81233 -19.9292L19.4634 24.6122L14.8781 -20.7316L19.8205 24.5747L20 -21Z" fill="#007CFF"/>
</g>
<defs>
<filter id="filter0_f_1507_1677" x="23" y="-200" width="597" height="597" filterUnits="userSpaceOnUse" color-interpolation-filters="sRGB">
<feFlood flood-opacity="0" result="BackgroundImageFix"/>
<feBlend mode="normal" in="SourceGraphic" in2="BackgroundImageFix" result="shape"/>
<feGaussianBlur stdDeviation="100" result="effect1_foregroundBlur_1507_1677"/>
</filter>
<filter id="filter1_f_1507_1677" x="-151" y="284" width="390" height="390" filterUnits="userSpaceOnUse" color-interpolation-filters="sRGB">
<feFlood flood-opacity="0" result="BackgroundImageFix"/>
<feBlend mode="normal" in="SourceGraphic" in2="BackgroundImageFix" result="shape"/>
<feGaussianBlur stdDeviation="50" result="effect1_foregroundBlur_1507_1677"/>
</filter>
<clipPath id="clip0_1507_1677">
<rect width="2071" height="1587" fill="white" transform="translate(-151 -200)"/>
</clipPath>
</defs>
</svg>
