<svg width="129" height="63" viewBox="0 0 129 63" fill="none" xmlns="http://www.w3.org/2000/svg">
<g clip-path="url(#clip0_1366_1156)">
<mask id="mask0_1366_1156" style="mask-type:luminance" maskUnits="userSpaceOnUse" x="0" y="0" width="129" height="63">
<path d="M129 0H0V63H129V0Z" fill="white"/>
</mask>
<g mask="url(#mask0_1366_1156)">
<mask id="mask1_1366_1156" style="mask-type:alpha" maskUnits="userSpaceOnUse" x="11" y="0" width="104" height="63">
<mask id="mask2_1366_1156" style="mask-type:luminance" maskUnits="userSpaceOnUse" x="11" y="0" width="105" height="63">
<path d="M115.48 0H11V63H115.48V0Z" fill="white"/>
</mask>
<g mask="url(#mask2_1366_1156)">
<path d="M47.568 0H114.435L78.912 63H11L47.568 0Z" fill="black"/>
</g>
</mask>
<g mask="url(#mask1_1366_1156)">
<path d="M115.48 0H11V63H115.48V0Z" fill="#FFD200"/>
</g>
<mask id="mask3_1366_1156" style="mask-type:luminance" maskUnits="userSpaceOnUse" x="0" y="12" width="129" height="39">
<path d="M129 12.7334H0V50.2673H129V12.7334Z" fill="white"/>
</mask>
<g mask="url(#mask3_1366_1156)">
<path d="M0 49.5383H19.9227V43.4995H6.53717V33.6933H18.3662V27.6547H6.53717V19.4487H19.5076V13.4102H0V49.5383Z" fill="#0F0F0F"/>
<path d="M26.9102 49.5383H33.4992V33.6933H45.2245V27.4485H33.4992V19.4487H46.4697V13.4102H26.9102V49.5383Z" fill="#0F0F0F"/>
<path d="M73.4516 23.5769C73.4516 20.4288 72.4137 17.8483 70.3905 15.887C68.367 13.8742 65.8766 12.8936 62.8677 12.8936C59.9102 12.8936 57.3681 13.8742 55.2928 15.7838C53.2693 17.6934 52.2318 20.1191 52.2318 22.9578C52.1797 29.5124 57.7832 32.1962 61.9338 34.2092C64.8909 35.6541 67.2774 37.6153 67.2774 40.2992C67.2774 42.2087 65.3577 44.015 63.0751 44.015H62.5044C60.1697 44.015 58.25 42.1573 58.25 39.938V38.2862H51.6611V39.938C51.6611 42.725 52.6986 45.0991 54.7739 47.1118C56.9013 49.073 59.4434 50.0538 62.4006 50.0538H63.2307C66.1878 50.0538 68.7303 49.073 70.8056 47.1118C72.8809 45.0991 73.9184 42.725 73.9184 39.938C73.9705 33.0737 68.367 29.8221 64.1129 27.8609C61.2075 26.3643 58.8206 24.6093 58.8206 22.4932C58.8206 20.4805 60.6365 18.9322 62.8677 18.9322C65.1504 18.9322 66.9145 20.9448 66.9145 23.5769H73.4516Z" fill="#0F0F0F"/>
<path d="M103.398 22.8492C103.398 20.0622 102.36 17.6882 100.284 15.7269C98.2094 13.7141 95.719 12.7334 92.7619 12.7334H91.9318C88.9742 12.7334 86.4842 13.7141 84.3568 15.7269C82.2815 17.6882 81.2441 20.0622 81.2441 22.8492V39.726C81.2441 42.513 82.2815 44.8874 84.3568 46.9001C86.4842 48.9131 88.9742 49.8938 91.9318 49.8938H92.7619C95.719 49.8938 98.2094 48.9131 100.284 46.9518C102.36 44.9388 103.398 42.5647 103.398 39.7777V22.8492ZM96.8604 40.0875C96.8604 42.1518 94.8889 43.8551 92.6063 43.8551H92.0874C89.8047 43.8551 87.8329 42.1518 87.8329 40.0357V22.5395C87.8329 20.4751 89.8047 18.7719 92.0874 18.7719H92.658C94.9407 18.7719 96.8604 20.4234 96.8604 22.5395V40.0875Z" fill="#0F0F0F"/>
<path d="M110.883 49.5383H128.834V43.4995H117.472V13.4102H110.883V49.5383Z" fill="#0F0F0F"/>
</g>
</g>
</g>
<defs>
<clipPath id="clip0_1366_1156">
<rect width="129" height="63" fill="white"/>
</clipPath>
</defs>
</svg>
