<svg width="192" height="22" viewBox="0 0 192 22" fill="none" xmlns="http://www.w3.org/2000/svg">
<g clip-path="url(#clip0_1366_1193)">
<path fill-rule="evenodd" clip-rule="evenodd" d="M160.566 22V2.62805e-07H187.44C188.039 -0.000206135 188.632 0.121162 189.185 0.357176C189.738 0.59319 190.24 0.939226 190.664 1.37553C191.087 1.81183 191.423 2.32986 191.652 2.90002C191.881 3.47019 191.999 4.08134 192 4.69857V17.3014C192 19.8943 189.958 22 187.44 22H160.566ZM184.498 4.00243H165.793V17.9976H184.498C185.753 17.9976 186.774 16.9479 186.774 15.6499V6.34857C186.774 5.05057 185.753 4.00243 184.498 4.00243Z" fill="#282828"/>
<path d="M4.52114 0.0314941C3.32233 0.0314941 2.17259 0.522497 1.32475 1.39653C0.476916 2.27057 0.00040405 3.45607 0 4.69235L0 17.1946C0.000808033 18.4305 0.477547 19.6154 1.32538 20.4889C2.17322 21.3623 3.32273 21.8528 4.52114 21.8524H31.1787V17.8829H7.44381C6.19429 17.8829 5.184 16.8395 5.184 15.5541V12.7601H29.2693V8.79378H5.184V6.32978C5.184 5.04121 6.19429 4.00249 7.44381 4.00249H31.1771V0.0314941H4.52114ZM55.7638 8.21707L45.76 0.234208H38.979L52.3718 10.9231L38.9775 21.6135H45.7615L55.7638 13.6306L65.7646 21.6135H72.5486L59.1543 10.9215L72.5486 0.23578H65.7646L55.7638 8.21707ZM80.349 4.70964C80.3498 3.47377 80.8265 2.28884 81.6743 1.41539C82.5222 0.541944 83.6717 0.0515058 84.8701 0.0519227H111.526V4.01978H87.7897C86.5402 4.01978 85.5299 5.06164 85.5299 6.34864V8.80949H109.617V12.7789H85.5314V15.5761C85.5314 16.8584 86.5432 17.9018 87.7912 17.9018H111.528V21.8728H84.8716C83.6732 21.8732 82.5237 21.3828 81.6759 20.5093C80.828 19.6359 80.3513 18.4509 80.3505 17.2151L80.349 4.70964ZM125.044 0.0692084C124.45 0.0687956 123.862 0.188996 123.314 0.422942C122.765 0.656889 122.267 1 121.847 1.43267C121.427 1.86535 121.093 2.37911 120.866 2.94462C120.638 3.51012 120.521 4.11629 120.521 4.72849V17.2324C120.521 17.8446 120.638 18.4507 120.866 19.0162C121.093 19.5817 121.427 20.0955 121.847 20.5282C122.267 20.9608 122.765 21.304 123.314 21.5379C123.862 21.7719 124.45 21.892 125.044 21.8916H151.7V17.9238H127.965C126.715 17.9238 125.704 16.8788 125.704 15.5934V12.7994H149.789V8.82678H125.704V6.36907C125.704 5.08049 126.715 4.03864 127.965 4.03864H151.7V0.0692084H125.044Z" fill="#282828"/>
</g>
<defs>
<clipPath id="clip0_1366_1193">
<rect width="192" height="22" fill="white"/>
</clipPath>
</defs>
</svg>
