<svg width="155" height="55" viewBox="0 0 155 55" fill="none" xmlns="http://www.w3.org/2000/svg">
<g clip-path="url(#clip0_1366_1181)">
<path d="M41.6043 28.8704C40.0975 32.0021 37.6175 34.5132 34.5659 35.9971C31.5144 37.481 28.0701 37.8507 24.7911 37.0463C21.5121 36.2418 18.5905 34.3103 16.4998 31.5648C14.409 28.8193 13.2714 25.4206 13.2714 21.9192C13.2714 18.418 14.409 15.0193 16.4998 12.2738C18.5905 9.52825 21.5121 7.5968 24.7911 6.79234C28.0701 5.98789 31.5144 6.35754 34.5659 7.84144C37.6175 9.32533 40.0975 11.8365 41.6043 14.9682L47.0935 12.1135C44.969 7.69814 41.4721 4.15754 37.1696 2.06537C32.867 -0.0267872 28.0107 -0.547947 23.3876 0.586334C18.7645 1.72061 14.6452 4.44388 11.6973 8.31493C8.74939 12.186 7.14551 16.978 7.14551 21.9147C7.14551 26.8513 8.74939 31.6434 11.6973 35.5144C14.6452 39.3854 18.7645 42.1087 23.3876 43.243C28.0107 44.3772 32.867 43.8561 37.1696 41.7639C41.4721 39.6718 44.969 36.1311 47.0935 31.7158L41.6043 28.8704Z" fill="black"/>
<path d="M52.5955 34.5752C50.3545 39.246 46.9129 43.1811 42.652 45.9441C38.3912 48.707 33.4775 50.1901 28.4554 50.229C23.4332 50.2679 18.4987 48.861 14.1988 46.1642C9.89875 43.4675 6.40116 39.5862 4.09348 34.9505L0 37.1517C2.70226 42.5674 6.79319 47.1007 11.8203 50.2506C16.8474 53.4004 22.615 55.0439 28.4849 54.9992C34.3549 54.9547 40.0986 53.2237 45.081 49.9979C50.0633 46.7719 54.09 42.1769 56.7157 36.7207L52.5955 34.5752Z" fill="#33C369"/>
<path d="M78.9656 25.7794C78.3916 26.8419 77.5519 27.7231 76.5353 28.3301C75.5188 28.937 74.3633 29.247 73.191 29.2273C69.0842 29.2273 66.1055 26.141 66.1055 21.8915C66.1055 17.642 69.0842 14.551 73.191 14.551C74.3489 14.5313 75.4907 14.8336 76.4982 15.4268C77.5057 16.02 78.3422 16.8825 78.921 17.9246L79.1707 18.3881L81.222 17.1647L80.9678 16.7012C80.171 15.3001 79.0322 14.1424 77.6666 13.3457C76.3009 12.549 74.757 12.1415 73.191 12.1645C67.84 12.1645 63.7822 16.3351 63.7822 21.8683C63.7822 27.4014 67.8267 31.5675 73.191 31.5675C74.7748 31.5916 76.3359 31.1745 77.7121 30.3596C79.0883 29.5447 80.2293 28.3616 81.0168 26.9334L81.262 26.4699L79.2153 25.2465L78.9656 25.7794Z" fill="black"/>
<path d="M86.5743 18.7909V17.5444H84.3447V31.3122H86.5743V23.717C86.5743 19.9495 89.3033 19.6529 90.1416 19.6529H90.6544V17.3683H90.1416C89.4848 17.3377 88.829 17.4483 88.2152 17.693C87.6014 17.9378 87.0428 18.3116 86.5743 18.7909Z" fill="black"/>
<path d="M98.837 17.2666C94.8728 17.2666 91.9922 20.2787 91.9922 24.4495C91.9922 28.6201 94.9084 31.6091 98.9305 31.6091C101.405 31.6091 103.559 30.4412 104.696 28.4811L104.964 28.0176L102.988 26.7664L102.734 27.2299C102.065 28.5043 100.652 29.2596 98.9573 29.2596C96.6296 29.2596 94.8504 27.8045 94.3822 25.5802H105.369V25.0889C105.365 24.9993 105.365 24.9097 105.369 24.8201C105.369 24.7043 105.369 24.5931 105.369 24.4772C105.369 20.9831 103.091 17.2666 98.837 17.2666ZM98.837 19.5558C99.8531 19.548 100.837 19.9246 101.606 20.6152C102.375 21.3059 102.876 22.2634 103.015 23.3095H94.3689C94.5505 22.2279 95.1033 21.2513 95.9249 20.5611C96.7466 19.8709 97.7812 19.5137 98.837 19.5558Z" fill="black"/>
<path d="M119.451 19.3519C118.849 18.6795 118.119 18.1464 117.306 17.7872C116.493 17.4278 115.616 17.2505 114.733 17.2666C112.936 17.3141 111.227 18.0894 109.972 19.4274C108.717 20.7654 108.015 22.56 108.015 24.4285C108.015 26.297 108.717 28.0916 109.972 29.4296C111.227 30.7676 112.936 31.543 114.733 31.5904C115.62 31.6098 116.501 31.434 117.318 31.0747C118.135 30.7153 118.869 30.1803 119.473 29.5051V31.3125H121.725V12.4656H119.473L119.451 19.3519ZM114.787 29.3012C113.857 29.3067 112.946 29.0249 112.171 28.4915C111.396 27.9582 110.79 27.1974 110.432 26.3057C110.073 25.4141 109.978 24.4319 110.157 23.4837C110.337 22.5356 110.784 21.6644 111.441 20.9807C112.099 20.2971 112.936 19.8318 113.849 19.644C114.761 19.4564 115.706 19.5546 116.564 19.9263C117.423 20.298 118.155 20.9263 118.669 21.7318C119.183 22.537 119.455 23.483 119.451 24.4493C119.456 25.0877 119.339 25.7207 119.107 26.3115C118.874 26.9024 118.531 27.4393 118.097 27.891C117.663 28.3425 117.147 28.6997 116.578 28.9419C116.01 29.184 115.401 29.3062 114.787 29.3012Z" fill="black"/>
<path d="M131.906 17.2668C127.942 17.2668 125.065 20.279 125.065 24.4311C125.065 28.5833 127.986 31.5909 132.004 31.5909C134.479 31.5909 136.637 30.423 137.774 28.4628L138.041 27.9994L136.062 26.7667L135.808 27.2302C135.139 28.5046 133.725 29.2598 132.031 29.2598C129.698 29.2598 127.924 27.8047 127.451 25.5804H138.433V25.0892C138.433 25.0011 138.433 24.9085 138.433 24.8204C138.433 24.7324 138.433 24.5934 138.433 24.4775C138.456 20.9834 136.16 17.2668 131.906 17.2668ZM131.906 19.5561C132.922 19.5473 133.907 19.9235 134.676 20.6143C135.445 21.3051 135.946 22.2633 136.085 23.3097H127.442C127.623 22.2284 128.175 21.2521 128.996 20.5617C129.817 19.8714 130.851 19.5141 131.906 19.5561Z" fill="black"/>
<path d="M135.157 10.3987H132.405L129.806 14.6899H132.196L135.157 10.3987Z" fill="black"/>
<path d="M147.856 17.2665C146.494 17.2711 145.164 17.6947 144.034 18.4839C142.904 19.2731 142.024 20.3925 141.505 21.7008C140.985 23.0093 140.852 24.4482 141.118 25.8358C141.385 27.2235 142.043 28.4979 143.006 29.4984C143.969 30.4987 145.196 31.1802 146.531 31.4568C147.866 31.7335 149.251 31.5929 150.509 31.0529C151.768 30.5128 152.845 29.5974 153.603 28.4221C154.362 27.2469 154.768 25.8645 154.772 24.4494C154.782 23.5031 154.608 22.5645 154.264 21.6885C153.919 20.8125 153.411 20.0168 152.767 19.3479C152.122 18.6791 151.356 18.1504 150.513 17.793C149.669 17.4355 148.767 17.2566 147.856 17.2665ZM147.856 29.3151C146.926 29.3252 146.014 29.0476 145.235 28.5178C144.458 27.9879 143.848 27.2296 143.487 26.3391C143.124 25.4488 143.024 24.4664 143.2 23.5172C143.377 22.568 143.82 21.6945 144.476 21.008C145.131 20.3214 145.968 19.8528 146.879 19.6616C147.791 19.4704 148.737 19.5652 149.596 19.934C150.456 20.3029 151.192 20.9291 151.708 21.7332C152.225 22.5371 152.5 23.4826 152.498 24.4494C152.504 25.0859 152.388 25.7173 152.157 26.3069C151.927 26.8965 151.585 27.4325 151.153 27.8839C150.721 28.3353 150.207 28.6931 149.642 28.9364C149.076 29.1796 148.469 29.3037 147.856 29.3012V29.3151Z" fill="black"/>
</g>
<defs>
<clipPath id="clip0_1366_1181">
<rect width="155" height="55" fill="white"/>
</clipPath>
</defs>
</svg>
