<svg width="145" height="55" viewBox="0 0 145 55" fill="none" xmlns="http://www.w3.org/2000/svg">
<g clip-path="url(#clip0_1366_1144)">
<path d="M3.87325 47.0667C3.87325 44.4386 6.04082 42.3074 8.71393 42.3074H24.1721L26.1082 39.1348H8.06876C6.81713 39.1342 5.58247 39.4205 4.46233 39.9713C3.34219 40.522 2.36725 41.3221 1.61452 42.3083C0.565182 43.6783 -0.00173192 45.3489 6.64337e-06 47.0658C-0.00223864 48.7834 0.564708 50.4546 1.61452 51.8251C2.3667 52.8118 3.34136 53.6124 4.46141 54.1635C5.58145 54.7146 6.81617 55.0012 8.06789 55.0005H24.1722L26.1083 51.828H8.71381C7.71403 51.8287 6.73854 51.5241 5.92137 50.956C5.1042 50.3879 4.48544 49.5843 4.15008 48.6554C3.96681 48.1462 3.87313 47.6099 3.87309 47.0696V47.0679L3.87325 47.0667ZM115.23 43.8941C115.23 41.2652 113.063 39.1348 110.39 39.1348H89.1222L91.0583 42.3083H110.39C111.281 42.3083 112.003 43.0178 112.003 43.8941C112.003 44.7704 111.281 45.4799 110.39 45.4799H89.1223V55.0002H92.9947V48.6533H107.309L111.036 55.0002H115.231L111.439 48.5404C112.513 48.3074 113.474 47.7199 114.164 46.875C114.853 46.0301 115.23 44.9784 115.231 43.8938M139.523 39.1345L130.329 46.0902L121.134 39.1345H115.455L128.037 48.653V54.9999H132.419V48.6539L145.002 39.1345H139.523ZM63.2938 43.8543C63.3047 43.4402 63.4792 43.0466 63.7801 42.7576C64.081 42.4685 64.4845 42.3068 64.9046 42.307H83.5939L85.531 39.1344H64.2624C61.5891 39.1344 59.4205 41.2656 59.4205 43.8937V54.9989H83.5938L85.5308 51.8264H63.2936V48.6538H79.7204L81.6574 45.4804H63.2935L63.2938 43.8543ZM104.216 18.9589C102.176 19.8682 99.7932 19.6116 97.9798 18.32L95.5863 16.615L79.4728 5.14396L79.4189 5.10637L79.3705 5.07154L79.2572 4.99363C78.5953 4.53989 76.5505 3.17589 75.0382 2.58007C75.0319 2.58293 75.0261 2.58739 75.0197 2.59108C74.901 2.53656 74.7801 2.48702 74.6572 2.44258C74.647 2.43892 74.6386 2.43435 74.6285 2.43249C74.2448 2.29208 73.8478 2.19013 73.4434 2.12816C74.0587 2.13182 74.6675 2.14009 75.2745 2.15381L75.6769 2.16208C85.7573 2.40408 94.7128 3.79097 100.983 5.87174H100.986C106.763 7.78755 110.261 10.2947 110.261 13.0345C110.261 15.2189 108.04 17.253 104.214 18.9589L104.216 18.9589ZM87.7451 23.016C83.0828 23.6118 77.9251 23.9428 72.5024 23.9428C67.0788 23.9428 61.9221 23.6128 57.2597 23.0169C53.0008 22.2607 55.0522 19.4217 56.1676 18.2028C56.1778 18.1894 56.1897 18.1774 56.2029 18.167C56.4725 17.8728 56.6816 17.6794 56.7188 17.6464C56.7234 17.6435 56.7243 17.6409 56.7243 17.6409C57.4543 16.913 58.1936 16.1943 58.942 15.4849C61.3591 13.1859 63.8676 10.9824 66.4617 8.8795C67.236 8.2516 68.0103 7.63928 68.7817 7.04618L68.7873 7.04252C68.8696 6.97519 68.9542 6.91068 69.041 6.8491C69.634 6.41553 71.1398 5.42461 72.5024 5.42827C73.8641 5.42461 75.3699 6.4155 75.9619 6.8491C75.9925 6.86927 76.0186 6.88944 76.0437 6.9096L76.1115 6.96002C76.1422 6.98201 76.1673 7.00218 76.1831 7.01593L76.2101 7.03701L76.2222 7.04616C77.0037 7.64791 77.7778 8.25906 78.5441 8.87949C81.1369 10.9828 83.6444 13.1863 86.0609 15.4849C86.8118 16.1958 87.5533 16.9164 88.2852 17.6463L88.3046 17.6665C88.3734 17.727 88.5593 17.9048 88.7926 18.156L88.7955 18.1588C89.9016 19.3523 92.0533 22.2509 87.7452 23.0171L87.7451 23.016ZM47.0233 18.32C45.2108 19.6115 42.8276 19.8682 40.7892 18.9589C36.9635 17.2539 34.7409 15.2189 34.7409 13.0345C34.7409 10.2946 38.2404 7.78757 44.0172 5.87168C50.2855 3.79179 59.2451 2.40397 69.3252 2.16201L69.7286 2.15375C70.3374 2.13999 70.9462 2.13175 71.5615 2.12809C71.1488 2.19043 70.7538 2.29309 70.3746 2.43242C70.3708 2.43414 70.3633 2.43414 70.3606 2.43608C70.233 2.48366 70.1072 2.53564 69.9833 2.59191C69.9773 2.58764 69.9711 2.58366 69.9647 2.57999C68.4524 3.17581 66.4067 4.53981 65.7449 4.99354L65.6334 5.07146L65.5293 5.14479L49.4166 16.615L47.0222 18.3199L47.0233 18.32ZM101.593 3.65063C95.3892 1.82648 87.5778 0.574446 78.9401 0.156319C76.8795 0.0560922 74.8167 0.00413387 72.7536 0.000488281H72.247C70.1463 0.00414904 68.0829 0.0564035 66.0622 0.156319C57.4216 0.574303 49.6102 1.82462 43.4059 3.65063C34.52 6.26492 28.932 10.0581 28.932 14.2791C28.932 17.8541 32.9427 21.1247 39.5663 23.6289C42.2553 24.6446 45.3756 25.5374 48.8362 26.2698C51.6488 26.8684 54.6881 27.3643 57.9016 27.7365C62.4653 28.2681 67.3805 28.5596 72.501 28.5596C77.6207 28.5596 82.5347 28.269 87.0985 27.7365C90.1424 27.3895 93.1679 26.9 96.1647 26.2698C99.6244 25.5365 102.745 24.6446 105.435 23.6289C112.059 21.1246 116.068 17.8541 116.068 14.2791C116.068 10.059 110.479 6.26492 101.594 3.65063H101.593ZM51.9359 39.1342V45.4802H33.5728V39.1342H29.6996V54.9996H33.5728V48.6528H51.9359V54.9996H55.8091V39.1342H51.9359Z" fill="#313131"/>
</g>
<defs>
<clipPath id="clip0_1366_1144">
<rect width="145" height="55" fill="white"/>
</clipPath>
</defs>
</svg>
