<svg width="196" height="25" viewBox="0 0 196 25" fill="none" xmlns="http://www.w3.org/2000/svg">
<g clip-path="url(#clip0_1366_1276)">
<path d="M24.6367 3.96702C26.2451 5.83828 26.8299 8.60774 26.4644 12.7245C26.172 17.0658 25.1485 19.7604 23.3208 21.482C21.42 23.2784 18.2764 24.1766 13.5975 24.1766C8.9187 24.1766 5.77509 23.3533 3.87431 21.482C2.11974 19.7604 1.16935 17.0658 0.803815 12.7245C0.43828 8.60774 1.02314 5.83828 2.63149 3.96702C4.53227 1.79636 8.04141 0.748461 13.6707 0.748461C19.2268 0.748461 22.7359 1.79636 24.6367 3.96702ZM13.6707 0.149658C2.41217 0.149658 -0.512112 4.41612 0.145851 12.7994C0.876922 21.2574 3.8012 24.8503 13.5975 24.8503C23.3939 24.8503 26.3182 21.2574 27.0492 12.7994C27.7803 4.41612 24.856 0.149658 13.6707 0.149658Z" fill="#0B457F"/>
<mask id="mask0_1366_1276" style="mask-type:luminance" maskUnits="userSpaceOnUse" x="0" y="0" width="196" height="26">
<path d="M0.146484 0.299316V25.2993H195.708V0.299316" fill="white"/>
</mask>
<g mask="url(#mask0_1366_1276)">
<path d="M13.6713 1.34717C3.58254 1.34717 0.804473 5.16453 1.46244 12.7993C2.1204 20.3591 4.75225 23.5777 13.5982 23.5777C22.4442 23.5777 25.076 20.3591 25.734 12.7993C26.3919 5.16453 23.7601 1.34717 13.6713 1.34717ZM18.7157 3.14357C16.7418 8.2334 14.5486 13.0987 13.8906 14.5957C13.8647 14.6299 13.8314 14.6575 13.7934 14.6766C13.7554 14.6956 13.7136 14.7055 13.6713 14.7055C13.629 14.7055 13.5872 14.6956 13.5492 14.6766C13.5112 14.6575 13.478 14.6299 13.452 14.5957C12.7209 13.0238 10.5277 8.2334 8.62693 3.14357C8.55382 3.06872 8.62693 2.99387 8.70003 2.99387C10.0891 2.69447 11.7705 2.54477 13.7444 2.54477C15.7183 2.54477 17.3267 2.69447 18.7888 2.99387C18.7157 2.99387 18.7888 3.06872 18.7157 3.14357ZM2.55904 12.6496C2.33972 9.1316 2.77836 6.81124 4.09429 5.23938C4.82536 4.41603 5.84886 3.81723 7.23789 3.36813C7.311 3.36813 7.311 3.36813 7.311 3.51783V10.4041C7.311 11.5268 7.60343 12.6496 8.11518 13.6975L12.5747 22.2304C12.6478 22.3053 12.5747 22.3801 12.5016 22.3801C8.99246 22.2304 6.72614 21.5567 5.264 20.1346C3.72876 18.7124 2.92458 16.3921 2.55904 12.6496ZM24.7105 12.6496C24.418 16.3921 23.5408 18.7124 22.0055 20.1346C20.5434 21.5567 18.204 22.3053 14.7679 22.3801C14.6217 22.3801 14.6217 22.2304 14.6217 22.2304L19.0812 13.6975C19.593 12.6496 19.8123 11.5268 19.8123 10.4041V3.44298C19.8123 3.29328 19.8854 3.29328 19.9585 3.29328C21.3476 3.74238 22.3711 4.34118 23.1021 5.16453C24.4912 6.81124 25.0029 9.1316 24.7105 12.6496Z" fill="#0B457F"/>
</g>
<mask id="mask1_1366_1276" style="mask-type:luminance" maskUnits="userSpaceOnUse" x="0" y="0" width="196" height="26">
<path d="M0.146484 0.299316V25.2993H195.708V0.299316" fill="white"/>
</mask>
<g mask="url(#mask1_1366_1276)">
<path d="M40.282 18.1137C36.5536 18.1137 34.3604 16.7664 34.3604 12.7245C34.3604 9.05682 36.6267 7.55981 40.4282 7.55981H45.2533V10.3293H40.6476C38.8199 10.3293 38.3081 10.8532 38.3081 12.7993C38.3081 14.8951 38.8199 15.4191 40.7938 15.4191H45.2533V18.1886H40.282V18.1137Z" fill="#0B457F"/>
</g>
<mask id="mask2_1366_1276" style="mask-type:luminance" maskUnits="userSpaceOnUse" x="0" y="0" width="196" height="26">
<path d="M0.146484 0.299316V25.2993H195.708V0.299316" fill="white"/>
</mask>
<g mask="url(#mask2_1366_1276)">
<path d="M60.314 7.48486V18.1136H56.5125V14.0717H52.2723V18.1136H48.4707V7.48486H52.2723V11.2274H56.5125V7.48486H60.314Z" fill="#0B457F"/>
</g>
<mask id="mask3_1366_1276" style="mask-type:luminance" maskUnits="userSpaceOnUse" x="0" y="0" width="196" height="26">
<path d="M0.146484 0.299316V25.2993H195.708V0.299316" fill="white"/>
</mask>
<g mask="url(#mask3_1366_1276)">
<path d="M62.4336 18.1136L66.6007 7.48486H70.1098C70.9871 7.48486 71.3527 7.78426 71.572 8.38307L75.5929 18.1136H71.4989L68.867 11.5268C68.7208 11.0777 68.4284 11.0777 68.2822 11.5268L65.7234 18.1136H62.4336Z" fill="#0B457F"/>
</g>
<mask id="mask4_1366_1276" style="mask-type:luminance" maskUnits="userSpaceOnUse" x="0" y="0" width="196" height="26">
<path d="M0.146484 0.299316V25.2993H195.708V0.299316" fill="white"/>
</mask>
<g mask="url(#mask4_1366_1276)">
<path d="M85.9007 17.5148L81.0757 12.8741C80.9295 12.6495 80.7833 12.7244 80.7833 13.0238V18.1136H77.6396V7.48486H79.6866C80.4177 7.48486 80.8564 7.63456 81.2219 7.93397L86.2663 12.7244C86.4125 12.9489 86.5587 12.7992 86.5587 12.5747V7.48486H89.7023V17.5897C89.7023 17.8891 89.5561 18.1136 89.1906 18.1136H87.5091C86.8511 18.1136 86.3394 17.8891 85.9007 17.5148Z" fill="#0B457F"/>
</g>
<mask id="mask5_1366_1276" style="mask-type:luminance" maskUnits="userSpaceOnUse" x="0" y="0" width="196" height="26">
<path d="M0.146484 0.299316V25.2993H195.708V0.299316" fill="white"/>
</mask>
<g mask="url(#mask5_1366_1276)">
<path d="M104.47 18.1137H98.6948C94.7471 18.1137 92.627 16.7664 92.627 12.7245C92.627 9.13167 94.674 7.55981 98.768 7.55981H104.909V10.3293H98.9142C97.0134 10.3293 96.4285 10.7784 96.4285 12.7993C96.4285 14.97 96.9403 15.5688 98.9142 15.5688H101.18C101.327 15.5688 101.4 15.4191 101.4 15.2694V14.2215C101.4 14.0718 101.327 13.9221 101.18 13.9221H99.3528V11.6766H104.324C104.617 11.6766 104.836 11.8263 104.836 12.2005V17.5898C104.982 17.8892 104.763 18.1137 104.47 18.1137Z" fill="#0B457F"/>
</g>
<mask id="mask6_1366_1276" style="mask-type:luminance" maskUnits="userSpaceOnUse" x="0" y="0" width="196" height="26">
<path d="M0.146484 0.299316V25.2993H195.708V0.299316" fill="white"/>
</mask>
<g mask="url(#mask6_1366_1276)">
<path d="M107.175 18.1136L111.342 7.48486H114.778C115.728 7.48486 116.021 7.78426 116.313 8.38307L120.261 18.1136H116.24L113.608 11.5268C113.462 11.0777 113.17 11.0777 113.023 11.5268L110.465 18.1136H107.175Z" fill="#0B457F"/>
</g>
<mask id="mask7_1366_1276" style="mask-type:luminance" maskUnits="userSpaceOnUse" x="0" y="0" width="196" height="26">
<path d="M0.146484 0.299316V25.2993H195.708V0.299316" fill="white"/>
</mask>
<g mask="url(#mask7_1366_1276)">
<path d="M130.643 17.5148L125.818 12.8741C125.599 12.6495 125.525 12.7244 125.525 13.0238V18.1136H122.382V7.48486H124.356C125.087 7.48486 125.599 7.63456 125.964 7.93397L131.008 12.7244C131.155 12.9489 131.301 12.7992 131.301 12.5747V7.48486H134.444V17.5897C134.444 17.8891 134.298 18.1136 133.933 18.1136H132.251C131.593 18.1136 131.082 17.8891 130.643 17.5148Z" fill="#0B457F"/>
</g>
<mask id="mask8_1366_1276" style="mask-type:luminance" maskUnits="userSpaceOnUse" x="0" y="0" width="196" height="26">
<path d="M0.146484 0.299316V25.2993H195.708V0.299316" fill="white"/>
</mask>
<g mask="url(#mask8_1366_1276)">
<path d="M140.512 18.1136L144.679 7.48486H148.188C149.065 7.48486 149.431 7.78426 149.65 8.38307L153.671 18.1136H149.577L146.945 11.5268C146.799 11.0777 146.506 11.0777 146.36 11.5268L143.802 18.1136H140.512Z" fill="#0B457F"/>
</g>
<mask id="mask9_1366_1276" style="mask-type:luminance" maskUnits="userSpaceOnUse" x="0" y="0" width="196" height="26">
<path d="M0.146484 0.299316V25.2993H195.708V0.299316" fill="white"/>
</mask>
<g mask="url(#mask9_1366_1276)">
<path d="M166.831 7.48486V13.6226C166.831 17.3651 164.491 18.4879 160.909 18.4879C157.327 18.4879 154.987 17.44 154.987 13.6226V7.48486H158.716V13.0238C158.716 15.1944 159.812 15.7184 161.128 15.7184C162.517 15.7184 163.614 15.1944 163.614 13.0238V7.48486H166.831Z" fill="#0B457F"/>
</g>
<mask id="mask10_1366_1276" style="mask-type:luminance" maskUnits="userSpaceOnUse" x="0" y="0" width="196" height="26">
<path d="M0.146484 0.299316V25.2993H195.708V0.299316" fill="white"/>
</mask>
<g mask="url(#mask10_1366_1276)">
<path d="M169.243 7.48486H180.648V10.3292H176.846V18.1136H173.045V10.3292H169.243V7.48486Z" fill="#0B457F"/>
</g>
<mask id="mask11_1366_1276" style="mask-type:luminance" maskUnits="userSpaceOnUse" x="0" y="0" width="196" height="26">
<path d="M0.146484 0.299316V25.2993H195.708V0.299316" fill="white"/>
</mask>
<g mask="url(#mask11_1366_1276)">
<path d="M195.781 12.7244C195.781 16.6914 193.514 18.413 188.982 18.413C184.522 18.413 182.183 16.6914 182.183 12.7244C182.183 8.7573 184.522 7.1106 188.982 7.1106C193.441 7.1106 195.781 8.7573 195.781 12.7244ZM186.057 12.7244C186.057 14.8202 186.788 15.7184 188.982 15.7184C191.175 15.7184 191.833 14.895 191.833 12.7244C191.833 10.7034 191.102 9.88006 188.982 9.88006C186.788 9.88006 186.057 10.6286 186.057 12.7244Z" fill="#0B457F"/>
</g>
</g>
<defs>
<clipPath id="clip0_1366_1276">
<rect width="196" height="25" fill="white"/>
</clipPath>
</defs>
</svg>
