<svg width="70" height="70" viewBox="0 0 70 70" fill="none" xmlns="http://www.w3.org/2000/svg">
<path d="M26.2503 33.5417L32.0837 39.375L45.2087 26.25M58.3337 35C58.3337 49.3163 42.7179 59.7287 37.0361 63.0434C36.3904 63.4201 36.0675 63.6085 35.6119 63.7062C35.2583 63.782 34.7424 63.782 34.3888 63.7062C33.9331 63.6085 33.6102 63.4201 32.9645 63.0434C27.2827 59.7287 11.667 49.3163 11.667 35V21.0513C11.667 18.7194 11.667 17.5535 12.0484 16.5512C12.3853 15.6658 12.9328 14.8758 13.6435 14.2495C14.448 13.5405 15.5397 13.1311 17.7232 12.3123L33.3617 6.44781C33.9681 6.22042 34.2713 6.10673 34.5832 6.06166C34.8598 6.02168 35.1408 6.02168 35.4175 6.06166C35.7294 6.10673 36.0325 6.22042 36.6389 6.44781L52.2775 12.3123C54.4609 13.1311 55.5526 13.5405 56.3572 14.2495C57.0679 14.8758 57.6154 15.6658 57.9523 16.5512C58.3337 17.5535 58.3337 18.7194 58.3337 21.0513V35Z" stroke="white" stroke-width="2" stroke-linecap="round" stroke-linejoin="round"/>
</svg>
