<svg width="70" height="70" viewBox="0 0 70 70" fill="none" xmlns="http://www.w3.org/2000/svg">
<path d="M20.4163 64.1666V32.0833M5.83301 37.9166V58.3333C5.83301 61.555 8.44468 64.1666 11.6663 64.1666H50.8262C55.145 64.1666 58.8178 61.0157 59.4745 56.7471L62.6155 36.3305C63.4309 31.0301 59.33 26.25 53.9672 26.25H43.7497C42.1388 26.25 40.833 24.9441 40.833 23.3333V13.0253C40.833 9.05329 37.613 5.83331 33.641 5.83331C32.6936 5.83331 31.835 6.39126 31.4503 7.257L21.1862 30.3512C20.718 31.4045 19.6735 32.0833 18.5209 32.0833H11.6663C8.44468 32.0833 5.83301 34.695 5.83301 37.9166Z" stroke="white" stroke-width="2" stroke-linecap="round" stroke-linejoin="round"/>
</svg>
