<svg width="70" height="70" viewBox="0 0 70 70" fill="none" xmlns="http://www.w3.org/2000/svg">
<path d="M58.3337 36.4583V19.8333C58.3337 14.9329 58.3337 12.4826 57.38 10.6109C56.5411 8.96448 55.2025 7.6259 53.5561 6.78701C51.6843 5.83331 49.2341 5.83331 44.3337 5.83331H25.667C20.7665 5.83331 18.3163 5.83331 16.4446 6.78701C14.7982 7.6259 13.4596 8.96448 12.6207 10.6109C11.667 12.4826 11.667 14.9329 11.667 19.8333V50.1666C11.667 55.0671 11.667 57.5173 12.6207 59.3891C13.4596 61.0355 14.7982 62.3741 16.4446 63.2129C18.3163 64.1666 20.7665 64.1666 25.667 64.1666H35.0003M40.8337 32.0833H23.3337M29.167 43.75H23.3337M46.667 20.4166H23.3337M42.292 55.4166L48.1253 61.25L61.2503 48.125" stroke="white" stroke-width="2" stroke-linecap="round" stroke-linejoin="round"/>
</svg>
