<svg width="168" height="168" viewBox="0 0 168 168" fill="none" xmlns="http://www.w3.org/2000/svg">
<path opacity="0.4" d="M44.951 75.734V77.462C44.951 79.154 43.577 80 40.829 80H37.013V68.318H43.421V69.56H38.759V73.358H40.505C41.093 73.358 41.585 73.376 41.981 73.412C42.389 73.436 42.791 73.496 43.187 73.592C43.595 73.688 43.919 73.82 44.159 73.988C44.399 74.156 44.591 74.39 44.735 74.69C44.879 74.978 44.951 75.326 44.951 75.734ZM43.241 77.39V75.932C43.241 75.416 43.043 75.056 42.647 74.852C42.263 74.648 41.627 74.546 40.739 74.546H38.741V78.812H40.703C41.015 78.812 41.273 78.806 41.477 78.794C41.693 78.77 41.957 78.716 42.269 78.632C42.581 78.548 42.821 78.404 42.989 78.2C43.157 77.984 43.241 77.714 43.241 77.39ZM54.3346 76.004H48.4846V77.318C48.4846 77.93 48.7006 78.368 49.1326 78.632C49.5766 78.884 50.2426 79.01 51.1306 79.01C51.9106 79.01 52.8646 78.866 53.9926 78.578V79.82C52.8646 80.06 51.7426 80.18 50.6266 80.18C49.5106 80.18 48.5986 79.97 47.8906 79.55C47.1946 79.118 46.8466 78.44 46.8466 77.516V74.078C46.8466 73.01 47.1526 72.248 47.7646 71.792C48.3766 71.336 49.3546 71.108 50.6986 71.108C51.9586 71.108 52.8766 71.33 53.4526 71.774C54.0406 72.206 54.3346 72.974 54.3346 74.078V76.004ZM52.7146 74.942V73.574C52.7146 73.046 52.5526 72.686 52.2286 72.494C51.9166 72.29 51.3946 72.188 50.6626 72.188C49.9186 72.188 49.3666 72.284 49.0066 72.476C48.6586 72.656 48.4846 73.022 48.4846 73.574V74.942H52.7146ZM63.1034 79.928C62.3114 80.096 61.3814 80.18 60.3134 80.18C59.7854 80.18 59.3714 80.168 59.0714 80.144C58.7834 80.132 58.4474 80.078 58.0634 79.982C57.6914 79.874 57.4034 79.724 57.1994 79.532C57.0074 79.34 56.8394 79.064 56.6954 78.704C56.5514 78.332 56.4794 77.876 56.4794 77.336V74.132C56.4794 73.652 56.5214 73.238 56.6054 72.89C56.7014 72.542 56.8454 72.26 57.0374 72.044C57.2294 71.828 57.4274 71.654 57.6314 71.522C57.8354 71.39 58.1114 71.3 58.4594 71.252C58.8194 71.192 59.1314 71.156 59.3954 71.144C59.6714 71.12 60.0374 71.108 60.4934 71.108C61.3214 71.108 62.1494 71.198 62.9774 71.378V72.566C62.0414 72.326 61.1474 72.206 60.2954 72.206C59.3714 72.206 58.7774 72.302 58.5134 72.494C58.2614 72.686 58.1354 73.154 58.1354 73.898V77.498C58.1354 78.134 58.2854 78.554 58.5854 78.758C58.8854 78.95 59.5154 79.046 60.4754 79.046C61.3274 79.046 62.2034 78.932 63.1034 78.704V79.928ZM72.623 80H71.003V72.476H66.881V80H65.261V71.288H72.623V80ZM76.0457 77.588V71.288H83.0117V80H81.4097V72.476H77.6477V77.462C77.6477 78.05 77.5817 78.53 77.4497 78.902C77.3297 79.262 77.1257 79.532 76.8377 79.712C76.5617 79.88 76.2677 79.988 75.9557 80.036C75.6437 80.096 75.2297 80.126 74.7137 80.126C74.4737 80.126 74.2817 80.12 74.1377 80.108V79.1C74.9057 79.1 75.4157 79.004 75.6677 78.812C75.9197 78.608 76.0457 78.2 76.0457 77.588ZM92.7009 80H91.1349V79.172C91.0029 79.844 90.1269 80.18 88.5069 80.18C87.3069 80.18 86.4729 80 86.0049 79.64C85.5489 79.268 85.3209 78.524 85.3209 77.408C85.3209 76.436 85.5369 75.77 85.9689 75.41C86.4009 75.038 87.2349 74.852 88.4709 74.852H91.0809V73.466C91.0809 72.986 90.9309 72.662 90.6309 72.494C90.3429 72.326 89.7909 72.242 88.9749 72.242C88.0869 72.242 87.0909 72.314 85.9869 72.458V71.27C87.1749 71.162 88.2489 71.108 89.2089 71.108C90.6729 71.108 91.6209 71.288 92.0529 71.648C92.4849 71.996 92.7009 72.728 92.7009 73.844V80ZM91.0809 78.272V75.86H88.5789C87.8349 75.86 87.3669 75.956 87.1749 76.148C86.9949 76.34 86.9049 76.778 86.9049 77.462C86.9049 78.086 87.0009 78.524 87.1929 78.776C87.3969 79.028 87.8169 79.154 88.4529 79.154H88.7769C89.0889 79.154 89.3469 79.148 89.5509 79.136C89.7669 79.124 90.0069 79.094 90.2709 79.046C90.5349 78.986 90.7329 78.896 90.8649 78.776C91.0089 78.644 91.0809 78.476 91.0809 78.272ZM102.98 72.476H99.5784V80H97.9584V72.476H94.5384V71.288H102.98V72.476ZM112.333 80H110.713V76.094H106.429V80H104.809V71.288H106.429V74.906H110.713V71.288H112.333V80ZM122.021 80H120.455V79.172C120.323 79.844 119.447 80.18 117.827 80.18C116.627 80.18 115.793 80 115.325 79.64C114.869 79.268 114.641 78.524 114.641 77.408C114.641 76.436 114.857 75.77 115.289 75.41C115.721 75.038 116.555 74.852 117.791 74.852H120.401V73.466C120.401 72.986 120.251 72.662 119.951 72.494C119.663 72.326 119.111 72.242 118.295 72.242C117.407 72.242 116.411 72.314 115.307 72.458V71.27C116.495 71.162 117.569 71.108 118.529 71.108C119.993 71.108 120.941 71.288 121.373 71.648C121.805 71.996 122.021 72.728 122.021 73.844V80ZM120.401 78.272V75.86H117.899C117.155 75.86 116.687 75.956 116.495 76.148C116.315 76.34 116.225 76.778 116.225 77.462C116.225 78.086 116.321 78.524 116.513 78.776C116.717 79.028 117.137 79.154 117.773 79.154H118.097C118.409 79.154 118.667 79.148 118.871 79.136C119.087 79.124 119.327 79.094 119.591 79.046C119.855 78.986 120.053 78.896 120.185 78.776C120.329 78.644 120.401 78.476 120.401 78.272ZM125.929 80H123.787L127.171 76.292C125.395 76.292 124.507 75.686 124.507 74.474V73.538C124.507 72.626 124.711 72.026 125.119 71.738C125.527 71.438 126.331 71.288 127.531 71.288H131.995V80H130.375V76.508H128.917L125.929 80ZM126.145 73.682V73.934C126.145 74.57 126.223 74.972 126.379 75.14C126.547 75.308 126.859 75.392 127.315 75.392H130.375V72.404H127.693C127.045 72.404 126.625 72.494 126.433 72.674C126.241 72.842 126.145 73.178 126.145 73.682ZM28.6253 101V92.288H30.2453V96.05C30.6653 96.05 30.9833 95.99 31.1993 95.87C31.4273 95.75 31.6733 95.48 31.9373 95.06L32.8193 93.638C33.1553 93.086 33.4973 92.726 33.8453 92.558C34.2053 92.378 34.7153 92.288 35.3753 92.288H35.9873V93.206H35.6453C35.0333 93.206 34.5293 93.524 34.1333 94.16L33.4493 95.276C33.0293 96.008 32.5973 96.428 32.1533 96.536C32.4893 96.62 33.1493 97.208 34.1333 98.3L36.5633 101H34.5653L32.1893 98.3C31.8413 97.904 31.5233 97.61 31.2353 97.418C30.9473 97.226 30.7553 97.124 30.6593 97.112C30.5633 97.1 30.4253 97.094 30.2453 97.094V101H28.6253ZM45.3824 95.222V98.246C45.3824 98.786 45.3164 99.242 45.1844 99.614C45.0524 99.986 44.8844 100.274 44.6804 100.478C44.4764 100.682 44.1824 100.838 43.7984 100.946C43.4264 101.054 43.0664 101.12 42.7184 101.144C42.3824 101.168 41.9324 101.18 41.3684 101.18C40.6484 101.18 40.0844 101.156 39.6764 101.108C39.2804 101.06 38.8784 100.946 38.4704 100.766C38.0744 100.574 37.7864 100.274 37.6064 99.866C37.4384 99.458 37.3544 98.918 37.3544 98.246V95.222C37.3544 94.646 37.4204 94.16 37.5524 93.764C37.6964 93.368 37.8644 93.062 38.0564 92.846C38.2604 92.63 38.5544 92.468 38.9384 92.36C39.3224 92.24 39.6764 92.168 40.0004 92.144C40.3364 92.12 40.7924 92.108 41.3684 92.108C41.9444 92.108 42.3944 92.12 42.7184 92.144C43.0544 92.168 43.4144 92.24 43.7984 92.36C44.1824 92.468 44.4704 92.63 44.6624 92.846C44.8664 93.062 45.0344 93.368 45.1664 93.764C45.3104 94.16 45.3824 94.646 45.3824 95.222ZM43.7264 98.48V94.952C43.7264 94.148 43.5644 93.65 43.2404 93.458C42.9164 93.266 42.2924 93.17 41.3684 93.17C40.4444 93.17 39.8204 93.266 39.4964 93.458C39.1724 93.65 39.0104 94.148 39.0104 94.952V98.48C39.0104 98.864 39.0524 99.17 39.1364 99.398C39.2204 99.626 39.3764 99.794 39.6044 99.902C39.8324 99.998 40.0664 100.058 40.3064 100.082C40.5464 100.106 40.9004 100.118 41.3684 100.118C41.8364 100.118 42.1904 100.106 42.4304 100.082C42.6704 100.058 42.9044 99.998 43.1324 99.902C43.3604 99.794 43.5164 99.626 43.6004 99.398C43.6844 99.17 43.7264 98.864 43.7264 98.48ZM55.4329 101H53.8129V97.094H49.5289V101H47.9089V92.288H49.5289V95.906H53.8129V92.288H55.4329V101ZM64.5448 100.928C63.7528 101.096 62.8228 101.18 61.7548 101.18C61.2268 101.18 60.8128 101.168 60.5128 101.144C60.2248 101.132 59.8888 101.078 59.5048 100.982C59.1328 100.874 58.8448 100.724 58.6408 100.532C58.4488 100.34 58.2808 100.064 58.1368 99.704C57.9928 99.332 57.9208 98.876 57.9208 98.336V95.132C57.9208 94.652 57.9628 94.238 58.0468 93.89C58.1428 93.542 58.2868 93.26 58.4788 93.044C58.6708 92.828 58.8688 92.654 59.0728 92.522C59.2768 92.39 59.5528 92.3 59.9008 92.252C60.2608 92.192 60.5728 92.156 60.8368 92.144C61.1128 92.12 61.4788 92.108 61.9348 92.108C62.7628 92.108 63.5908 92.198 64.4188 92.378V93.566C63.4828 93.326 62.5888 93.206 61.7368 93.206C60.8128 93.206 60.2188 93.302 59.9548 93.494C59.7028 93.686 59.5768 94.154 59.5768 94.898V98.498C59.5768 99.134 59.7268 99.554 60.0268 99.758C60.3268 99.95 60.9568 100.046 61.9168 100.046C62.7688 100.046 63.6448 99.932 64.5448 99.704V100.928ZM73.3624 92.288L69.0424 104.564H67.3504L68.6644 101.126L65.2984 92.288H67.0624L69.4924 99.398H69.5284L71.7244 92.288H73.3624ZM75.0262 98.588V92.288H81.9922V101H80.3902V93.476H76.6282V98.462C76.6282 99.05 76.5622 99.53 76.4302 99.902C76.3102 100.262 76.1062 100.532 75.8182 100.712C75.5422 100.88 75.2482 100.988 74.9362 101.036C74.6242 101.096 74.2102 101.126 73.6942 101.126C73.4542 101.126 73.2622 101.12 73.1182 101.108V100.1C73.8862 100.1 74.3962 100.004 74.6482 99.812C74.9002 99.608 75.0262 99.2 75.0262 98.588ZM89.0174 101H84.9134V92.288H86.5694V95.438H89.1614C90.2294 95.438 91.0034 95.564 91.4834 95.816C91.9634 96.068 92.2034 96.566 92.2034 97.31V99.11C92.2034 100.37 91.1414 101 89.0174 101ZM90.6194 98.894V97.796C90.6194 97.292 90.5114 96.956 90.2954 96.788C90.0914 96.608 89.6414 96.518 88.9454 96.518H86.5514V99.956H88.9094C89.1254 99.956 89.3054 99.95 89.4494 99.938C89.6054 99.914 89.7854 99.878 89.9894 99.83C90.1934 99.77 90.3494 99.662 90.4574 99.506C90.5654 99.338 90.6194 99.134 90.6194 98.894ZM100.256 93.476H96.8538V101H95.2338V93.476H91.8138V92.288H100.256V93.476ZM108.961 101H107.395V100.172C107.263 100.844 106.387 101.18 104.767 101.18C103.567 101.18 102.733 101 102.265 100.64C101.809 100.268 101.581 99.524 101.581 98.408C101.581 97.436 101.797 96.77 102.229 96.41C102.661 96.038 103.495 95.852 104.731 95.852H107.341V94.466C107.341 93.986 107.191 93.662 106.891 93.494C106.603 93.326 106.051 93.242 105.235 93.242C104.347 93.242 103.351 93.314 102.247 93.458V92.27C103.435 92.162 104.509 92.108 105.469 92.108C106.933 92.108 107.881 92.288 108.313 92.648C108.745 92.996 108.961 93.728 108.961 94.844V101ZM107.341 99.272V96.86H104.839C104.095 96.86 103.627 96.956 103.435 97.148C103.255 97.34 103.165 97.778 103.165 98.462C103.165 99.086 103.261 99.524 103.453 99.776C103.657 100.028 104.077 100.154 104.713 100.154H105.037C105.349 100.154 105.607 100.148 105.811 100.136C106.027 100.124 106.267 100.094 106.531 100.046C106.795 99.986 106.993 99.896 107.125 99.776C107.269 99.644 107.341 99.476 107.341 99.272ZM119.42 103.412H117.854V101H111.878V92.288H113.498V99.812H117.8V92.288H119.42V103.412ZM124.441 101H122.335V92.288H123.865V99.326L128.185 92.288H130.291V101H128.761V93.8L124.441 101ZM134.19 101H132.048L135.432 97.292C133.656 97.292 132.768 96.686 132.768 95.474V94.538C132.768 93.626 132.972 93.026 133.38 92.738C133.788 92.438 134.592 92.288 135.792 92.288H140.256V101H138.636V97.508H137.178L134.19 101ZM134.406 94.682V94.934C134.406 95.57 134.484 95.972 134.64 96.14C134.808 96.308 135.12 96.392 135.576 96.392H138.636V93.404H135.954C135.306 93.404 134.886 93.494 134.694 93.674C134.502 93.842 134.406 94.178 134.406 94.682Z" fill="#132436"/>
<circle opacity="0.5" cx="84" cy="84" r="83" stroke="#007CFF" stroke-width="2" stroke-dasharray="4 4"/>
</svg>
