<svg width="215" height="54" viewBox="0 0 215 54" fill="none" xmlns="http://www.w3.org/2000/svg">
<g clip-path="url(#clip0_2_18206)">
<path d="M90.5806 44.9641H89.5944V42.4588H86.9863V44.9641H86.0001V39.3763H86.9863V41.6968H89.5944V39.3763H90.5806V44.9641Z" fill="#132436"/>
<path d="M96.6538 42.4011H93.0924V43.2439C93.0924 43.6364 93.2239 43.9173 93.4869 44.0867C93.7572 44.2483 94.1627 44.3291 94.7033 44.3291C95.1781 44.3291 95.7589 44.2367 96.4456 44.052V44.8486C95.7589 45.0026 95.0759 45.0795 94.3964 45.0795C93.717 45.0795 93.1618 44.9448 92.7308 44.6754C92.3071 44.3984 92.0952 43.9635 92.0952 43.3709V41.1658C92.0952 40.4808 92.2815 39.992 92.6541 39.6995C93.0267 39.4071 93.6221 39.2608 94.4403 39.2608C95.2073 39.2608 95.7662 39.4032 96.1169 39.688C96.4748 39.9651 96.6538 40.4577 96.6538 41.1658V42.4011ZM95.6676 41.7199V40.8425C95.6676 40.5038 95.569 40.2729 95.3717 40.1498C95.1818 40.0189 94.864 39.9535 94.4184 39.9535C93.9654 39.9535 93.6294 40.0151 93.4102 40.1382C93.1984 40.2537 93.0924 40.4884 93.0924 40.8425V41.7199H95.6676Z" fill="#132436"/>
<path d="M102.135 42.9552V43.5325C102.135 43.8096 102.08 44.0482 101.97 44.2483C101.868 44.4484 101.74 44.6023 101.587 44.7101C101.441 44.8101 101.247 44.891 101.006 44.9525C100.765 45.0141 100.546 45.0487 100.348 45.0564C100.159 45.0718 99.9247 45.0795 99.6471 45.0795C99.0992 45.0795 98.4454 45.0141 97.6856 44.8833V44.0636C98.4673 44.2329 99.1211 44.3176 99.6471 44.3176C99.859 44.3176 100.027 44.3137 100.151 44.306C100.283 44.2906 100.432 44.2598 100.6 44.2136C100.769 44.1598 100.893 44.0713 100.973 43.9481C101.061 43.8173 101.105 43.6518 101.105 43.4517V43.0938C101.105 42.9321 101.061 42.8013 100.973 42.7012C100.893 42.5935 100.772 42.5204 100.611 42.4819C100.458 42.4357 100.319 42.4088 100.195 42.4011C100.071 42.3857 99.9211 42.378 99.7457 42.378H98.5951V41.6622H99.5595C99.7348 41.6622 99.8809 41.6583 99.9978 41.6506C100.122 41.6353 100.264 41.6083 100.425 41.5698C100.586 41.5237 100.71 41.4467 100.798 41.3389C100.885 41.2312 100.929 41.0926 100.929 40.9233V40.577C100.929 40.1767 100.491 39.9766 99.6143 39.9766C98.9275 39.9766 98.3321 40.0228 97.8281 40.1152V39.3647C98.376 39.2955 98.9677 39.2608 99.6033 39.2608C100.129 39.2608 100.538 39.2878 100.831 39.3416C101.196 39.4032 101.47 39.5225 101.652 39.6995C101.835 39.8766 101.926 40.1498 101.926 40.5192V40.9695C101.926 41.2235 101.835 41.4274 101.652 41.5814C101.477 41.7353 101.262 41.8354 101.006 41.8815V41.9277C101.758 42.0509 102.135 42.3934 102.135 42.9552Z" fill="#132436"/>
<path d="M107.833 44.9641H106.879V44.433C106.799 44.864 106.266 45.0795 105.279 45.0795C104.549 45.0795 104.041 44.9641 103.756 44.7332C103.479 44.4946 103.34 44.0174 103.34 43.3016C103.34 42.6782 103.471 42.251 103.734 42.0201C103.997 41.7815 104.505 41.6622 105.257 41.6622H106.846V40.7732C106.846 40.4654 106.755 40.2575 106.572 40.1498C106.397 40.042 106.061 39.9882 105.564 39.9882C105.024 39.9882 104.417 40.0343 103.745 40.1267V39.3647C104.468 39.2955 105.122 39.2608 105.707 39.2608C106.598 39.2608 107.175 39.3763 107.438 39.6072C107.701 39.8304 107.833 40.2999 107.833 41.0157V44.9641ZM106.846 43.8558V42.3087H105.323C104.87 42.3087 104.585 42.3703 104.468 42.4934C104.359 42.6166 104.304 42.8975 104.304 43.3362C104.304 43.7365 104.363 44.0174 104.479 44.179C104.604 44.3406 104.859 44.4215 105.246 44.4215H105.444C105.634 44.4215 105.791 44.4176 105.915 44.4099C106.046 44.4022 106.193 44.383 106.353 44.3522C106.514 44.3137 106.635 44.256 106.715 44.179C106.803 44.0943 106.846 43.9866 106.846 43.8558Z" fill="#132436"/>
<path d="M114.31 43.1515V43.4863C114.31 44.0405 114.142 44.4253 113.806 44.6408C113.477 44.8563 112.878 44.9641 112.009 44.9641H109.609V39.3763H111.932C112.399 39.3763 112.776 39.4071 113.061 39.4686C113.353 39.5225 113.561 39.6187 113.685 39.7573C113.817 39.8958 113.901 40.0343 113.937 40.1729C113.974 40.3114 113.992 40.5 113.992 40.7386V40.9349C113.992 41.2427 113.915 41.4698 113.762 41.616C113.609 41.7546 113.367 41.8623 113.039 41.9393V41.9855C113.886 42.1317 114.31 42.5204 114.31 43.1515ZM113.05 40.9002V40.831C113.05 40.5385 112.984 40.3422 112.852 40.2422C112.721 40.1421 112.432 40.0921 111.987 40.0921H110.595V41.7315H112.02C112.458 41.7315 112.739 41.6737 112.863 41.5583C112.988 41.4428 113.05 41.2235 113.05 40.9002ZM113.302 43.4517V43.0822C113.302 42.8821 113.221 42.7205 113.061 42.5973C112.907 42.4742 112.593 42.4126 112.118 42.4126H110.595V44.2136H112.063C112.575 44.2136 112.907 44.1598 113.061 44.052C113.221 43.9443 113.302 43.7442 113.302 43.4517Z" fill="#132436"/>
<path d="M117.107 44.9641H115.825V39.3763H116.756V43.8904L119.386 39.3763H120.668V44.9641H119.737V40.3461L117.107 44.9641Z" fill="#132436"/>
<path d="M126.209 44.9179C125.727 45.0256 125.161 45.0795 124.511 45.0795C124.189 45.0795 123.937 45.0718 123.755 45.0564C123.579 45.0487 123.375 45.0141 123.141 44.9525C122.915 44.8833 122.739 44.7871 122.615 44.6639C122.498 44.5408 122.396 44.3637 122.308 44.1328C122.221 43.8942 122.177 43.6018 122.177 43.2554V41.2004C122.177 40.8925 122.202 40.627 122.253 40.4038C122.312 40.1806 122.4 39.9997 122.516 39.8612C122.633 39.7226 122.754 39.611 122.878 39.5264C123.002 39.4417 123.17 39.384 123.382 39.3532C123.601 39.3147 123.791 39.2916 123.952 39.2839C124.12 39.2685 124.343 39.2608 124.62 39.2608C125.124 39.2608 125.629 39.3186 126.133 39.434V40.196C125.563 40.042 125.019 39.9651 124.5 39.9651C123.937 39.9651 123.576 40.0266 123.415 40.1498C123.262 40.2729 123.185 40.5731 123.185 41.0503V43.3593C123.185 43.7672 123.276 44.0366 123.459 44.1675C123.641 44.2906 124.025 44.3522 124.609 44.3522C125.128 44.3522 125.661 44.2791 126.209 44.1328V44.9179Z" fill="#132436"/>
<path d="M128.739 44.9641H127.457V39.3763H128.389V43.8904L131.019 39.3763H132.301V44.9641H131.369V40.3461L128.739 44.9641Z" fill="#132436"/>
<path d="M140.351 44.9641H139.442V40.323H139.387L137.754 44.9641H136.757L135.058 40.323H135.004V44.9641H134.072V39.3763H135.661L137.272 43.925H137.316L138.817 39.3763H140.351V44.9641Z" fill="#132436"/>
<path d="M148.353 44.9641H147.367V39.3763H148.353V44.9641ZM144.583 44.9641H142.194V39.3763H143.203V41.3967H144.671C145.321 41.3967 145.792 41.4775 146.085 41.6391C146.377 41.8007 146.523 42.1201 146.523 42.5973V43.7518C146.523 44.56 145.876 44.9641 144.583 44.9641ZM145.559 43.6133V42.9091C145.559 42.5858 145.493 42.3703 145.361 42.2625C145.237 42.1471 144.963 42.0894 144.539 42.0894H143.192V44.2945H144.518C144.649 44.2945 144.759 44.2906 144.846 44.2829C144.941 44.2675 145.051 44.2444 145.175 44.2136C145.299 44.1752 145.394 44.1059 145.46 44.0058C145.526 43.8981 145.559 43.7672 145.559 43.6133Z" fill="#132436"/>
<path d="M154.277 37.125C154.248 37.556 154.087 37.9101 153.795 38.1871C153.51 38.4565 153.167 38.5912 152.765 38.5912C152.356 38.5912 152.005 38.4565 151.713 38.1871C151.428 37.9101 151.274 37.556 151.253 37.125H152.195C152.297 37.4252 152.396 37.6291 152.491 37.7369C152.586 37.8446 152.754 37.8985 152.995 37.8985C153.199 37.8985 153.36 37.8408 153.477 37.7253C153.601 37.6022 153.704 37.4021 153.784 37.125H154.277ZM151.351 44.9641H150.069V39.3763H151.001V43.8904L153.63 39.3763H154.913V44.9641H153.981V40.3461L151.351 44.9641Z" fill="#132436"/>
<path d="M163.33 44.9641H162.376V44.433C162.296 44.864 161.763 45.0795 160.777 45.0795C160.046 45.0795 159.538 44.9641 159.253 44.7332C158.976 44.4946 158.837 44.0174 158.837 43.3016C158.837 42.6782 158.968 42.251 159.231 42.0201C159.494 41.7815 160.002 41.6622 160.755 41.6622H162.344V40.7732C162.344 40.4654 162.252 40.2575 162.07 40.1498C161.894 40.042 161.558 39.9882 161.061 39.9882C160.521 39.9882 159.915 40.0343 159.242 40.1267V39.3647C159.966 39.2955 160.619 39.2608 161.204 39.2608C162.095 39.2608 162.672 39.3763 162.935 39.6072C163.198 39.8304 163.33 40.2999 163.33 41.0157V44.9641ZM162.344 43.8558V42.3087H160.82C160.367 42.3087 160.083 42.3703 159.966 42.4934C159.856 42.6166 159.801 42.8975 159.801 43.3362C159.801 43.7365 159.86 44.0174 159.977 44.179C160.101 44.3406 160.356 44.4215 160.744 44.4215H160.941C161.131 44.4215 161.288 44.4176 161.412 44.4099C161.544 44.4022 161.69 44.383 161.85 44.3522C162.011 44.3137 162.132 44.256 162.212 44.179C162.3 44.0943 162.344 43.9866 162.344 43.8558Z" fill="#132436"/>
<path d="M169.161 39.3763L166.531 47.25H165.5L166.3 45.0449L164.251 39.3763H165.325L166.805 43.9366H166.826L168.163 39.3763H169.161Z" fill="#132436"/>
<path d="M173.116 44.2252V40.1152H171.461V40.4038C171.461 41.8662 171.264 43.14 170.87 44.2252H173.116ZM170.585 39.7688V39.3763H173.993V44.2252H174.519V46.5111H173.675V44.9641H170.245V46.5111H169.401V44.2252H169.905C170.358 43.1554 170.585 41.6699 170.585 39.7688Z" fill="#132436"/>
<path d="M177.206 44.9641H175.924V39.3763H176.855V43.8904L179.485 39.3763H180.767V44.9641H179.836V40.3461L177.206 44.9641Z" fill="#132436"/>
<path d="M187.02 40.1382H184.949V44.9641H183.963V40.1382H181.881V39.3763H187.02V40.1382Z" fill="#132436"/>
<path d="M192.61 41.2581V43.1977C192.61 43.544 192.57 43.8365 192.489 44.0751C192.409 44.3137 192.307 44.4984 192.182 44.6293C192.058 44.7601 191.879 44.8602 191.646 44.9294C191.419 44.9987 191.2 45.041 190.988 45.0564C190.783 45.0718 190.51 45.0795 190.166 45.0795C189.728 45.0795 189.384 45.0641 189.136 45.0333C188.895 45.0026 188.65 44.9294 188.402 44.814C188.161 44.6908 187.985 44.4984 187.876 44.2367C187.774 43.975 187.722 43.6287 187.722 43.1977V41.2581C187.722 40.8887 187.763 40.577 187.843 40.323C187.931 40.069 188.033 39.8727 188.15 39.7342C188.274 39.5956 188.453 39.4917 188.687 39.4225C188.921 39.3455 189.136 39.2993 189.333 39.2839C189.538 39.2685 189.815 39.2608 190.166 39.2608C190.517 39.2608 190.791 39.2685 190.988 39.2839C191.193 39.2993 191.412 39.3455 191.646 39.4225C191.879 39.4917 192.055 39.5956 192.171 39.7342C192.296 39.8727 192.398 40.069 192.478 40.323C192.566 40.577 192.61 40.8887 192.61 41.2581ZM191.602 43.3478V41.0849C191.602 40.5693 191.503 40.2498 191.306 40.1267C191.109 40.0036 190.729 39.942 190.166 39.942C189.604 39.942 189.224 40.0036 189.026 40.1267C188.829 40.2498 188.731 40.5693 188.731 41.0849V43.3478C188.731 43.5941 188.756 43.7903 188.807 43.9366C188.858 44.0828 188.953 44.1906 189.092 44.2598C189.231 44.3214 189.374 44.3599 189.52 44.3753C189.666 44.3907 189.881 44.3984 190.166 44.3984C190.451 44.3984 190.667 44.3907 190.813 44.3753C190.959 44.3599 191.101 44.3214 191.24 44.2598C191.379 44.1906 191.474 44.0828 191.525 43.9366C191.576 43.7903 191.602 43.5941 191.602 43.3478Z" fill="#132436"/>
<path d="M198.98 40.8425V43.14C198.98 43.4786 198.933 43.7711 198.838 44.0174C198.743 44.2637 198.622 44.4561 198.476 44.5946C198.338 44.7255 198.151 44.8294 197.918 44.9063C197.684 44.9833 197.465 45.0295 197.26 45.0449C197.055 45.068 196.807 45.0795 196.515 45.0795C196.223 45.0795 195.938 45.041 195.66 44.9641C195.383 44.8871 195.207 44.7678 195.134 44.6062V47.25H194.148V39.3763H195.134V39.9766C195.215 39.4994 195.817 39.2608 196.942 39.2608C197.651 39.2608 198.166 39.4186 198.487 39.7342C198.816 40.042 198.98 40.4115 198.98 40.8425ZM197.972 43.267V41.2119C197.972 40.6963 197.866 40.3691 197.655 40.2306C197.443 40.0844 197.066 40.0113 196.526 40.0113C195.978 40.0113 195.598 40.0844 195.386 40.2306C195.182 40.3691 195.079 40.6963 195.079 41.2119V43.267C195.079 43.7365 195.185 44.0405 195.397 44.179C195.616 44.3099 195.996 44.3753 196.537 44.3753C197.077 44.3753 197.45 44.3099 197.655 44.179C197.866 44.0405 197.972 43.7365 197.972 43.267Z" fill="#132436"/>
<path d="M89.4024 32.6162H84.7809L83.0844 27.6558H76.1522L74.485 32.6162H69.9805L77.0005 13.7901H82.5579L89.4024 32.6162ZM82.0899 24.639L79.6914 17.5611H79.5744L77.1759 24.639H82.0899Z" fill="#132436"/>
<path d="M108.102 13.7901V27.4528C108.102 31.0884 105.352 32.9062 99.8533 32.9062C94.3738 32.9062 91.6341 31.0884 91.6341 27.4528V13.7901H96.1971V27.4528C96.1971 28.3037 96.4798 28.8935 97.0453 29.2222C97.6108 29.5317 98.5663 29.6864 99.9118 29.6864C101.238 29.6864 102.174 29.5317 102.72 29.2222C103.266 28.8935 103.539 28.3037 103.539 27.4528V13.7901H108.102Z" fill="#132436"/>
<path d="M129.812 19.5046V27.1627C129.812 29.2899 129.149 30.7307 127.823 31.4849C126.497 32.2391 124.166 32.6162 120.832 32.6162H112.73V13.7901H120.803C124.02 13.7901 126.321 14.1865 127.706 14.9794C129.11 15.7723 129.812 17.2807 129.812 19.5046ZM125.249 27.1627V19.4176C125.249 18.5087 124.878 17.8802 124.137 17.5321C123.396 17.184 122.275 17.0099 120.773 17.0099H117.293V29.3963H120.627C122.382 29.3963 123.591 29.2706 124.254 29.0192C124.917 28.7485 125.249 28.1296 125.249 27.1627Z" fill="#132436"/>
<path d="M138.644 32.6162H134.081V13.7901H138.644V32.6162Z" fill="#132436"/>
<path d="M158.092 17.0099H152.271V32.6162H147.708V17.0099H141.858V13.7901H158.092V17.0099Z" fill="#132436"/>
<path d="M176.393 32.6162H171.771L170.075 27.6558H163.142L161.475 32.6162H156.971L163.991 13.7901H169.548L176.393 32.6162ZM169.08 24.639L166.682 17.5611H166.565L164.166 24.639H169.08Z" fill="#007CFF"/>
<path d="M196.165 19.5046V27.1627C196.165 29.2899 195.502 30.7307 194.176 31.4849C192.85 32.2391 190.519 32.6162 187.185 32.6162H179.083V13.7901H187.156C190.373 13.7901 192.674 14.1865 194.059 14.9794C195.463 15.7723 196.165 17.2807 196.165 19.5046ZM191.602 27.1627V19.4176C191.602 18.5087 191.231 17.8802 190.49 17.5321C189.749 17.184 188.628 17.0099 187.126 17.0099H183.646V29.3963H186.98C188.735 29.3963 189.944 29.2706 190.607 29.0192C191.27 28.7485 191.602 28.1296 191.602 27.1627Z" fill="#007CFF"/>
<path d="M215 26.0024V27.2497C215 28.3714 214.796 29.3189 214.386 30.0925C213.977 30.8467 213.372 31.4268 212.573 31.833C211.773 32.2197 210.896 32.4905 209.94 32.6452C209.004 32.8192 207.883 32.9062 206.576 32.9062C204.763 32.9062 202.52 32.7322 199.849 32.3841V28.9322C203.086 29.435 205.348 29.6864 206.635 29.6864C209.17 29.6864 210.437 29.0385 210.437 27.7429V26.5245C210.437 25.9637 210.272 25.5092 209.94 25.1612C209.609 24.7937 208.946 24.61 207.951 24.61H205.728C201.555 24.61 199.469 22.9662 199.469 19.6787V18.2863C199.469 16.6619 200.151 15.4629 201.516 14.6893C202.901 13.8964 205.104 13.5 208.127 13.5C209.589 13.5 211.568 13.6257 214.064 13.8771V17.242C211.1 16.8939 209.072 16.7199 207.98 16.7199C206.479 16.7199 205.445 16.8456 204.88 17.097C204.314 17.3484 204.032 17.7738 204.032 18.3733V19.7077C204.032 20.6939 204.87 21.1871 206.547 21.1871H208.829C211.052 21.1871 212.631 21.5932 213.567 22.4054C214.523 23.2176 215 24.4166 215 26.0024Z" fill="#007CFF"/>
<path fill-rule="evenodd" clip-rule="evenodd" d="M41.8453 2.43607C41.8453 1.09066 42.9492 0 44.311 0H59.0834C60.4451 0 61.549 1.09066 61.549 2.43607V17.4585C61.549 18.8039 60.4451 19.8945 59.0834 19.8945C57.7217 19.8945 56.6178 18.8039 56.6178 17.4585V9.0929L38.0341 30.82C36.4725 32.6457 34.1761 33.6989 31.7567 33.6989H28.9422C27.697 33.6989 26.5587 34.394 26.0018 35.4944L17.3185 52.6528C16.7096 53.8562 15.2285 54.344 14.0106 53.7423C12.7926 53.1406 12.2989 51.6773 12.9079 50.474L21.5912 33.3155C22.9834 30.5645 25.8292 28.8268 28.9422 28.8268H31.7567C32.7245 28.8268 33.6431 28.4055 34.2677 27.6752L53.7717 4.87213H44.311C42.9492 4.87213 41.8453 3.78147 41.8453 2.43607Z" fill="#007CFF"/>
<path fill-rule="evenodd" clip-rule="evenodd" d="M43.6607 12.8003C42.7942 11.2141 41.9513 9.77102 41.12 8.5167C39.1375 5.52531 36.0021 1.64917 30.7795 0.435573C28.2803 -0.145191 25.6805 -0.145191 23.1813 0.435573C17.9587 1.64917 14.8232 5.52531 12.8408 8.5167C10.8556 11.5121 8.80424 15.5836 6.52325 20.1109L6.08864 20.9733C4.19813 24.7236 2.44453 28.2023 1.37507 31.1549C0.256546 34.2431 -0.773384 38.4358 0.818613 42.9004C1.61021 45.1203 2.86415 47.148 4.49797 48.85C6.23261 50.6571 8.22747 51.7791 10.2054 52.4932C10.0058 51.4584 10.1345 50.3508 10.651 49.3303L13.1576 44.3771C12.1708 44.0213 11.3839 43.5377 10.7528 42.8802C9.96402 42.0586 9.35867 41.0797 8.97652 40.008C7.82026 36.7654 9.89184 32.6547 14.035 24.4332C18.9847 14.6114 21.4595 9.70054 25.1463 8.84382C26.3529 8.56345 27.6079 8.56345 28.8144 8.84382C31.8785 9.55583 34.1055 13.0681 37.6117 19.8725L43.6607 12.8003ZM19.5072 53.9252C21.6733 54.0005 24.0404 54.0003 26.5128 54H27.448C31.6574 54.0005 35.562 54.0009 38.688 53.628C41.9575 53.238 46.177 52.2731 49.4628 48.85C51.0966 47.148 52.3506 45.1203 53.1422 42.9004C54.7342 38.4358 53.7042 34.2431 52.5857 31.1549C51.6514 28.5753 50.1948 25.5942 48.581 22.3812L42.462 29.5353C44.8569 34.5166 45.8721 37.5182 44.9843 40.008C44.6021 41.0797 43.9968 42.0586 43.208 42.8802C40.8215 45.3664 36.2078 45.3664 26.9804 45.3664C25.8691 45.3664 24.8247 45.3664 23.843 45.362L19.5747 53.7965C19.5527 53.8398 19.5302 53.8827 19.5072 53.9252Z" fill="#007CFF"/>
</g>
<defs>
<clipPath id="clip0_2_18206">
<rect width="215" height="54" fill="white"/>
</clipPath>
</defs>
</svg>
