<svg width="1920" height="981" viewBox="0 0 1920 981" fill="none" xmlns="http://www.w3.org/2000/svg">
<g clip-path="url(#clip0_1340_104)">
<rect width="1920" height="1080" fill="#F5F5F5"/>
<g opacity="0.2" filter="url(#filter0_f_1340_104)">
<circle cx="1015" cy="715" r="288" fill="#007CFF"/>
</g>
<g opacity="0.1" filter="url(#filter1_f_1340_104)">
<circle cx="1506" cy="537" r="236" fill="#1400DC"/>
</g>
<path d="M1080 580L1080.35 668.359L1089.93 580.52L1081.04 668.432L1099.75 582.076L1081.72 668.577L1109.36 584.65L1082.38 668.792L1118.64 588.213L1083.02 669.075L1127.5 592.728L1083.62 669.423L1135.84 598.143L1084.18 669.832L1143.57 604.401L1084.7 670.298L1150.6 611.433L1085.17 670.815L1156.86 619.16L1085.58 671.378L1162.27 627.5L1085.93 671.981L1166.79 636.36L1086.21 672.617L1170.35 645.643L1086.42 673.279L1172.92 655.248L1086.57 673.96L1174.48 665.07L1086.64 674.652L1175 675L1086.64 675.348L1174.48 684.93L1086.57 676.04L1172.92 694.752L1086.42 676.721L1170.35 704.357L1086.21 677.383L1166.79 713.64L1085.93 678.019L1162.27 722.5L1085.58 678.622L1156.86 730.84L1085.17 679.185L1150.6 738.567L1084.7 679.702L1143.57 745.599L1084.18 680.168L1135.84 751.857L1083.62 680.577L1127.5 757.272L1083.02 680.925L1118.64 761.787L1082.38 681.208L1109.36 765.35L1081.72 681.423L1099.75 767.924L1081.04 681.568L1089.93 769.48L1080.35 681.641L1080 770L1079.65 681.641L1070.07 769.48L1078.96 681.568L1060.25 767.924L1078.28 681.423L1050.64 765.35L1077.62 681.208L1041.36 761.787L1076.98 680.925L1032.5 757.272L1076.38 680.577L1024.16 751.857L1075.82 680.168L1016.43 745.599L1075.3 679.702L1009.4 738.567L1074.83 679.185L1003.14 730.84L1074.42 678.622L997.728 722.5L1074.07 678.019L993.213 713.64L1073.79 677.383L989.65 704.357L1073.58 676.721L987.076 694.752L1073.43 676.04L985.52 684.93L1073.36 675.348L985 675L1073.36 674.652L985.52 665.07L1073.43 673.96L987.076 655.248L1073.58 673.279L989.65 645.643L1073.79 672.617L993.213 636.36L1074.07 671.981L997.728 627.5L1074.42 671.378L1003.14 619.16L1074.83 670.815L1009.4 611.433L1075.3 670.298L1016.43 604.401L1075.82 669.832L1024.16 598.143L1076.38 669.423L1032.5 592.728L1076.98 669.075L1041.36 588.213L1077.62 668.792L1050.64 584.65L1078.28 668.577L1060.25 582.076L1078.96 668.432L1070.07 580.52L1079.65 668.359L1080 580Z" fill="#007CFF"/>
<g opacity="0.05" filter="url(#filter2_f_1340_104)">
<circle cx="413" cy="951" r="236" fill="#DC005A"/>
</g>
</g>
<defs>
<filter id="filter0_f_1340_104" x="227" y="-73" width="1576" height="1576" filterUnits="userSpaceOnUse" color-interpolation-filters="sRGB">
<feFlood flood-opacity="0" result="BackgroundImageFix"/>
<feBlend mode="normal" in="SourceGraphic" in2="BackgroundImageFix" result="shape"/>
<feGaussianBlur stdDeviation="250" result="effect1_foregroundBlur_1340_104"/>
</filter>
<filter id="filter1_f_1340_104" x="1070" y="101" width="872" height="872" filterUnits="userSpaceOnUse" color-interpolation-filters="sRGB">
<feFlood flood-opacity="0" result="BackgroundImageFix"/>
<feBlend mode="normal" in="SourceGraphic" in2="BackgroundImageFix" result="shape"/>
<feGaussianBlur stdDeviation="100" result="effect1_foregroundBlur_1340_104"/>
</filter>
<filter id="filter2_f_1340_104" x="-23" y="515" width="872" height="872" filterUnits="userSpaceOnUse" color-interpolation-filters="sRGB">
<feFlood flood-opacity="0" result="BackgroundImageFix"/>
<feBlend mode="normal" in="SourceGraphic" in2="BackgroundImageFix" result="shape"/>
<feGaussianBlur stdDeviation="100" result="effect1_foregroundBlur_1340_104"/>
</filter>
<clipPath id="clip0_1340_104">
<path d="M0 0H1920V941C1920 959.856 1920 969.284 1914.14 975.142C1908.28 981 1898.86 981 1880 981H40C21.1438 981 11.7157 981 5.85786 975.142C0 969.284 0 959.856 0 941V0Z" fill="white"/>
</clipPath>
</defs>
</svg>
