<svg width="375" height="1298" viewBox="0 0 375 1298" fill="none" xmlns="http://www.w3.org/2000/svg">
<g clip-path="url(#clip0_1495_386)">
<rect width="375" height="1298" fill="#F5F5F5"/>
<g opacity="0.2" filter="url(#filter0_f_1495_386)">
<circle cx="260.5" cy="272.5" r="129.5" fill="#007CFF"/>
</g>
<g opacity="0.1" filter="url(#filter1_f_1495_386)">
<ellipse cx="10.5" cy="570" rx="106.5" ry="106" fill="#1400DC"/>
</g>
<path d="M348 891L348.348 979.359L357.93 891.52L349.04 979.432L367.752 893.076L349.721 979.577L377.357 895.65L350.383 979.792L386.64 899.213L351.019 980.075L395.5 903.728L351.622 980.423L403.84 909.143L352.185 980.832L411.567 915.401L352.702 981.298L418.599 922.433L353.168 981.815L424.857 930.16L353.577 982.378L430.272 938.5L353.925 982.981L434.787 947.36L354.208 983.617L438.35 956.643L354.423 984.279L440.924 966.248L354.568 984.96L442.48 976.07L354.641 985.652L443 986L354.641 986.348L442.48 995.93L354.568 987.04L440.924 1005.75L354.423 987.721L438.35 1015.36L354.208 988.383L434.787 1024.64L353.925 989.019L430.272 1033.5L353.577 989.622L424.857 1041.84L353.168 990.185L418.599 1049.57L352.702 990.702L411.567 1056.6L352.185 991.168L403.84 1062.86L351.622 991.577L395.5 1068.27L351.019 991.925L386.64 1072.79L350.383 992.208L377.357 1076.35L349.721 992.423L367.752 1078.92L349.04 992.568L357.93 1080.48L348.348 992.641L348 1081L347.652 992.641L338.07 1080.48L346.96 992.568L328.248 1078.92L346.279 992.423L318.643 1076.35L345.617 992.208L309.36 1072.79L344.981 991.925L300.5 1068.27L344.378 991.577L292.16 1062.86L343.815 991.168L284.433 1056.6L343.298 990.702L277.401 1049.57L342.832 990.185L271.143 1041.84L342.423 989.622L265.728 1033.5L342.075 989.019L261.213 1024.64L341.792 988.383L257.65 1015.36L341.577 987.721L255.076 1005.75L341.432 987.04L253.52 995.93L341.359 986.348L253 986L341.359 985.652L253.52 976.07L341.432 984.96L255.076 966.248L341.577 984.279L257.65 956.643L341.792 983.617L261.213 947.36L342.075 982.981L265.728 938.5L342.423 982.378L271.143 930.16L342.832 981.815L277.401 922.433L343.298 981.298L284.433 915.401L343.815 980.832L292.16 909.143L344.378 980.423L300.5 903.728L344.981 980.075L309.36 899.213L345.617 979.792L318.643 895.65L346.279 979.577L328.248 893.076L346.96 979.432L338.07 891.52L347.652 979.359L348 891Z" fill="#007CFF"/>
</g>
<defs>
<filter id="filter0_f_1495_386" x="-269" y="-257" width="1059" height="1059" filterUnits="userSpaceOnUse" color-interpolation-filters="sRGB">
<feFlood flood-opacity="0" result="BackgroundImageFix"/>
<feBlend mode="normal" in="SourceGraphic" in2="BackgroundImageFix" result="shape"/>
<feGaussianBlur stdDeviation="200" result="effect1_foregroundBlur_1495_386"/>
</filter>
<filter id="filter1_f_1495_386" x="-296" y="264" width="613" height="612" filterUnits="userSpaceOnUse" color-interpolation-filters="sRGB">
<feFlood flood-opacity="0" result="BackgroundImageFix"/>
<feBlend mode="normal" in="SourceGraphic" in2="BackgroundImageFix" result="shape"/>
<feGaussianBlur stdDeviation="100" result="effect1_foregroundBlur_1495_386"/>
</filter>
<clipPath id="clip0_1495_386">
<rect width="375" height="1298" fill="white"/>
</clipPath>
</defs>
</svg>
