<svg width="22" height="22" viewBox="0 0 22 22" fill="none" xmlns="http://www.w3.org/2000/svg">
<path d="M20.1673 9.16667H1.83398M10.084 12.8333H5.50065M1.83398 7.51667L1.83398 14.4833C1.83398 15.5101 1.83398 16.0235 2.03381 16.4157C2.20957 16.7606 2.49004 17.0411 2.835 17.2168C3.22717 17.4167 3.74055 17.4167 4.76732 17.4167L17.234 17.4167C18.2607 17.4167 18.7741 17.4167 19.1663 17.2168C19.5113 17.0411 19.7917 16.7606 19.9675 16.4157C20.1673 16.0235 20.1673 15.5101 20.1673 14.4833V7.51667C20.1673 6.48991 20.1673 5.97653 19.9675 5.58435C19.7917 5.23939 19.5113 4.95893 19.1663 4.78316C18.7741 4.58334 18.2607 4.58334 17.234 4.58334L4.76732 4.58334C3.74056 4.58334 3.22717 4.58334 2.835 4.78316C2.49004 4.95892 2.20957 5.23939 2.03381 5.58435C1.83398 5.97652 1.83398 6.48991 1.83398 7.51667Z" stroke="white" stroke-width="1.5" stroke-linecap="round" stroke-linejoin="round"/>
</svg>
