<svg width="190" height="190" viewBox="0 0 190 190" fill="none" xmlns="http://www.w3.org/2000/svg">
<path d="M95 0L95.348 88.3591L104.93 0.520416L96.0403 88.4319L114.752 2.07598L96.7211 88.5766L124.357 4.64963L97.3831 88.7917L133.64 8.21318L98.019 89.0748L142.5 12.7276L98.6218 89.4228L150.84 18.1434L99.185 89.832L158.567 24.4012L99.7023 90.2977L165.599 31.4326L100.168 90.815L171.857 39.1604L100.577 91.3782L177.272 47.5L100.925 91.981L181.787 56.36L101.208 92.6169L185.35 65.6434L101.423 93.2789L187.924 75.2484L101.568 93.9597L189.48 85.0698L101.641 94.652L190 95L101.641 95.348L189.48 104.93L101.568 96.0403L187.924 114.752L101.423 96.7211L185.35 124.357L101.208 97.3831L181.787 133.64L100.925 98.019L177.272 142.5L100.577 98.6218L171.857 150.84L100.168 99.185L165.599 158.567L99.7023 99.7023L158.567 165.599L99.185 100.168L150.84 171.857L98.6218 100.577L142.5 177.272L98.019 100.925L133.64 181.787L97.3831 101.208L124.357 185.35L96.7211 101.423L114.752 187.924L96.0403 101.568L104.93 189.48L95.348 101.641L95 190L94.652 101.641L85.0698 189.48L93.9597 101.568L75.2484 187.924L93.2789 101.423L65.6434 185.35L92.6169 101.208L56.36 181.787L91.981 100.925L47.5 177.272L91.3782 100.577L39.1604 171.857L90.815 100.168L31.4326 165.599L90.2977 99.7023L24.4012 158.567L89.832 99.185L18.1434 150.84L89.4228 98.6218L12.7276 142.5L89.0748 98.019L8.21318 133.64L88.7917 97.3831L4.64963 124.357L88.5766 96.7211L2.07598 114.752L88.4319 96.0403L0.520416 104.93L88.3591 95.348L0 95L88.3591 94.652L0.520416 85.0698L88.4319 93.9597L2.07598 75.2484L88.5766 93.2789L4.64963 65.6434L88.7917 92.6169L8.21318 56.36L89.0748 91.981L12.7276 47.5L89.4228 91.3782L18.1434 39.1604L89.832 90.815L24.4012 31.4326L90.2977 90.2977L31.4326 24.4012L90.815 89.832L39.1604 18.1434L91.3782 89.4228L47.5 12.7276L91.981 89.0748L56.36 8.21318L92.6169 88.7917L65.6434 4.64963L93.2789 88.5766L75.2484 2.07598L93.9597 88.4319L85.0698 0.520416L94.652 88.3591L95 0Z" fill="#007CFF"/>
</svg>
