<svg width="28" height="28" viewBox="0 0 28 28" fill="none" xmlns="http://www.w3.org/2000/svg">
<rect width="28" height="28" rx="8" fill="#25D366"/>
<path fill-rule="evenodd" clip-rule="evenodd" d="M14.5314 20.8711H14.5283C13.2783 20.8707 12.0501 20.5586 10.9592 19.9664L7 21L8.05956 17.1484C7.40597 16.0211 7.06206 14.7424 7.06262 13.4324C7.06426 9.33422 10.4147 6 14.5313 6C16.5293 6.00086 18.4045 6.77493 19.8146 8.1799C21.2246 9.5848 22.0008 11.4523 22 13.4383C21.9983 17.5356 18.6492 20.8694 14.5314 20.8711ZM11.1433 18.6208L11.37 18.7547C12.3231 19.3175 13.4156 19.6154 14.5295 19.6158H14.532C17.9535 19.6158 20.7382 16.8443 20.7396 13.4378C20.7402 11.7871 20.0951 10.2349 18.9231 9.06718C17.7511 7.89942 16.1925 7.256 14.5344 7.25543C11.1103 7.25543 8.32558 10.0266 8.32422 13.4328C8.32374 14.6002 8.65193 15.737 9.27332 16.7206L9.42092 16.9544L8.79381 19.2341L11.1433 18.6208ZM18.0394 15.0386C18.1695 15.1012 18.2574 15.1434 18.295 15.2058C18.3416 15.2832 18.3416 15.6551 18.1862 16.089C18.0306 16.5228 17.2851 16.9187 16.9265 16.972C16.605 17.0199 16.1981 17.0398 15.7511 16.8985C15.4801 16.8129 15.1325 16.6986 14.6873 16.5072C12.9378 15.7554 11.7555 14.0679 11.532 13.749C11.5164 13.7266 11.5054 13.711 11.4993 13.7029L11.4978 13.7009C11.399 13.5697 10.7373 12.6911 10.7373 11.7817C10.7373 10.9262 11.1596 10.4778 11.3539 10.2714C11.3672 10.2572 11.3795 10.2442 11.3904 10.2323C11.5615 10.0464 11.7637 9.99987 11.8881 9.99987C12.0125 9.99987 12.137 10.001 12.2458 10.0065C12.2592 10.0071 12.2731 10.007 12.2876 10.007C12.3963 10.0063 12.5319 10.0055 12.6656 10.3253C12.7171 10.4483 12.7924 10.6307 12.8718 10.8231C13.0324 11.2122 13.2098 11.6421 13.241 11.7043C13.2877 11.7972 13.3188 11.9057 13.2566 12.0297C13.2472 12.0483 13.2386 12.0658 13.2303 12.0826C13.1836 12.1775 13.1492 12.2473 13.0699 12.3395C13.0388 12.3757 13.0065 12.4148 12.9743 12.4538C12.9101 12.5316 12.8459 12.6094 12.79 12.6649C12.6966 12.7575 12.5993 12.8579 12.7082 13.0439C12.8171 13.2298 13.1916 13.838 13.7464 14.3305C14.3427 14.8598 14.861 15.0836 15.1237 15.197C15.1751 15.2191 15.2166 15.2371 15.2471 15.2523C15.4336 15.3453 15.5425 15.3297 15.6514 15.2058C15.7602 15.0818 16.1179 14.6635 16.2423 14.4776C16.3667 14.2917 16.4911 14.3227 16.6621 14.3846C16.8332 14.4467 17.7507 14.8959 17.9373 14.9889C17.9738 15.007 18.0078 15.0234 18.0394 15.0386Z" fill="#FDFDFD"/>
</svg>
